<?xml version="1.0" encoding="utf-8"?>
<!-- Generator: Adobe Illustrator 15.0.0, SVG Export Plug-In . SVG Version: 6.00 Build 0)  -->
<!DOCTYPE svg PUBLIC "-//W3C//DTD SVG 1.1//EN" "http://www.w3.org/Graphics/SVG/1.1/DTD/svg11.dtd">
<svg version="1.1" id="Layer_1" xmlns="http://www.w3.org/2000/svg" xmlns:xlink="http://www.w3.org/1999/xlink" x="0px" y="0px"
	 width="83px" height="45px" viewBox="0 0 83 45" enable-background="new 0 0 83 45" xml:space="preserve">
<g>
	<path fill="#FFFFFF" d="M30.011,23.871c-0.055-5.53,4.51-8.183,4.713-8.316c-2.565-3.751-6.562-4.266-7.984-4.324
		c-3.398-0.346-6.634,2.002-8.359,2.002c-1.72,0-4.384-1.952-7.202-1.902c-3.708,0.056-7.125,2.157-9.033,5.476
		c-3.85,6.678-0.984,16.577,2.767,21.997c1.834,2.65,4.021,5.631,6.891,5.521c2.766-0.107,3.81-1.787,7.153-1.787
		c3.343,0,4.283,1.787,7.208,1.732c2.974-0.053,4.86-2.699,6.68-5.359c2.104-3.078,2.972-6.061,3.023-6.211
		C35.804,32.67,30.071,30.473,30.011,23.871z"/>
	<path fill="#FFFFFF" d="M24.514,7.643c1.521-1.848,2.553-4.415,2.273-6.971c-2.197,0.089-4.855,1.46-6.432,3.306
		c-1.413,1.638-2.648,4.245-2.317,6.754C20.488,10.923,22.987,9.487,24.514,7.643z"/>
</g>
<g>
	<path fill="#FFFFFF" d="M48.857,19.501h-4.061l-1.395,3.528h-0.773l4.02-10.036h0.445l3.938,10.036h-0.787L48.857,19.501z
		 M45.049,18.873h3.576l-1.361-3.603c-0.113-0.283-0.25-0.674-0.41-1.176c-0.123,0.438-0.257,0.834-0.402,1.189L45.049,18.873z"/>
	<path fill="#FFFFFF" d="M55.453,23.166c-1.144,0-1.978-0.429-2.502-1.286h-0.047l0.02,0.574c0.019,0.337,0.027,0.707,0.027,1.108
		v2.83h-0.676V15.598h0.574l0.129,1.06h0.041c0.511-0.802,1.326-1.203,2.447-1.203c1.003,0,1.768,0.329,2.294,0.988
		s0.79,1.617,0.79,2.875c0,1.221-0.277,2.168-0.831,2.84S56.41,23.166,55.453,23.166z M55.439,22.564
		c0.762,0,1.351-0.283,1.768-0.848s0.625-1.356,0.625-2.372c0-2.183-0.788-3.274-2.365-3.274c-0.865,0-1.501,0.238-1.906,0.714
		c-0.406,0.476-0.609,1.252-0.609,2.328v0.219c0,1.162,0.195,1.992,0.585,2.488S54.561,22.564,55.439,22.564z"/>
	<path fill="#FFFFFF" d="M63.787,23.166c-1.145,0-1.979-0.429-2.502-1.286h-0.049l0.021,0.574c0.018,0.337,0.027,0.707,0.027,1.108
		v2.83h-0.678V15.598h0.574l0.131,1.06h0.041c0.51-0.802,1.326-1.203,2.447-1.203c1.002,0,1.767,0.329,2.293,0.988
		s0.789,1.617,0.789,2.875c0,1.221-0.276,2.168-0.83,2.84S64.744,23.166,63.787,23.166z M63.773,22.564
		c0.761,0,1.35-0.283,1.767-0.848s0.626-1.356,0.626-2.372c0-2.183-0.789-3.274-2.365-3.274c-0.866,0-1.502,0.238-1.908,0.714
		c-0.405,0.476-0.607,1.252-0.607,2.328v0.219c0,1.162,0.194,1.992,0.584,2.488S62.894,22.564,63.773,22.564z"/>
	<path fill="#FFFFFF" d="M69.617,23.029h-0.676V12.392h0.676V23.029z"/>
	<path fill="#FFFFFF" d="M75.107,23.166c-1.08,0-1.922-0.333-2.527-0.999c-0.604-0.666-0.904-1.597-0.904-2.796
		c0-1.185,0.291-2.134,0.875-2.847c0.582-0.713,1.369-1.07,2.357-1.07c0.875,0,1.566,0.305,2.072,0.916s0.758,1.44,0.758,2.488
		v0.547h-5.352c0.008,1.021,0.246,1.8,0.713,2.338c0.469,0.538,1.137,0.807,2.008,0.807c0.424,0,0.795-0.03,1.117-0.089
		c0.32-0.059,0.729-0.187,1.221-0.383v0.615c-0.42,0.182-0.807,0.306-1.162,0.373S75.535,23.166,75.107,23.166z M74.908,16.056
		c-0.715,0-1.289,0.236-1.723,0.708c-0.432,0.472-0.686,1.152-0.758,2.041h4.594c0-0.861-0.188-1.535-0.561-2.02
		C76.086,16.299,75.57,16.056,74.908,16.056z"/>
	<path fill="#FFFFFF" d="M51.822,37.252c0,0.834-0.307,1.494-0.919,1.982c-0.612,0.486-1.428,0.73-2.444,0.73
		c-1.221,0-2.157-0.135-2.809-0.402v-0.697c0.72,0.305,1.638,0.457,2.754,0.457c0.82,0,1.471-0.188,1.952-0.563
		c0.481-0.377,0.722-0.871,0.722-1.48c0-0.379-0.08-0.691-0.24-0.939c-0.159-0.25-0.419-0.477-0.779-0.682
		c-0.359-0.205-0.889-0.426-1.586-0.662c-1.021-0.352-1.726-0.73-2.115-1.139s-0.584-0.951-0.584-1.631
		c0-0.747,0.293-1.356,0.878-1.828s1.339-0.707,2.259-0.707c0.939,0,1.821,0.178,2.646,0.533l-0.254,0.602
		c-0.829-0.347-1.622-0.52-2.379-0.52c-0.738,0-1.326,0.17-1.764,0.512s-0.656,0.807-0.656,1.395c0,0.369,0.068,0.673,0.202,0.91
		c0.134,0.236,0.354,0.449,0.659,0.639c0.306,0.189,0.83,0.416,1.572,0.68c0.779,0.27,1.365,0.531,1.758,0.783
		c0.392,0.254,0.678,0.541,0.857,0.861C51.732,36.408,51.822,36.795,51.822,37.252z"/>
	<path fill="#FFFFFF" d="M55.727,39.363c0.428,0,0.802-0.035,1.121-0.109v0.547c-0.328,0.109-0.707,0.164-1.135,0.164
		c-0.656,0-1.141-0.176-1.453-0.525c-0.313-0.352-0.469-0.902-0.469-1.654v-4.799h-1.1V32.59l1.1-0.309l0.342-1.682h0.35v1.799h2.18
		v0.588h-2.18v4.703c0,0.568,0.1,0.99,0.301,1.264C54.983,39.227,55.298,39.363,55.727,39.363z"/>
	<path fill="#FFFFFF" d="M64.6,36.104c0,1.211-0.295,2.158-0.883,2.84s-1.398,1.021-2.434,1.021c-0.651,0-1.226-0.156-1.723-0.471
		c-0.496-0.314-0.877-0.766-1.141-1.354c-0.265-0.588-0.396-1.268-0.396-2.037c0-1.213,0.293-2.156,0.881-2.834
		c0.588-0.677,1.395-1.016,2.42-1.016c1.021,0,1.822,0.344,2.403,1.029S64.6,34.908,64.6,36.104z M58.734,36.104
		c0,1.02,0.225,1.816,0.673,2.389s1.083,0.857,1.903,0.857s1.455-0.285,1.904-0.857s0.674-1.369,0.674-2.389
		c0-1.025-0.227-1.82-0.681-2.387c-0.454-0.564-1.091-0.848-1.911-0.848s-1.452,0.281-1.896,0.846
		C58.956,34.277,58.734,35.072,58.734,36.104z"/>
	<path fill="#FFFFFF" d="M69.582,32.254c0.314,0,0.652,0.032,1.012,0.096L70.465,33c-0.311-0.078-0.632-0.117-0.965-0.117
		c-0.633,0-1.152,0.27-1.559,0.807c-0.405,0.539-0.607,1.217-0.607,2.037v4.102h-0.678v-7.43h0.574l0.068,1.34h0.049
		c0.305-0.547,0.631-0.932,0.977-1.152C68.671,32.365,69.09,32.254,69.582,32.254z"/>
	<path fill="#FFFFFF" d="M75.105,39.965c-1.08,0-1.922-0.332-2.525-0.998c-0.604-0.664-0.906-1.598-0.906-2.795
		c0-1.186,0.293-2.135,0.875-2.848c0.584-0.713,1.369-1.07,2.359-1.07c0.875,0,1.564,0.306,2.07,0.916
		c0.506,0.611,0.76,1.441,0.76,2.488v0.547h-5.354c0.01,1.021,0.248,1.801,0.715,2.338c0.467,0.539,1.137,0.807,2.006,0.807
		c0.424,0,0.797-0.029,1.117-0.088c0.322-0.061,0.729-0.188,1.221-0.383v0.615c-0.418,0.182-0.807,0.307-1.162,0.373
		C75.926,39.932,75.535,39.965,75.105,39.965z M74.908,32.855c-0.717,0-1.291,0.236-1.723,0.709c-0.434,0.471-0.686,1.15-0.76,2.039
		h4.594c0-0.861-0.186-1.533-0.561-2.02C76.086,33.099,75.568,32.855,74.908,32.855z"/>
</g>
</svg>
