<?xml version="1.0" encoding="utf-8"?>
<!-- Generator: Adobe Illustrator 15.0.0, SVG Export Plug-In . SVG Version: 6.00 Build 0)  -->
<!DOCTYPE svg PUBLIC "-//W3C//DTD SVG 1.1//EN" "http://www.w3.org/Graphics/SVG/1.1/DTD/svg11.dtd">
<svg version="1.1" id="Layer_1" xmlns="http://www.w3.org/2000/svg" xmlns:xlink="http://www.w3.org/1999/xlink" x="0px" y="0px"
	 width="104px" height="45px" viewBox="0 0 104 45" enable-background="new 0 0 104 45" xml:space="preserve">
<g>
	<path fill="#FFFFFF" d="M1.938,42.945l18.228-20.25L1.938,2.407C1.489,3.213,1.179,4.52,1.179,6.402v16.293v16.251
		C1.179,40.83,1.489,42.137,1.938,42.945L1.938,42.945z"/>
	<path fill="#FFFFFF" d="M4.147,0.985l17.745,19.789l5.973-6.686L9.257,2.867C7.151,1.6,5.839,0.985,4.32,0.985
		C4.25,0.985,4.182,0.985,4.147,0.985L4.147,0.985z"/>
	<path fill="#FFFFFF" d="M30.107,15.432l-6.49,7.263l6.49,7.224l3.935-2.384c1.45-0.885,3.66-2.497,3.66-4.84
		c0-2.383-2.21-3.997-3.66-4.881L30.107,15.432z"/>
	<path fill="#FFFFFF" d="M27.864,31.262l-5.973-6.685L4.147,44.365c0.035,0,0.104,0,0.173,0c1.519,0,2.831-0.615,4.937-1.882
		L27.864,31.262z"/>
</g>
<g>
	<path fill="#FFFFFF" d="M49.434,13.456h3.685v4.56c-0.966,0.41-2.053,0.615-3.261,0.615c-1.577,0-2.786-0.445-3.626-1.336
		s-1.261-2.152-1.261-3.784c0-1.016,0.208-1.917,0.625-2.704s1.014-1.394,1.791-1.822s1.669-0.643,2.676-0.643
		c1.089,0,2.067,0.201,2.933,0.602l-0.28,0.629c-0.866-0.401-1.764-0.602-2.693-0.602c-1.317,0-2.362,0.407-3.134,1.22
		s-1.159,1.911-1.159,3.292c0,1.504,0.367,2.635,1.101,3.394s1.812,1.138,3.233,1.138c0.92,0,1.702-0.13,2.345-0.39v-3.514h-2.974
		V13.456z"/>
	<path fill="#FFFFFF" d="M61.602,14.769c0,1.212-0.294,2.159-0.882,2.84s-1.399,1.022-2.434,1.022c-0.651,0-1.226-0.157-1.723-0.472
		s-0.877-0.766-1.142-1.354s-0.396-1.267-0.396-2.037c0-1.212,0.294-2.157,0.882-2.833s1.395-1.015,2.42-1.015
		c1.021,0,1.821,0.343,2.403,1.029C61.311,12.635,61.602,13.575,61.602,14.769z M55.736,14.769c0,1.021,0.225,1.817,0.674,2.389
		c0.448,0.572,1.083,0.858,1.903,0.858s1.455-0.286,1.903-0.858c0.449-0.572,0.674-1.368,0.674-2.389
		c0-1.025-0.227-1.821-0.68-2.386c-0.454-0.565-1.091-0.848-1.911-0.848s-1.452,0.281-1.897,0.844
		C55.959,12.942,55.736,13.739,55.736,14.769z"/>
	<path fill="#FFFFFF" d="M69.805,14.769c0,1.212-0.294,2.159-0.882,2.84s-1.399,1.022-2.434,1.022c-0.651,0-1.226-0.157-1.723-0.472
		s-0.877-0.766-1.142-1.354s-0.396-1.267-0.396-2.037c0-1.212,0.294-2.157,0.882-2.833s1.395-1.015,2.42-1.015
		c1.021,0,1.821,0.343,2.403,1.029C69.514,12.635,69.805,13.575,69.805,14.769z M63.939,14.769c0,1.021,0.225,1.817,0.674,2.389
		c0.448,0.572,1.083,0.858,1.903,0.858s1.455-0.286,1.903-0.858c0.449-0.572,0.674-1.368,0.674-2.389
		c0-1.025-0.227-1.821-0.68-2.386c-0.454-0.565-1.091-0.848-1.911-0.848s-1.452,0.281-1.897,0.844
		C64.162,12.942,63.939,13.739,63.939,14.769z"/>
	<path fill="#FFFFFF" d="M77.659,11.063v0.472l-1.538,0.096c0.41,0.51,0.615,1.071,0.615,1.682c0,0.715-0.238,1.295-0.715,1.74
		c-0.476,0.444-1.115,0.667-1.917,0.667c-0.337,0-0.574-0.014-0.711-0.041c-0.269,0.141-0.474,0.308-0.615,0.499
		s-0.212,0.394-0.212,0.608c0,0.237,0.09,0.41,0.27,0.52c0.181,0.109,0.482,0.164,0.906,0.164h1.299
		c0.807,0,1.424,0.163,1.853,0.489s0.643,0.808,0.643,1.446c0,0.784-0.317,1.389-0.954,1.815c-0.635,0.426-1.541,0.639-2.717,0.639
		c-0.935,0-1.658-0.18-2.17-0.54c-0.514-0.36-0.77-0.861-0.77-1.504c0-0.51,0.158-0.934,0.475-1.271
		c0.317-0.337,0.747-0.567,1.289-0.69c-0.224-0.096-0.402-0.231-0.537-0.407c-0.134-0.175-0.201-0.377-0.201-0.605
		c0-0.497,0.316-0.934,0.95-1.313c-0.433-0.178-0.771-0.457-1.012-0.837s-0.362-0.817-0.362-1.309c0-0.743,0.236-1.339,0.707-1.788
		c0.473-0.449,1.109-0.673,1.911-0.673c0.487,0,0.866,0.048,1.135,0.144H77.659z M71.644,19.752c0,1.021,0.759,1.531,2.276,1.531
		c1.95,0,2.926-0.622,2.926-1.866c0-0.447-0.152-0.77-0.458-0.971s-0.8-0.301-1.483-0.301h-1.217
		C72.325,18.146,71.644,18.681,71.644,19.752z M72.211,13.381c0,0.574,0.174,1.02,0.523,1.336c0.348,0.317,0.814,0.475,1.397,0.475
		c0.62,0,1.095-0.157,1.425-0.472c0.331-0.314,0.496-0.77,0.496-1.367c0-0.633-0.17-1.108-0.51-1.425
		c-0.339-0.317-0.814-0.475-1.425-0.475c-0.593,0-1.059,0.17-1.397,0.509C72.381,12.302,72.211,12.775,72.211,13.381z"/>
	<path fill="#FFFFFF" d="M79.86,18.494h-0.677V7.857h0.677V18.494z"/>
	<path fill="#FFFFFF" d="M85.35,18.631c-1.08,0-1.922-0.333-2.525-0.998c-0.604-0.666-0.906-1.597-0.906-2.796
		c0-1.185,0.292-2.134,0.875-2.847s1.369-1.07,2.358-1.07c0.875,0,1.565,0.305,2.071,0.916s0.759,1.44,0.759,2.488v0.547h-5.353
		c0.009,1.021,0.247,1.8,0.715,2.338c0.467,0.538,1.136,0.807,2.006,0.807c0.424,0,0.797-0.03,1.117-0.089
		c0.322-0.059,0.729-0.187,1.221-0.383v0.615c-0.419,0.182-0.807,0.307-1.162,0.373S85.778,18.631,85.35,18.631z M85.151,11.521
		c-0.716,0-1.29,0.236-1.723,0.708s-0.686,1.152-0.759,2.041h4.594c0-0.861-0.187-1.535-0.561-2.02S85.813,11.521,85.151,11.521z"/>
	<path fill="#FFFFFF" d="M48.511,35.431c-1.144,0-1.978-0.429-2.502-1.285h-0.048l0.021,0.574c0.018,0.337,0.027,0.706,0.027,1.107
		v2.83h-0.677V27.863h0.574l0.13,1.06h0.041c0.51-0.802,1.326-1.203,2.447-1.203c1.002,0,1.767,0.329,2.293,0.987
		c0.526,0.659,0.79,1.617,0.79,2.875c0,1.222-0.277,2.168-0.831,2.841C50.223,35.095,49.468,35.431,48.511,35.431z M48.497,34.829
		c0.761,0,1.35-0.282,1.767-0.848s0.625-1.355,0.625-2.372c0-2.184-0.789-3.274-2.365-3.274c-0.866,0-1.501,0.238-1.907,0.714
		c-0.406,0.477-0.608,1.253-0.608,2.328v0.219c0,1.162,0.195,1.991,0.584,2.488S47.618,34.829,48.497,34.829z"/>
	<path fill="#FFFFFF" d="M54.342,35.294h-0.677V24.657h0.677V35.294z"/>
	<path fill="#FFFFFF" d="M61.342,35.294l-0.171-1.176h-0.055c-0.374,0.479-0.758,0.816-1.151,1.016
		c-0.395,0.197-0.86,0.297-1.398,0.297c-0.729,0-1.297-0.187-1.702-0.561s-0.608-0.891-0.608-1.552c0-0.725,0.302-1.287,0.906-1.688
		c0.604-0.401,1.478-0.613,2.621-0.636l1.415-0.041v-0.492c0-0.706-0.144-1.24-0.431-1.6s-0.75-0.54-1.388-0.54
		c-0.688,0-1.401,0.191-2.14,0.574l-0.253-0.588c0.815-0.383,1.622-0.574,2.42-0.574c0.815,0,1.425,0.212,1.829,0.636
		c0.402,0.424,0.604,1.084,0.604,1.982v4.942H61.342z M58.607,34.815c0.793,0,1.418-0.227,1.877-0.68
		c0.457-0.454,0.687-1.084,0.687-1.891v-0.731l-1.299,0.055c-1.044,0.05-1.788,0.213-2.231,0.489
		c-0.445,0.275-0.667,0.705-0.667,1.288c0,0.465,0.143,0.826,0.427,1.083C57.686,34.687,58.088,34.815,58.607,34.815z"/>
	<path fill="#FFFFFF" d="M63.003,27.863H63.7l1.572,4.17c0.479,1.28,0.781,2.145,0.909,2.591h0.041
		c0.191-0.588,0.504-1.465,0.937-2.632l1.572-4.129h0.697L66.1,36.497c-0.269,0.702-0.494,1.176-0.677,1.422
		s-0.396,0.431-0.64,0.554c-0.243,0.123-0.538,0.185-0.885,0.185c-0.26,0-0.549-0.048-0.868-0.144v-0.588
		c0.265,0.073,0.549,0.109,0.854,0.109c0.232,0,0.438-0.055,0.615-0.164s0.338-0.279,0.482-0.509c0.143-0.23,0.31-0.596,0.498-1.094
		c0.189-0.5,0.312-0.824,0.366-0.975L63.003,27.863z"/>
	<path fill="#FFFFFF" d="M75.28,33.359c0,0.665-0.253,1.177-0.759,1.534c-0.506,0.358-1.224,0.537-2.153,0.537
		c-0.993,0-1.782-0.152-2.365-0.458v-0.731c0.747,0.374,1.536,0.561,2.365,0.561c0.733,0,1.291-0.122,1.671-0.365
		c0.381-0.244,0.571-0.569,0.571-0.975c0-0.374-0.151-0.688-0.454-0.943c-0.304-0.255-0.802-0.506-1.494-0.752
		c-0.743-0.269-1.265-0.5-1.565-0.693c-0.301-0.194-0.527-0.413-0.681-0.656c-0.152-0.244-0.229-0.542-0.229-0.893
		c0-0.556,0.233-0.995,0.701-1.319c0.467-0.324,1.119-0.485,1.958-0.485c0.802,0,1.563,0.15,2.283,0.451l-0.253,0.615
		c-0.729-0.301-1.406-0.451-2.03-0.451c-0.606,0-1.087,0.101-1.442,0.301s-0.533,0.479-0.533,0.834c0,0.388,0.138,0.697,0.414,0.93
		c0.275,0.232,0.814,0.492,1.616,0.779c0.67,0.241,1.157,0.459,1.463,0.652c0.306,0.194,0.534,0.414,0.687,0.66
		C75.204,32.737,75.28,33.026,75.28,33.359z"/>
	<path fill="#FFFFFF" d="M79.156,34.829c0.429,0,0.802-0.036,1.121-0.109v0.547c-0.328,0.109-0.706,0.164-1.135,0.164
		c-0.656,0-1.141-0.176-1.453-0.526c-0.312-0.351-0.468-0.902-0.468-1.654v-4.799h-1.101v-0.396l1.101-0.308l0.342-1.682h0.349
		v1.798h2.181v0.588h-2.181v4.703c0,0.569,0.101,0.991,0.301,1.265S78.728,34.829,79.156,34.829z"/>
	<path fill="#FFFFFF" d="M88.029,31.568c0,1.212-0.294,2.159-0.882,2.841c-0.588,0.681-1.399,1.021-2.434,1.021
		c-0.651,0-1.226-0.157-1.723-0.472s-0.877-0.766-1.142-1.354s-0.396-1.267-0.396-2.037c0-1.212,0.294-2.156,0.882-2.834
		c0.588-0.676,1.395-1.015,2.42-1.015c1.021,0,1.821,0.343,2.403,1.028C87.738,29.435,88.029,30.374,88.029,31.568z M82.164,31.568
		c0,1.021,0.225,1.817,0.674,2.39c0.448,0.571,1.083,0.857,1.903,0.857s1.455-0.286,1.903-0.857c0.449-0.572,0.674-1.369,0.674-2.39
		c0-1.025-0.227-1.82-0.68-2.386c-0.454-0.565-1.091-0.848-1.911-0.848s-1.452,0.281-1.897,0.845
		C82.387,29.742,82.164,30.538,82.164,31.568z"/>
	<path fill="#FFFFFF" d="M93.013,27.72c0.314,0,0.651,0.032,1.012,0.096l-0.13,0.649c-0.31-0.078-0.631-0.116-0.964-0.116
		c-0.634,0-1.153,0.269-1.559,0.807s-0.608,1.217-0.608,2.037v4.102h-0.677v-7.431h0.574l0.068,1.34h0.048
		c0.306-0.547,0.631-0.931,0.978-1.152C92.102,27.83,92.521,27.72,93.013,27.72z"/>
	<path fill="#FFFFFF" d="M98.536,35.431c-1.08,0-1.922-0.333-2.526-0.998c-0.604-0.665-0.905-1.598-0.905-2.796
		c0-1.185,0.292-2.134,0.875-2.848c0.583-0.713,1.369-1.069,2.358-1.069c0.875,0,1.565,0.306,2.071,0.916s0.759,1.44,0.759,2.488
		v0.547h-5.353c0.009,1.021,0.247,1.8,0.714,2.338c0.468,0.538,1.137,0.807,2.007,0.807c0.424,0,0.796-0.029,1.118-0.089
		c0.32-0.06,0.728-0.187,1.22-0.383v0.615c-0.419,0.183-0.807,0.307-1.162,0.372C99.356,35.397,98.965,35.431,98.536,35.431z
		 M98.338,28.321c-0.716,0-1.29,0.235-1.723,0.708c-0.433,0.471-0.686,1.151-0.759,2.04h4.594c0-0.861-0.187-1.534-0.561-2.021
		C99.516,28.564,98.999,28.321,98.338,28.321z"/>
</g>
</svg>
