<?xml version="1.0" encoding="utf-8"?>
<!-- Generator: Adobe Illustrator 18.0.0, SVG Export Plug-In . SVG Version: 6.00 Build 0)  -->
<!DOCTYPE svg PUBLIC "-//W3C//DTD SVG 1.1//EN" "http://www.w3.org/Graphics/SVG/1.1/DTD/svg11.dtd">
<svg version="1.1" id="Layer_1" xmlns="http://www.w3.org/2000/svg" xmlns:xlink="http://www.w3.org/1999/xlink" x="0px" y="0px"
	 viewBox="0 0 66.1 103.9" enable-background="new 0 0 66.1 103.9" xml:space="preserve">
<g>
	<g>
		<path fill="#E6183C" d="M54,103.2H12c-6.6,0-12-5.4-12-12c0,0,0-32.3,0-32.3c0-1.7,0-3.5,0-5.2c0-2.1-0.2-4.2,0.4-6.2
			c0.4-1.3,1.3-2.5,2.1-3.6c1.6-2.3,3.5-4.5,5.4-6.6c4.4-4.8,9.2-9.3,14.2-13.6c2.7-2.3,5.6-5,8.9-6.5c0.6-0.3,1.4-0.7,2-0.7
			c0.6,0,1.4,0.4,2,0.7c1.3,0.5,2.4,1.5,3.5,2.3c2,1.5,3.8,3,5.7,4.6c4.6,4,9.1,8.2,13.3,12.7c1.9,2,3.7,4,5.3,6.2
			c1.4,1.9,2.9,3.9,3.2,6.2c0.2,2,0,4.2,0,6.2c0,1.2,0,2.5,0,3.7c0,0,0,32,0,32C66,97.8,60.6,103.2,54,103.2z"/>
		<linearGradient id="SVGID_1_" gradientUnits="userSpaceOnUse" x1="27.54" y1="26.8773" x2="38.54" y2="26.8773">
			<stop  offset="0" style="stop-color:#525252"/>
			<stop  offset="0.4301" style="stop-color:#B0B0B0"/>
			<stop  offset="1" style="stop-color:#000000"/>
		</linearGradient>
		<circle fill="#FFFFFF" stroke="url(#SVGID_1_)" stroke-miterlimit="10" cx="33" cy="26.9" r="5"/>
		<rect x="12.4" y="48.4" fill="#FFFFFF" width="41.8" height="1"/>
		<linearGradient id="SVGID_2_" gradientUnits="userSpaceOnUse" x1="36.1177" y1="13.4357" x2="42.2425" y2="13.4357">
			<stop  offset="0" style="stop-color:#363636"/>
			<stop  offset="0.2226" style="stop-color:#000000"/>
			<stop  offset="0.4301" style="stop-color:#595959"/>
			<stop  offset="1" style="stop-color:#DBDBDB"/>
		</linearGradient>
		<path fill="none" stroke="url(#SVGID_2_)" stroke-linecap="round" stroke-linejoin="round" stroke-miterlimit="10" d="M36.7,26.2
			c0,0-1.4-16.8,5-25.5"/>
		
			<linearGradient id="SVGID_3_" gradientUnits="userSpaceOnUse" x1="-1423.8823" y1="13.4357" x2="-1417.7574" y2="13.4357" gradientTransform="matrix(-1 0 0 1 -1393.6398 0)">
			<stop  offset="0" style="stop-color:#363636"/>
			<stop  offset="0.2226" style="stop-color:#000000"/>
			<stop  offset="0.4301" style="stop-color:#595959"/>
			<stop  offset="1" style="stop-color:#DBDBDB"/>
		</linearGradient>
		<path fill="none" stroke="url(#SVGID_3_)" stroke-linecap="round" stroke-linejoin="round" stroke-miterlimit="10" d="M29.6,26.2
			c0,0,1.4-16.8-5-25.5"/>
		<linearGradient id="SVGID_4_" gradientUnits="userSpaceOnUse" x1="26.0992" y1="17.1" x2="39.9151" y2="17.1">
			<stop  offset="0" style="stop-color:#0F0F0F"/>
			<stop  offset="0.2891" style="stop-color:#9C9C9C"/>
			<stop  offset="0.6544" style="stop-color:#424242"/>
			<stop  offset="1" style="stop-color:#000000"/>
		</linearGradient>
		<path fill="url(#SVGID_4_)" d="M27.6,19.4c0.9-2.1,2.6-4.8,5.7-4.8c3.1,0,4.6,2.8,5.3,4.9c0.4,0.3,0.8,0.7,1.3,1
			c-0.5-2.2-2.1-6.9-6.6-6.9c-4.6,0-6.5,4.7-7.2,6.9C26.6,20.2,27.1,19.8,27.6,19.4z"/>
	</g>
	<g>
		<path fill="#FFFFFF" d="M24.1,77.6c0,1-0.3,1.7-0.7,2.2s-1.2,0.7-2.3,0.7h-0.9c-0.8,0-1.3-0.3-1.8-0.8c-0.4-0.6-0.7-1.3-0.7-2.3
			c0-0.5,0-1,0.1-1.5c0.1-0.5,0.2-1,0.4-1.4h1c-0.3,0.7-0.4,1.7-0.4,2.9c0,0.7,0.1,1.2,0.4,1.6c0.3,0.4,0.7,0.6,1.2,0.6H21
			c0.7,0,1.2-0.2,1.6-0.5c0.3-0.3,0.5-0.8,0.5-1.5v-9.3h1v8.3h1.3c0,0,0.1,0,0.1,0v0.8c0,0,0,0.1-0.1,0.1H24.1z"/>
		<path fill="#FFFFFF" d="M25.3,77.6C25.2,77.6,25.2,77.6,25.3,77.6l-0.1-0.9c0,0,0,0,0.1,0h1.5v-4.6h1v2.3c0.4-0.9,0.9-1.6,1.4-2
			c0.6-0.5,1.2-0.7,1.9-0.7c0.9,0,1.6,0.2,2.1,0.7c0.5,0.5,0.7,1.3,0.7,2.3v2h1.6c0,0,0.1,0,0.1,0v0.8c0,0,0,0.1-0.1,0.1H25.3z
			 M32.9,76.7v-1.9c0-0.7-0.2-1.3-0.5-1.7c-0.3-0.4-0.8-0.5-1.5-0.5c-1.2,0-2.3,1-3.2,3.1v1H32.9z M30.8,70.6
			c-0.2,0-0.4-0.1-0.5-0.2s-0.2-0.3-0.2-0.5s0.1-0.4,0.2-0.5c0.1-0.1,0.3-0.2,0.5-0.2c0.2,0,0.4,0.1,0.5,0.2
			c0.1,0.1,0.2,0.3,0.2,0.5s-0.1,0.4-0.2,0.5C31.2,70.5,31.1,70.6,30.8,70.6z"/>
		<path fill="#FFFFFF" d="M35.4,77.6C35.4,77.6,35.4,77.6,35.4,77.6l-0.1-0.9c0,0,0,0,0.1,0h1.8c-0.2-0.2-0.4-0.5-0.5-0.8
			s-0.2-0.7-0.2-1c0-1,0.3-1.7,0.9-2.3c0.6-0.6,1.4-0.8,2.4-0.8h1.6v5.9H35.4z M40.6,76.7v-4H40c-0.7,0-1.3,0.2-1.7,0.6
			c-0.4,0.4-0.6,0.9-0.6,1.6c0,1.2,0.6,1.8,1.7,1.8H40.6z M39.3,70.6c-0.2,0-0.4-0.1-0.5-0.2s-0.2-0.3-0.2-0.5s0.1-0.4,0.2-0.5
			s0.3-0.2,0.5-0.2c0.2,0,0.4,0.1,0.5,0.2s0.2,0.3,0.2,0.5s-0.1,0.4-0.2,0.5S39.5,70.6,39.3,70.6z"/>
		<path fill="#FFFFFF" d="M43.2,68l0.6-0.1c-0.3-0.2-0.4-0.4-0.4-0.8c0-0.3,0.1-0.6,0.3-0.8c0.2-0.2,0.5-0.3,0.9-0.3
			c0.3,0,0.6,0.1,0.8,0.2l-0.2,0.5c-0.2-0.1-0.4-0.1-0.6-0.1c-0.2,0-0.3,0.1-0.5,0.2s-0.2,0.3-0.2,0.5c0,0.1,0,0.3,0.1,0.4
			s0.2,0.2,0.3,0.2c0.1,0,0.3-0.1,0.6-0.1c0.3,0,0.5-0.1,0.6-0.1v0.6c-0.1,0-0.2,0-0.4,0c-0.2,0-0.6,0.1-1.2,0.2l-0.7,0.1V68z
			 M43.8,69.1h1.1v8.5h-1.1V69.1z"/>
	</g>
	<g>
		<path fill="#FFFFFF" d="M14.6,94.3c-0.6,0-1.2-0.1-1.7-0.4c-0.5-0.3-0.8-0.7-1.1-1.2c-0.3-0.5-0.4-1.1-0.4-1.7
			c0-0.4,0.1-0.9,0.2-1.3c0.1-0.5,0.3-0.9,0.4-1.2h1.5c-0.1,0.4-0.2,0.9-0.3,1.3c-0.1,0.5-0.1,0.9-0.1,1.3c0,0.6,0.1,1,0.4,1.4
			c0.3,0.3,0.7,0.5,1.1,0.5h0.3c0.6,0,1-0.2,1.3-0.5c0.3-0.3,0.4-0.8,0.4-1.4v-5.3h1.7v2c0.7-1.4,1.8-2.2,3.2-2.2
			c1,0,1.7,0.3,2.2,0.8c0.5,0.5,0.7,1.3,0.7,2.3v2.8h-6.1c-0.1,0.9-0.4,1.6-1,2.1s-1.4,0.7-2.5,0.7H14.6z M22.9,90.1v-1.4
			c0-0.6-0.1-1-0.4-1.2s-0.7-0.4-1.2-0.4c-1.1,0-2,0.7-2.7,2.2v0.9H22.9z M21.2,84.8c-0.2,0-0.4-0.1-0.6-0.2
			c-0.1-0.1-0.2-0.4-0.2-0.6c0-0.3,0.1-0.5,0.2-0.6c0.1-0.1,0.3-0.2,0.6-0.2c0.2,0,0.4,0.1,0.6,0.2c0.1,0.1,0.2,0.4,0.2,0.6
			c0,0.3-0.1,0.5-0.2,0.6C21.6,84.7,21.5,84.8,21.2,84.8z"/>
		<path fill="#FFFFFF" d="M28.7,94.3c-0.5,0-1,0-1.4-0.1c-0.4-0.1-0.8-0.2-1.1-0.4l0.7-1.3c0.3,0.2,0.6,0.3,0.9,0.3
			c0.3,0.1,0.6,0.1,0.9,0.1c0.4,0,0.8-0.1,1-0.4c0.2-0.2,0.4-0.6,0.4-1v-0.1h-1.2c-0.8,0-1.5-0.2-1.9-0.7c-0.4-0.5-0.7-1.1-0.7-2
			c0-0.6,0.2-1.2,0.5-1.6c0.3-0.5,0.7-0.8,1.3-1.1c0.6-0.2,1.2-0.4,1.9-0.4h1.8v5.8c0,0.9-0.3,1.6-0.8,2
			C30.5,94.1,29.7,94.3,28.7,94.3z M30.1,90.1v-3h-0.4c-0.5,0-0.9,0.1-1.2,0.4c-0.3,0.3-0.4,0.7-0.4,1.2c0,0.5,0.1,0.8,0.3,1
			c0.2,0.2,0.5,0.3,0.9,0.3H30.1z"/>
		<path fill="#FFFFFF" d="M38.4,90.1C38.5,90.1,38.5,90.2,38.4,90.1l0.1,1.3c0,0,0,0.1-0.1,0.1h-1.5v0.2c0,0.8-0.2,1.4-0.7,1.9
			s-1,0.7-1.8,0.7c-0.4,0-0.8,0-1.1-0.1s-0.7-0.3-1.1-0.5l0.7-1.1c0.2,0.1,0.4,0.2,0.5,0.3c0.2,0,0.3,0.1,0.6,0.1
			c0.3,0,0.6-0.1,0.8-0.4c0.2-0.2,0.3-0.5,0.3-0.9v-5.9h1.7v4.4H38.4z"/>
		<path fill="#FFFFFF" d="M45.5,90.1C45.5,90.1,45.5,90.2,45.5,90.1l0.1,1.3c0,0,0,0.1-0.1,0.1H44c-0.4,0-0.7-0.1-1.1-0.2
			c-0.4-0.1-0.7-0.3-1-0.5c-0.7,0.4-1.4,0.7-2.2,0.7h-1.3c0,0-0.1,0-0.1-0.1v-1.3c0,0,0,0,0.1,0h1.2c0.2,0,0.4,0,0.6-0.1
			c0.2,0,0.4-0.1,0.5-0.2c-0.2-0.2-0.5-0.5-0.7-0.8c-0.3-0.4-0.5-0.8-0.7-1.3c-0.2-0.5-0.3-0.9-0.4-1.3c0.5-0.4,1-0.7,1.6-0.9
			c0.6-0.2,1.2-0.3,1.7-0.3c1.1,0,2.1,0.2,2.9,0.7c0,0.8-0.2,1.6-0.5,2.3c-0.3,0.7-0.8,1.2-1.4,1.6c0.3,0.2,0.6,0.2,1.1,0.2H45.5z
			 M41.9,89.2c0.9-0.5,1.4-1.3,1.5-2.3c-0.3-0.1-0.8-0.2-1.3-0.2c-0.2,0-0.5,0-0.8,0.1c-0.3,0.1-0.5,0.2-0.7,0.3
			c0.1,0.4,0.3,0.8,0.5,1.2C41.3,88.7,41.6,89,41.9,89.2z"/>
		<path fill="#FFFFFF" d="M45.4,91.5C45.3,91.5,45.3,91.5,45.4,91.5l-0.1-1.4c0,0,0,0,0.1,0h1.5v-7.5h1.7v8.9H45.4z"/>
		<path fill="#FFFFFF" d="M50.9,82.7h1.7v8.9h-1.7V82.7z"/>
	</g>
	<g>
		<path fill="#FFFFFF" d="M22.1,65.8c-0.8,0-1.4-0.2-1.8-0.6c-0.4-0.4-0.7-1-0.7-1.7c0-0.5,0.1-1,0.4-1.4c0.3-0.4,0.8-0.8,1.4-1.1
			c0.6-0.3,1.5-0.7,2.6-1c-0.1-0.3-0.2-0.6-0.2-1.1c-0.1-0.6-0.3-1.1-0.6-1.4c-0.3-0.3-0.7-0.5-1.1-0.5c-0.3,0-0.6,0.1-1,0.2
			c-0.4,0.1-0.7,0.3-1,0.4l-0.4-0.8c0.3-0.2,0.7-0.4,1.1-0.5c0.5-0.1,0.9-0.2,1.3-0.2c1.5,0,2.4,0.8,2.6,2.5
			c0.1,0.8,0.2,1.3,0.4,1.6c0.1,0.3,0.3,0.5,0.5,0.6c0.2,0.1,0.4,0.2,0.7,0.2h0.1c0,0,0.1,0,0.1,0v0.8c0,0,0,0.1-0.1,0.1h-0.1
			c-0.4,0-0.8-0.1-1.1-0.3c-0.3-0.2-0.6-0.5-0.8-0.9c-0.9,0.3-1.7,0.5-2.2,0.8s-0.9,0.5-1.1,0.8s-0.4,0.6-0.4,1
			c0,0.5,0.1,0.9,0.4,1.1c0.3,0.2,0.7,0.4,1.4,0.4c0.4,0,1-0.1,1.7-0.2l0.1,0.8c-0.6,0.1-1,0.2-1.3,0.2S22.4,65.8,22.1,65.8z"/>
		<path fill="#FFFFFF" d="M26.3,62C26.2,62,26.2,62,26.3,62l-0.1-0.9c0,0,0,0,0.1,0h1.8c-0.2-0.2-0.4-0.5-0.5-0.8s-0.2-0.6-0.2-1
			c0-0.9,0.3-1.7,0.9-2.2s1.4-0.8,2.4-0.8h1.5v4.8h1.2c0,0,0,0,0.1,0l0,0V62c0,0,0,0-0.1,0H26.3z M31.2,61.1v-3.9h-0.5
			c-0.7,0-1.2,0.2-1.6,0.6c-0.4,0.4-0.6,0.9-0.6,1.5c0,1.2,0.5,1.8,1.6,1.8H31.2z M30.1,55.2c-0.2,0-0.4-0.1-0.5-0.2
			c-0.1-0.1-0.2-0.3-0.2-0.5s0.1-0.4,0.2-0.5c0.1-0.1,0.3-0.2,0.5-0.2c0.2,0,0.4,0.1,0.5,0.2s0.2,0.3,0.2,0.5s-0.1,0.4-0.2,0.5
			C30.4,55.1,30.3,55.2,30.1,55.2z"/>
		<path fill="#FFFFFF" d="M33.3,62C33.3,62,33.3,62,33.3,62l-0.1-0.9c0,0,0,0,0.1,0h1.4v-4.4h1v2.2c0.4-0.9,0.8-1.5,1.4-2
			s1.2-0.7,1.9-0.7c0.9,0,1.6,0.2,2,0.7c0.5,0.5,0.7,1.2,0.7,2.3v1.9h1.6c0,0,0.1,0,0.1,0v0.8c0,0,0,0.1-0.1,0.1H33.3z M40.7,61.1
			v-1.9c0-0.7-0.2-1.3-0.5-1.6s-0.8-0.5-1.4-0.5c-1.2,0-2.2,1-3,3v1H40.7z"/>
		<path fill="#FFFFFF" d="M43.2,62C43.1,62,43.1,62,43.2,62l-0.1-0.9c0,0,0,0,0.1,0h2.3v-4.8h1V62H43.2z M44.9,55.2
			c-0.2,0-0.3-0.1-0.5-0.2c-0.1-0.1-0.2-0.3-0.2-0.5s0.1-0.4,0.2-0.5c0.1-0.1,0.3-0.2,0.5-0.2c0.2,0,0.4,0.1,0.5,0.2
			c0.1,0.1,0.2,0.3,0.2,0.5c0,0.2-0.1,0.4-0.2,0.5S45.1,55.2,44.9,55.2z M46.9,55.2c-0.2,0-0.4-0.1-0.5-0.2
			c-0.1-0.1-0.2-0.3-0.2-0.5s0.1-0.4,0.2-0.5c0.1-0.1,0.3-0.2,0.5-0.2c0.2,0,0.4,0.1,0.5,0.2s0.2,0.3,0.2,0.5s-0.1,0.4-0.2,0.5
			C47.3,55.1,47.1,55.2,46.9,55.2z"/>
	</g>
</g>
</svg>
