<?xml version="1.0" encoding="utf-8"?>
<!-- Generator: Adobe Illustrator 15.0.0, SVG Export Plug-In . SVG Version: 6.00 Build 0)  -->
<!DOCTYPE svg PUBLIC "-//W3C//DTD SVG 1.1//EN" "http://www.w3.org/Graphics/SVG/1.1/DTD/svg11.dtd">
<svg version="1.1" id="Layer_1" xmlns="http://www.w3.org/2000/svg" xmlns:xlink="http://www.w3.org/1999/xlink" x="0px" y="0px"
	 width="595.279px" height="802.445px" viewBox="0 0 595.279 802.445" enable-background="new 0 0 595.279 802.445"
	 xml:space="preserve">
<path fill="#E6183C" stroke="#FFFFFF" stroke-width="4" stroke-miterlimit="10" d="M467.396,802.445H127.074
	c-53.479,0-97.234-41.299-97.234-91.774V463.643c0-13.001,0-26.768,0-39.771c0-16.06-1.62-32.121,3.241-47.417
	c3.24-9.942,10.533-19.12,17.017-27.532c13.773-18.355,28.359-34.416,43.756-50.477c35.651-36.71,74.546-71.126,115.061-104.012
	c21.878-17.59,45.376-38.239,72.116-49.711c4.861-2.295,11.344-5.354,16.205-5.354c4.862,0,11.344,3.059,16.206,5.354
	c10.533,3.824,19.447,11.472,28.36,17.59c16.205,11.472,30.791,22.944,46.187,35.18c37.272,30.592,73.736,62.713,107.769,97.129
	c15.396,15.296,29.98,30.592,42.944,47.417c11.346,14.532,23.499,29.827,25.931,47.417c1.619,15.296,0,32.122,0,47.417
	c0,9.178,0,19.119,0,28.296v244.734C564.631,761.146,520.874,802.445,467.396,802.445z"/>
<linearGradient id="SVGID_1_" gradientUnits="userSpaceOnUse" x1="27.8191" y1="27.5635" x2="38.8191" y2="27.5635">
	<stop  offset="0" style="stop-color:#525252"/>
	<stop  offset="0.4301" style="stop-color:#B0B0B0"/>
	<stop  offset="1" style="stop-color:#000000"/>
</linearGradient>
<circle fill="#FFFFFF" stroke="url(#SVGID_1_)" stroke-width="12" stroke-miterlimit="10" cx="297.235" cy="223.64" r="40.514"/>
<rect x="130.316" y="357.852" fill="#FFFFFF" stroke="#FFFFFF" stroke-width="3" stroke-miterlimit="10" width="338.7" height="8.104"/>
<linearGradient id="SVGID_2_" gradientUnits="userSpaceOnUse" x1="0.2795" y1="0" x2="1.2795" y2="0">
	<stop  offset="0" style="stop-color:#363636"/>
	<stop  offset="0.2226" style="stop-color:#000000"/>
	<stop  offset="0.4301" style="stop-color:#595959"/>
	<stop  offset="1" style="stop-color:#DBDBDB"/>
</linearGradient>
<path fill="none" stroke="url(#SVGID_2_)" stroke-width="7" stroke-linecap="round" stroke-linejoin="round" stroke-miterlimit="10" d="
	M327.216,217.968c0,0-11.345-136.128,40.515-206.624"/>
<linearGradient id="SVGID_3_" gradientUnits="userSpaceOnUse" x1="0.2795" y1="0" x2="1.2795" y2="0">
	<stop  offset="0" style="stop-color:#363636"/>
	<stop  offset="0.2226" style="stop-color:#000000"/>
	<stop  offset="0.4301" style="stop-color:#595959"/>
	<stop  offset="1" style="stop-color:#DBDBDB"/>
</linearGradient>
<path fill="none" stroke="url(#SVGID_3_)" stroke-width="7" stroke-linecap="round" stroke-linejoin="round" stroke-miterlimit="10" d="
	M269.685,217.968c0,0,11.345-136.128-40.515-206.624"/>
<g enable-background="new    ">
	<path fill="#FFFFFF" d="M116.832,413.711h33.328v6.703h-25.34v20.565h23.412v6.61H124.82v28.003h-7.988V413.711z"/>
</g>
<g enable-background="new    ">
	<path fill="#FFFFFF" d="M169.533,413.711v61.882h-7.988v-61.882H169.533z"/>
</g>
<g enable-background="new    ">
	<path fill="#FFFFFF" d="M183.489,475.593v-61.882h8.722l19.832,31.309c4.591,7.253,8.171,13.771,11.109,20.106l0.184-0.092
		c-0.734-8.263-0.918-15.791-0.918-25.432v-25.892h7.528v61.882h-8.08l-19.647-31.399c-4.315-6.887-8.447-13.956-11.568-20.658
		l-0.275,0.092c0.459,7.804,0.643,15.241,0.643,25.524v26.441H183.489z"/>
</g>
<g enable-background="new    ">
	<path fill="#FFFFFF" d="M243.902,414.538c4.866-0.735,10.65-1.286,16.985-1.286c11.477,0,19.648,2.663,25.065,7.713
		c5.509,5.05,8.722,12.211,8.722,22.218c0,10.1-3.122,18.363-8.906,24.056c-5.784,5.784-15.333,8.905-27.36,8.905
		c-5.692,0-10.466-0.275-14.506-0.734V414.538z M251.889,469.258c2.02,0.367,4.958,0.459,8.08,0.459
		c17.077,0,26.35-9.549,26.35-26.258c0.092-14.599-8.171-23.872-25.065-23.872c-4.131,0-7.253,0.368-9.365,0.827V469.258z"/>
</g>
<g enable-background="new    ">
	<path fill="#FFFFFF" d="M377.397,444.01c0,21.3-12.945,32.593-28.736,32.593c-16.344,0-27.82-12.67-27.82-31.399
		c0-19.648,12.211-32.502,28.738-32.502C366.471,412.701,377.397,425.647,377.397,444.01z M329.38,445.02
		c0,13.221,7.161,25.064,19.74,25.064c12.67,0,19.831-11.66,19.831-25.707c0-12.303-6.427-25.157-19.739-25.157
		C335.99,419.22,329.38,431.431,329.38,445.02z"/>
</g>
<g enable-background="new    ">
	<path fill="#FFFFFF" d="M395.76,413.711v36.634c0,13.863,6.151,19.739,14.414,19.739c9.182,0,15.058-6.06,15.058-19.739v-36.634
		h8.079v36.083c0,19.005-10.008,26.809-23.412,26.809c-12.67,0-22.219-7.253-22.219-26.441v-36.45H395.76z"/>
</g>
<g enable-background="new    ">
	<path fill="#FFFFFF" d="M458.927,420.506h-18.821v-6.795h45.814v6.795h-18.914v55.087h-8.079V420.506z"/>
</g>
<g enable-background="new    ">
	<path fill="#FFFFFF" d="M184.132,522.617c4.695-0.989,12.109-1.73,19.647-1.73c10.75,0,17.67,1.854,22.859,6.055
		c4.325,3.213,6.92,8.155,6.92,14.705c0,8.031-5.313,15.074-14.086,18.287v0.247c7.908,1.978,17.175,8.526,17.175,20.883
		c0,7.167-2.842,12.604-7.043,16.682c-5.808,5.313-15.199,7.784-28.791,7.784c-7.414,0-13.098-0.494-16.681-0.988V522.617z
		 M194.882,556.721h9.762c11.368,0,18.041-5.931,18.041-13.963c0-9.762-7.414-13.592-18.288-13.592c-4.943,0-7.785,0.37-9.515,0.741
		V556.721z M194.882,596.633c2.101,0.371,5.19,0.494,9.021,0.494c11.121,0,21.377-4.077,21.377-16.188
		c0-11.367-9.762-16.063-21.5-16.063h-8.897V596.633z"/>
</g>
<g enable-background="new    ">
	<path fill="#FFFFFF" d="M294.228,565.741h-32.375v30.026h36.081v9.021h-46.831v-83.283h44.978v9.021h-34.228v26.319h32.375V565.741
		z"/>
</g>
<g enable-background="new    ">
	<path fill="#FFFFFF" d="M310.415,591.69c4.818,2.965,11.861,5.437,19.275,5.437c10.998,0,17.424-5.808,17.424-14.21
		c0-7.785-4.449-12.233-15.693-16.558c-13.592-4.819-21.994-11.862-21.994-23.602c0-12.974,10.75-22.612,26.937-22.612
		c8.526,0,14.704,1.978,18.411,4.078l-2.965,8.772c-2.719-1.482-8.279-3.954-15.816-3.954c-11.369,0-15.693,6.797-15.693,12.48
		c0,7.784,5.066,11.615,16.558,16.063c14.087,5.437,21.253,12.233,21.253,24.466c0,12.852-9.514,23.972-29.161,23.972
		c-8.032,0-16.805-2.348-21.253-5.313L310.415,591.69z"/>
</g>
<g enable-background="new    ">
	<path fill="#FFFFFF" d="M388.632,530.648h-25.331v-9.144h61.659v9.144h-25.455v74.14h-10.873V530.648z"/>
</g>
<g enable-background="new    ">
	<path fill="#FFFFFF" d="M174.708,688.531c0,26.958-16.345,43.303-40.375,43.303c-24.396,0-38.667-18.419-38.667-41.839
		c0-24.64,15.735-43.059,40.009-43.059C160.924,646.937,174.708,665.844,174.708,688.531z M115.304,689.629
		c0,16.102,7.563,27.445,20.004,27.445c12.564,0,19.761-11.953,19.761-27.933c0-14.76-7.075-27.445-19.882-27.445
		C122.623,661.696,115.304,673.65,115.304,689.629z"/>
</g>
<g enable-background="new    ">
	<path fill="#FFFFFF" d="M186.902,648.278h50.255v15.247h-31.592v18.785h29.519v15.125h-29.519v33.057h-18.663V648.278z"/>
</g>
<g enable-background="new    ">
	<path fill="#FFFFFF" d="M251.181,648.278h50.255v15.247h-31.593v18.785h29.519v15.125h-29.519v33.057h-18.663V648.278z"/>
</g>
<g enable-background="new    ">
	<path fill="#FFFFFF" d="M364.373,695.729h-30.251v19.517h33.789v15.247H315.46v-82.214h50.743v15.247h-32.081v17.077h30.251
		V695.729z"/>
</g>
<g enable-background="new    ">
	<path fill="#FFFFFF" d="M380.593,649.376c5.977-0.976,14.882-1.707,24.762-1.707c12.198,0,20.736,1.829,26.592,6.465
		c4.879,3.903,7.563,9.636,7.563,17.198c0,10.49-7.441,17.688-14.516,20.249v0.366c5.733,2.317,8.904,7.807,10.979,15.369
		c2.562,9.271,5.123,20.004,6.709,23.176h-19.029c-1.342-2.317-3.293-9.026-5.732-19.15c-2.195-10.246-5.733-13.052-13.296-13.174
		h-5.611v32.324h-18.419V649.376z M399.011,684.75h7.319c9.27,0,14.759-4.635,14.759-11.832c0-7.563-5.123-11.344-13.661-11.466
		c-4.514,0-7.075,0.366-8.417,0.61V684.75z"/>
</g>
<g enable-background="new    ">
	<path fill="#FFFFFF" d="M453.532,711.342c5.002,2.562,12.686,5.123,20.615,5.123c8.538,0,13.051-3.537,13.051-8.904
		c0-5.123-3.902-8.051-13.783-11.588c-13.662-4.758-22.566-12.32-22.566-24.274c0-14.027,11.711-24.762,31.105-24.762
		c9.27,0,16.101,1.952,20.98,4.147l-4.148,15.004c-3.293-1.586-9.148-3.904-17.198-3.904c-8.051,0-11.954,3.66-11.954,7.929
		c0,5.245,4.635,7.563,15.247,11.589c14.516,5.366,21.347,12.93,21.347,24.518c0,13.783-10.612,25.493-33.178,25.493
		c-9.393,0-18.664-2.439-23.299-5.001L453.532,711.342z"/>
</g>
<linearGradient id="SVGID_4_" gradientUnits="userSpaceOnUse" x1="0.2795" y1="0" x2="1.2795" y2="0">
	<stop  offset="0" style="stop-color:#363636"/>
	<stop  offset="0.2226" style="stop-color:#000000"/>
	<stop  offset="0.4301" style="stop-color:#595959"/>
	<stop  offset="1" style="stop-color:#DBDBDB"/>
</linearGradient>
<path fill="none" stroke="url(#SVGID_4_)" stroke-width="7" stroke-linecap="round" stroke-linejoin="round" stroke-miterlimit="10" d="
	M228.163,11.344c51.858,70.495,40.516,206.624,40.516,206.624"/>
<linearGradient id="SVGID_5_" gradientUnits="userSpaceOnUse" x1="28.408" y1="11.7041" x2="42.2238" y2="11.7041" gradientTransform="matrix(8.1029 0 0 8.1029 11.1348 48.9889)">
	<stop  offset="0" style="stop-color:#0F0F0F"/>
	<stop  offset="0.4545" style="stop-color:#9C9C9C"/>
	<stop  offset="0.8061" style="stop-color:#424242"/>
	<stop  offset="1" style="stop-color:#000000"/>
</linearGradient>
<path fill="url(#SVGID_5_)" d="M253.48,162.868c7.292-17.016,21.066-38.894,46.187-38.894c25.118,0,37.272,22.688,42.944,39.704
	c3.241,2.431,6.482,5.672,10.534,8.104c-4.052-17.826-17.017-55.91-53.479-55.91c-37.272,0-52.669,38.084-58.341,55.91
	C245.376,168.54,249.428,166.109,253.48,162.868z"/>
</svg>
