<?xml version="1.0" encoding="utf-8"?>
<!-- Generator: Adobe Illustrator 15.0.0, SVG Export Plug-In . SVG Version: 6.00 Build 0)  -->
<!DOCTYPE svg PUBLIC "-//W3C//DTD SVG 1.1//EN" "http://www.w3.org/Graphics/SVG/1.1/DTD/svg11.dtd">
<svg version="1.1"
	 id="svg2" xmlns:cc="http://creativecommons.org/ns#" xmlns:dc="http://purl.org/dc/elements/1.1/" xmlns:inkscape="http://www.inkscape.org/namespaces/inkscape" xmlns:rdf="http://www.w3.org/1999/02/22-rdf-syntax-ns#" xmlns:sodipodi="http://sodipodi.sourceforge.net/DTD/sodipodi-0.dtd" xmlns:svg="http://www.w3.org/2000/svg"
	 xmlns="http://www.w3.org/2000/svg" xmlns:xlink="http://www.w3.org/1999/xlink" x="0px" y="0px" width="35px" height="35px"
	 viewBox="-1.5 -1.5 35 35" enable-background="new -1.5 -1.5 35 35" xml:space="preserve">
<script  id="script3301" xlink:href=""></script>
<script  id="script3299" xlink:href=""></script>
<g id="g3123" transform="matrix(0.64050449,0,0,0.64031522,0,25.600003)">
	<path id="path3125" fill="#FFFFFF" d="M0,5.43v-40.846c0-2.517,2.044-4.565,4.563-4.565h40.836c2.516,0,4.562,2.047,4.562,4.565
		V5.43c0,2.52-2.046,4.565-4.562,4.565H4.563C2.044,9.995,0,7.95,0,5.43z M48.399,5.43v-40.846c0-1.653-1.348-3.003-3.001-3.003
		H4.563c-1.654,0-3.001,1.35-3.001,3.003V5.43c0,1.655,1.347,3.003,3.001,3.003h40.836C47.052,8.433,48.399,7.085,48.399,5.43z"/>
	<path id="path3127" fill="#FFFFFF" d="M6.625-1.3C5.924-1.739,6.309-2.836,7.132-2.737C7.7-2.671,8.283-2.639,8.87-2.639
		c2.565,0,4.975-0.641,7.073-1.765l0.348-0.203l-0.539-0.139c-2.488-0.853-4.451-2.811-5.258-5.285
		c-0.14-0.426,0.101-0.845,0.479-0.979l0.351-0.026l-0.618-0.438c-1.801-1.516-2.943-3.76-2.943-6.276v-0.096
		c0-0.589,0.631-0.966,1.151-0.686l0.504,0.227c-1.008-1.376-1.595-3.043-1.595-4.844c0-1.516,0.417-2.947,1.151-4.17
		c0.277-0.458,0.925-0.508,1.268-0.098c3.193,3.826,7.771,6.508,12.987,7.322l1.305,0.133l-0.047-0.833
		c0-4.586,3.807-8.278,8.457-8.278c1.819,0,3.508,0.567,4.893,1.524l0.912,0.779l0.878-0.208c1.208-0.339,2.348-0.824,3.405-1.434
		c0.617-0.358,1.352,0.239,1.133,0.918c-0.302,0.923-0.704,1.823-1.256,2.622l-0.424,0.502l2.057-0.077
		c0.639-0.025,1.035,0.694,0.672,1.222c-0.875,1.27-1.955,1.737-3.049,2.318l-0.746,0.448l0.014,0.535
		c0,10.26-7.998,22.109-22.624,22.109C14.321,2.188,10.14,0.902,6.625-1.3z M39.87-19.921c0-0.308-0.008-0.621-0.024-0.929
		c-0.015-0.268,0.11-0.525,0.331-0.679c0.842-0.594,1.554-0.911,2.192-1.258l-1.988,0.059c-0.807,0.031-1.121-1.045-0.422-1.454
		c0.677-0.397,1.223-0.933,1.665-1.574l0.189-0.333l-0.454,0.191c-0.857,0.321-1.746,0.573-2.664,0.748
		c-0.258,0.05-0.526-0.036-0.709-0.226c-1.259-1.309-3.049-2.132-5.042-2.132c-3.824,0-6.896,3.028-6.896,6.717
		c0,0.525,0.061,1.039,0.178,1.533c0.119,0.503-0.281,0.983-0.799,0.958c-5.777-0.284-10.985-2.683-14.824-6.427l-0.757-0.817
		l-0.221,0.625c-0.158,0.564-0.242,1.16-0.242,1.772c0,2.32,1.21,4.377,3.062,5.59c0.658,0.429,0.331,1.46-0.454,1.433
		c-0.691-0.023-1.362-0.127-2.003-0.302l-0.562-0.162c0.497,2.725,2.651,4.878,5.424,5.423c0.808,0.159,0.845,1.31,0.048,1.521
		c-0.71,0.188-1.455,0.287-2.221,0.287l-0.19-0.015l0.435,0.703c1.224,1.676,3.222,2.783,5.496,2.826
		c0.736,0.012,1.044,0.955,0.46,1.4c-2.074,1.585-4.546,2.686-7.244,3.139l-1.342,0.168l1.089,0.445
		c2.306,0.851,4.808,1.318,7.425,1.318C32.424,0.625,39.87-10.37,39.87-19.921z"/>
</g>
</svg>
