<?xml version="1.0" encoding="utf-8"?>
<!-- Generator: Adobe Illustrator 15.0.0, SVG Export Plug-In . SVG Version: 6.00 Build 0)  -->
<!DOCTYPE svg PUBLIC "-//W3C//DTD SVG 1.1//EN" "http://www.w3.org/Graphics/SVG/1.1/DTD/svg11.dtd">
<svg version="1.1"
	 id="svg2" xmlns:cc="http://creativecommons.org/ns#" xmlns:dc="http://purl.org/dc/elements/1.1/" xmlns:inkscape="http://www.inkscape.org/namespaces/inkscape" xmlns:rdf="http://www.w3.org/1999/02/22-rdf-syntax-ns#" xmlns:sodipodi="http://sodipodi.sourceforge.net/DTD/sodipodi-0.dtd" xmlns:svg="http://www.w3.org/2000/svg"
	 xmlns="http://www.w3.org/2000/svg" xmlns:xlink="http://www.w3.org/1999/xlink" x="0px" y="0px" width="35px" height="35px"
	 viewBox="-1.5 -1.5 35 35" enable-background="new -1.5 -1.5 35 35" xml:space="preserve">
<script  id="script3301" xlink:href=""></script>
<script  id="script3299" xlink:href=""></script>
<g id="g3459" transform="matrix(0.64050449,0,0,0.64031522,0,25.600003)">
	<path id="path3461" fill="#FFFFFF" d="M34.528-0.184c0-13.446-10.918-24.384-24.336-24.384c-0.452,0-0.816-0.365-0.816-0.816
		v-5.973c0-0.45,0.364-0.814,0.816-0.814c17.628,0,31.963,14.349,31.963,31.987c0,0.451-0.363,0.814-0.814,0.814h-5.997
		C34.892,0.631,34.528,0.268,34.528-0.184z M23.938-0.19c0-3.691-1.434-7.154-4.032-9.758c-2.597-2.599-6.047-4.028-9.725-4.028
		c-0.451,0-0.816-0.365-0.816-0.816v-5.975c0-0.45,0.364-0.814,0.816-0.814c11.793,0,21.38,9.595,21.38,21.391
		c0,0.451-0.363,0.814-0.814,0.814h-5.992C24.303,0.625,23.938,0.262,23.938-0.19z M11.005-30.499l-0.002,4.342l1.838,0.094
		c12.207,1.245,21.938,10.996,23.18,23.222l0.095,1.842h4.367l-0.116-2.283c-1.455-14.268-12.823-25.647-27.081-27.101
		L11.005-30.499z M10.995-19.908l-0.002,4.344l0.716,0.034c3.533,0.345,6.809,1.89,9.349,4.432c2.542,2.545,4.088,5.834,4.436,9.375
		l0.034,0.72h4.363l-0.063-1.202c-0.945-9.287-8.347-16.695-17.631-17.64L10.995-19.908z"/>
	<path id="path3463" fill="#FFFFFF" d="M9.368-4.056c0-2.597,2.119-4.69,4.719-4.69c2.602,0,4.717,2.096,4.717,4.69
		c0,2.597-2.115,4.694-4.717,4.694C11.488,0.638,9.368-1.459,9.368-4.056z M17.173-4.056c0-1.685-1.374-3.059-3.087-3.059
		c-1.711,0-3.089,1.377-3.089,3.059c0,1.687,1.38,3.064,3.089,3.064C15.799-0.992,17.173-2.369,17.173-4.056z"/>
	<path id="path3465" fill="#FFFFFF" d="M0,5.43v-40.846c0-2.517,2.044-4.565,4.563-4.565h40.836c2.516,0,4.562,2.047,4.562,4.565
		V5.43c0,2.52-2.046,4.565-4.562,4.565H4.563C2.044,9.995,0,7.95,0,5.43z M48.399,5.43v-40.846c0-1.653-1.348-3.003-3.001-3.003
		H4.563c-1.654,0-3.001,1.35-3.001,3.003V5.43c0,1.655,1.347,3.003,3.001,3.003h40.836C47.052,8.433,48.399,7.085,48.399,5.43z"/>
</g>
</svg>
