<?xml version="1.0" encoding="utf-8"?>
<!-- Generator: Adobe Illustrator 15.0.0, SVG Export Plug-In . SVG Version: 6.00 Build 0)  -->
<!DOCTYPE svg PUBLIC "-//W3C//DTD SVG 1.1//EN" "http://www.w3.org/Graphics/SVG/1.1/DTD/svg11.dtd">
<svg version="1.1"
	 id="svg2" xmlns:cc="http://creativecommons.org/ns#" xmlns:dc="http://purl.org/dc/elements/1.1/" xmlns:inkscape="http://www.inkscape.org/namespaces/inkscape" xmlns:rdf="http://www.w3.org/1999/02/22-rdf-syntax-ns#" xmlns:sodipodi="http://sodipodi.sourceforge.net/DTD/sodipodi-0.dtd" xmlns:svg="http://www.w3.org/2000/svg"
	 xmlns="http://www.w3.org/2000/svg" xmlns:xlink="http://www.w3.org/1999/xlink" x="0px" y="0px" width="35px" height="35px"
	 viewBox="-1.5 -1.5 35 35" enable-background="new -1.5 -1.5 35 35" xml:space="preserve">
<script  id="script3301" xlink:href=""></script>
<script  id="script3299" xlink:href=""></script>
<g id="g3174" transform="matrix(0.64050449,0,0,0.64031522,0,25.600003)">
	<path id="path3176" fill="#FFFFFF" d="M23.266,8.979v-19.384h-3.514c-0.431,0-0.781-0.351-0.781-0.781v-5.805
		c0-0.515,0.39-0.771,0.781-0.773l3.516-0.002v-3.124c0-1.647,0.019-4.609,1.561-6.498c1.557-1.924,3.713-3.215,7.274-3.215
		c5.489,0,7.852,0.733,7.937,0.76c0.374,0.119,0.602,0.498,0.534,0.883l-1.073,5.944c-0.084,0.45-0.531,0.735-0.973,0.616
		c0.006,0-1.702-0.458-3.26-0.458c-0.948,0-2.391,0.204-2.391,1.338v3.749h6.073c0.456,0,0.814,0.391,0.776,0.845l-0.474,5.805
		c-0.034,0.406-0.37,0.717-0.776,0.717h-5.599V8.979c0,0.43-0.351,0.781-0.781,0.781h-8.051C23.616,9.76,23.266,9.409,23.266,8.979z
		 M31.317,8.198v-19.384c0-0.43,0.351-0.781,0.781-0.781h5.66l0.348-4.243h-6.007c-0.43,0-0.781-0.35-0.781-0.781v-4.53
		c0-1.09,0.552-1.864,1.351-2.322c0.753-0.429,1.698-0.577,2.601-0.577c0.89,0,1.805,0.129,2.497,0.256l0.34,0.066l0.797-4.413
		l-0.25-0.047c-1.093-0.204-3.208-0.483-6.55-0.483c-3.089,0-4.8,1.077-6.065,2.638c-1.13,1.385-1.209,3.734-1.209,5.513v3.905
		c0,0.431-0.351,0.781-0.781,0.781h-3.516v4.237h3.514c0.429,0,0.781,0.351,0.781,0.781V8.198H31.317z"/>
	<path id="path3178" fill="#FFFFFF" d="M0,5.43v-40.846c0-2.517,2.044-4.565,4.563-4.565h40.836c2.516,0,4.562,2.047,4.562,4.565
		V5.43c0,2.52-2.046,4.565-4.562,4.565H4.563C2.044,9.995,0,7.95,0,5.43z M48.399,5.43v-40.846c0-1.653-1.348-3.003-3.001-3.003
		H4.563c-1.654,0-3.001,1.35-3.001,3.003V5.43c0,1.655,1.347,3.003,3.001,3.003h40.836C47.052,8.433,48.399,7.085,48.399,5.43z"/>
</g>
</svg>
