<?xml version="1.0" encoding="utf-8"?>
<!-- Generator: Adobe Illustrator 15.0.0, SVG Export Plug-In . SVG Version: 6.00 Build 0)  -->
<!DOCTYPE svg PUBLIC "-//W3C//DTD SVG 1.1//EN" "http://www.w3.org/Graphics/SVG/1.1/DTD/svg11.dtd">
<svg version="1.1"
	 id="svg2" xmlns:cc="http://creativecommons.org/ns#" xmlns:dc="http://purl.org/dc/elements/1.1/" xmlns:inkscape="http://www.inkscape.org/namespaces/inkscape" xmlns:rdf="http://www.w3.org/1999/02/22-rdf-syntax-ns#" xmlns:sodipodi="http://sodipodi.sourceforge.net/DTD/sodipodi-0.dtd" xmlns:svg="http://www.w3.org/2000/svg"
	 xmlns="http://www.w3.org/2000/svg" xmlns:xlink="http://www.w3.org/1999/xlink" x="0px" y="0px" width="35px" height="35px"
	 viewBox="-1.5 -1.5 35 35" enable-background="new -1.5 -1.5 35 35" xml:space="preserve">
<script  id="script3301" xlink:href=""></script>
<script  id="script3299" xlink:href=""></script>
<g id="g3279" transform="matrix(0.64050449,0,0,0.64031522,0,25.600003)">
	<path id="path3281" fill="#FFFFFF" d="M9.301-1.697v-20.047c0-0.429,0.35-0.781,0.781-0.781h6.511c0.429,0,0.781,0.352,0.781,0.781
		v20.047c0,0.432-0.351,0.781-0.781,0.781h-6.511C9.65-0.916,9.301-1.265,9.301-1.697z M15.812-2.477v-18.485h-4.95v18.485H15.812z
		 M8.918-27.946c0-2.42,1.821-4.242,4.463-4.242c2.654,0,4.367,1.839,4.422,4.235c0,2.374-1.775,4.254-4.499,4.254
		C10.677-23.699,8.918-25.59,8.918-27.946z M16.241-27.935c-0.036-1.541-1.066-2.69-2.86-2.69c-1.821,0-2.901,1.164-2.901,2.68
		c0,1.492,1.061,2.685,2.847,2.685C15.185-25.261,16.241-26.462,16.241-27.935z"/>
	<path id="path3283" fill="#FFFFFF" d="M20.3-1.697c0-0.021,0.084-17.993,0-19.828c-0.021-0.445,0.335-0.818,0.781-0.818h6.651
		c0.43,0,0.781,0.352,0.781,0.781v0.658l0.352-0.313c1.099-0.889,2.645-1.593,4.862-1.593c4.852,0,8.438,3.247,8.438,9.722v11.394
		c0,0.43-0.352,0.781-0.781,0.781h-6.654c-0.43,0-0.781-0.351-0.781-0.781v-10.629c0-2.409-0.741-3.711-2.587-3.711
		c-1.415,0-2.285,0.929-2.688,1.932c-0.113,0.27-0.162,0.723-0.162,1.313v11.094c0,0.43-0.351,0.781-0.781,0.781H21.08
		C20.647-0.913,20.298-1.265,20.3-1.697z M26.95-2.474v-10.313c0-0.596,0.038-1.331,0.279-1.906c0.55-1.375,1.877-2.901,4.132-2.901
		c3.057,0,4.149,2.465,4.149,5.272v9.848h5.092v-10.613c0-5.713-2.973-8.16-6.876-8.16c-1.824,0-3.04,0.56-3.897,1.258l-0.738,0.721
		l-0.64,0.877c-0.119,0.295-0.399,0.491-0.755,0.491c-0.499,0-0.826-0.422-0.791-0.847l0.046-0.192v-1.841h-5.075l0.002,0.114
		c0.043,3.461,0.002,14.203-0.014,17.796l-0.002,0.397H26.95z"/>
	<path id="path3285" fill="#FFFFFF" d="M0,5.43v-40.846c0-2.517,2.044-4.565,4.563-4.565h40.836c2.516,0,4.562,2.047,4.562,4.565
		V5.43c0,2.52-2.046,4.565-4.562,4.565H4.563C2.044,9.995,0,7.95,0,5.43z M48.399,5.43v-40.846c0-1.653-1.348-3.003-3.001-3.003
		H4.563c-1.654,0-3.001,1.35-3.001,3.003V5.43c0,1.655,1.347,3.003,3.001,3.003h40.836C47.052,8.433,48.399,7.085,48.399,5.43z"/>
</g>
</svg>
