<?xml version="1.0" encoding="utf-8"?>
<!-- Generator: Adobe Illustrator 15.0.0, SVG Export Plug-In . SVG Version: 6.00 Build 0)  -->
<!DOCTYPE svg PUBLIC "-//W3C//DTD SVG 1.1//EN" "http://www.w3.org/Graphics/SVG/1.1/DTD/svg11.dtd">
<svg version="1.1"
	 id="svg2" xmlns:cc="http://creativecommons.org/ns#" xmlns:dc="http://purl.org/dc/elements/1.1/" xmlns:inkscape="http://www.inkscape.org/namespaces/inkscape" xmlns:rdf="http://www.w3.org/1999/02/22-rdf-syntax-ns#" xmlns:sodipodi="http://sodipodi.sourceforge.net/DTD/sodipodi-0.dtd" xmlns:svg="http://www.w3.org/2000/svg"
	 xmlns="http://www.w3.org/2000/svg" xmlns:xlink="http://www.w3.org/1999/xlink" x="0px" y="0px" width="35px" height="35px"
	 viewBox="-1.5 -1.5 35 35" enable-background="new -1.5 -1.5 35 35" xml:space="preserve">
<script  id="script3301" xlink:href=""></script>
<script  id="script3299" xlink:href=""></script>
<g id="g3163" transform="matrix(0.64050449,0,0,0.64031522,0,25.600003)">
	<path id="path3165" fill="#FFFFFF" d="M15.614-18.113v-6.248l-3.123-9.369v-0.002h1.285l2.568,7.809h0.146l2.423-7.809h1.384
		l-3.123,9.371v6.248H15.614z"/>
	<path id="path3167" fill="#FFFFFF" d="M21.143-18.901h0.002c-0.564-0.521-0.845-1.225-0.845-2.109l-0.002-5.394
		c0-0.807,0.291-1.444,0.87-1.927c0.575-0.477,1.355-0.716,2.334-0.716c0.893,0,1.621,0.254,2.188,0.758
		c0.569,0.502,0.852,1.151,0.852,1.943v5.377c0,0.89-0.277,1.589-0.834,2.093c-0.557,0.506-1.32,0.758-2.292,0.763h-0.025
		C22.456-18.118,21.707-18.378,21.143-18.901z M24.565-20.219c0.277-0.36,0.416-0.859,0.416-1.495v-3.843
		c0-0.564-0.141-1.029-0.426-1.387c-0.284-0.36-0.648-0.541-1.093-0.541c-0.489,0-0.881,0.171-1.168,0.512
		c-0.289,0.343-0.435,0.8-0.435,1.374l0.002,3.853c0,0.633,0.14,1.135,0.423,1.508h-0.002c0.283,0.373,0.658,0.56,1.124,0.562h0.013
		C23.905-19.677,24.286-19.859,24.565-20.219z"/>
	<path id="path3169" fill="#FFFFFF" d="M28.588-18.711c-0.322-0.316-0.485-0.792-0.485-1.423v-8.913h1.561l0.014,8.58
		c0,0.254,0.058,0.435,0.172,0.549c0.113,0.111,0.299,0.167,0.555,0.167c0.198,0,1.726-0.285,2.032-0.437
		c0.303-0.15,1.651-0.54,1.91-0.771v-8.089h1.561v10.658h-1.558l0.047-1.473c-0.505,0.433-2.252,1.06-2.793,1.285
		c-0.547,0.225-1.083,0.339-1.59,0.339C29.382-18.237,28.903-18.394,28.588-18.711z"/>
	<path id="path3171" fill="#FFFFFF" d="M14.617,3.556c-2.556,0-4.756-1.818-5.023-4.255l-0.023-0.43
		c-0.143-1.76-0.206-3.514-0.202-5.269c-0.004-1.755,0.059-3.509,0.202-5.265l0.023-0.433c0.267-2.435,2.469-4.257,5.023-4.257
		c3.197-0.125,6.488-0.185,9.836-0.185h1.049c3.348,0,6.635,0.06,9.84,0.185c2.72,0,5.047,2.073,5.045,4.75l0.154,2.574
		c0.034,0.877,0.049,1.754,0.049,2.631c0.002,0.878-0.015,1.757-0.049,2.634l-0.154,2.57c0.002,2.68-2.325,4.751-5.045,4.751
		c-3.219,0.127-6.524,0.188-9.882,0.188h-0.959C21.139,3.744,17.831,3.683,14.617,3.556z M35.31,1.994
		c2.005,0,3.517-1.481,3.517-3.189l0.003-0.063c0.14-1.71,0.2-3.422,0.195-5.14c0.003-1.72-0.055-3.435-0.195-5.143l-0.003-0.064
		c0-1.705-1.512-3.188-3.517-3.188c-3.212-0.127-6.48-0.186-9.808-0.186h-1.049c-3.328,0-6.599,0.059-9.804,0.186
		c-2.006,0-3.518,1.482-3.518,3.188l-0.004,0.064c-0.14,1.708-0.198,3.421-0.194,5.143c-0.005,1.717,0.054,3.43,0.194,5.14
		l0.004,0.063c0,1.708,1.509,3.189,3.518,3.189c3.222,0.128,6.509,0.186,9.852,0.186h0.959C28.798,2.18,32.084,2.122,35.31,1.994z"
		/>
	<path id="path3173" fill="#FFFFFF" d="M31.872-1.584c-0.406-0.436-0.607-1.034-0.607-1.794v-3.547c0-0.689,0.22-1.248,0.668-1.681
		c0.445-0.43,1.023-0.647,1.726-0.647c0.723,0,1.279,0.2,1.665,0.599c0.387,0.403,0.579,0.975,0.579,1.728v2.01h0.006l-0.006,0.003
		v-0.003H32.89v1.492c0,0.415,0.053,0.705,0.156,0.865c0.101,0.157,0.284,0.242,0.531,0.242c0.262,0,0.448-0.067,0.549-0.204
		c0.107-0.137,0.159-0.439,0.159-0.903v-0.549h1.625v0.595c0,0.81-0.201,1.423-0.595,1.83c-0.396,0.412-0.985,0.615-1.772,0.615
		C32.835-0.932,32.28-1.149,31.872-1.584z M19.767-1.385c-0.185-0.236-0.279-0.589-0.279-1.058v-6.61h1.578v6.061
		c0,0.189,0.036,0.323,0.102,0.407c0.066,0.084,0.173,0.125,0.321,0.125c0.116,0,0.264-0.052,0.443-0.165
		c0.175-0.111,0.337-0.255,0.487-0.427h-0.002v-6.001h1.58v7.906h-1.58V-2.02c-0.291,0.323-0.593,0.564-0.907,0.734
		c-0.319,0.171-0.623,0.252-0.918,0.252C20.225-1.035,19.95-1.151,19.767-1.385z M27.801-1.224c-0.241-0.113-0.464-0.29-0.674-0.531
		v0.607h-1.592v-10.719h1.592v3.453c0.213-0.246,0.442-0.424,0.68-0.552c0.241-0.125,0.482-0.191,0.727-0.191
		c0.499,0,0.88,0.171,1.144,0.511c0.264,0.334,0.393,0.827,0.393,1.473v4.388c0,0.563-0.123,0.991-0.369,1.287
		c-0.249,0.3-0.605,0.45-1.075,0.45C28.318-1.047,28.043-1.105,27.801-1.224z M15.895-1.148v-9.163h-1.842v-1.556h5.46v1.556h-1.842
		v9.163H15.895z M28.31-2.456c0.091-0.111,0.137-0.29,0.137-0.544l-0.003,0.002v-4.083c0-0.264-0.055-0.468-0.168-0.609
		c-0.113-0.134-0.274-0.206-0.489-0.206c-0.111,0-0.223,0.026-0.331,0.078c-0.113,0.053-0.22,0.133-0.329,0.242v4.925
		c0.13,0.131,0.255,0.223,0.375,0.278c0.122,0.061,0.25,0.085,0.383,0.085C28.077-2.288,28.219-2.343,28.31-2.456z M34.281-6.141
		V-6.94c0-0.334-0.055-0.57-0.165-0.714c-0.11-0.14-0.284-0.217-0.523-0.217c-0.252,0-0.433,0.076-0.541,0.217
		c-0.108,0.143-0.165,0.38-0.165,0.714h-0.003v0.799H34.281z"/>
	<path id="path3175" fill="#FFFFFF" d="M0,5.43v-40.846c0-2.517,2.044-4.565,4.563-4.565h40.836c2.516,0,4.562,2.047,4.562,4.565
		V5.43c0,2.52-2.046,4.565-4.562,4.565H4.563C2.044,9.995,0,7.95,0,5.43z M48.399,5.43v-40.846c0-1.653-1.348-3.003-3.001-3.003
		H4.563c-1.654,0-3.001,1.35-3.001,3.003V5.43c0,1.655,1.347,3.003,3.001,3.003h40.836C47.052,8.433,48.399,7.085,48.399,5.43z"/>
</g>
</svg>
