<?xml version="1.0" encoding="utf-8"?>
<!-- Generator: Adobe Illustrator 15.0.0, SVG Export Plug-In . SVG Version: 6.00 Build 0)  -->
<!DOCTYPE svg PUBLIC "-//W3C//DTD SVG 1.1//EN" "http://www.w3.org/Graphics/SVG/1.1/DTD/svg11.dtd">
<svg version="1.1" id="Layer_1" xmlns="http://www.w3.org/2000/svg" xmlns:xlink="http://www.w3.org/1999/xlink" x="0px" y="0px"
	 width="32px" height="40px" viewBox="0 0 32 40" enable-background="new 0 0 32 40" xml:space="preserve">
<path fill="#008ECA" stroke-miterlimit="10" d="M14.581,1.042L14.581,1.042
	c-0.006,0-0.012,0-0.018,0c-0.006,0-0.012,0-0.018,0l0,0c-4.474,0-13.31-1.218-13.31,9.523c0,10.768,13.387,23.275,13.387,23.275
	s13.27-12.115,13.27-22.883C27.891,0.215,19.055,1.042,14.581,1.042z"/>
<g>
	<g transform="translate(0.000000,511.000000) scale(0.100000,-0.100000)">
		<path fill="#FFFFFF" d="M135.312,5042.885c-28.242-2.061-53.359-21.777-62.383-49.009c-5.908-17.886-4.453-38.101,3.906-54.814
			c4.893-9.683,12.91-19.263,21.66-25.84c8.184-6.172,20-11.289,30.293-13.145c6.523-1.172,18.496-1.172,25.059,0
			c29.541,5.234,53.252,28.96,58.486,58.481c1.182,6.572,1.182,18.55,0,25.063c-2.549,14.375-9.639,27.9-20.107,38.374
			C177.07,5037.148,157.139,5044.443,135.312,5042.885z M154.805,5000.493l0.166-15.752l15.762-0.171l15.703-0.117v-13.369v-13.354
			l-15.703-0.117l-15.762-0.171l-0.166-15.708l-0.117-15.752h-13.359h-13.369l-0.117,15.752l-0.166,15.708l-15.703,0.171
			l-15.762,0.117v13.354v13.369l15.762,0.117l15.703,0.171l0.166,15.767l0.117,15.703h13.369h13.359L154.805,5000.493z"/>
	</g>
</g>
</svg>
