<?xml version="1.0" encoding="utf-8"?>
<!-- Generator: Adobe Illustrator 15.0.0, SVG Export Plug-In . SVG Version: 6.00 Build 0)  -->
<!DOCTYPE svg PUBLIC "-//W3C//DTD SVG 1.1//EN" "http://www.w3.org/Graphics/SVG/1.1/DTD/svg11.dtd">
<svg version="1.1" id="Layer_1" xmlns="http://www.w3.org/2000/svg" xmlns:xlink="http://www.w3.org/1999/xlink" x="0px" y="0px"
	 width="32px" height="40px" viewBox="0 0 32 40" enable-background="new 0 0 32 40" xml:space="preserve">
<path fill="#EA0637" d="M14.346,1.042L14.346,1.042c-0.006,0-0.012,0-0.018,0c-0.006,0-0.012,0-0.018,0l0,0
	C9.836,1.042,1-0.176,1,10.565C1,21.333,14.387,33.84,14.387,33.84s13.27-12.115,13.27-22.883
	C27.656,0.216,18.82,1.042,14.346,1.042z"/>
<g>
	<g>
		<g>
			<path fill="#FFFFFF" d="M23.683,11.33c-0.141-0.281-0.44-0.451-0.75-0.425l-0.939,0.069c-1.018-3.682-4.387-6.395-8.389-6.395
				c-4.803,0-8.713,3.908-8.713,8.713c0,4.804,3.91,8.711,8.713,8.711c2.781,0,5.419-1.346,7.054-3.598
				c0.252-0.348,0.174-0.831-0.17-1.083c-0.348-0.251-0.831-0.173-1.083,0.172c-1.347,1.854-3.515,2.962-5.801,2.962
				c-3.95,0-7.165-3.215-7.165-7.165c0-3.951,3.214-7.165,7.165-7.165c3.182,0,5.882,2.086,6.813,4.961l-0.489,0.037
				c-0.312,0.023-0.579,0.231-0.679,0.53c-0.097,0.298-0.006,0.625,0.229,0.83l1.406,1.216c0.137,0.22,0.379,0.367,0.657,0.367
				c0.016,0,0.028-0.003,0.042-0.003c0.004,0,0.009,0.001,0.013,0.001c0.021,0,0.038,0,0.057-0.001
				c0.204-0.016,0.395-0.113,0.53-0.266l1.393-1.613C23.782,11.948,23.823,11.61,23.683,11.33z"/>
			<g>
				<path fill="#FFFFFF" d="M9.508,15.992V15.24l0.686-0.621c1.159-1.038,1.724-1.633,1.739-2.253c0-0.434-0.262-0.776-0.875-0.776
					c-0.456,0-0.857,0.227-1.134,0.441l-0.351-0.891c0.4-0.301,1.021-0.547,1.739-0.547c1.2,0,1.862,0.703,1.862,1.666
					c0,0.89-0.646,1.601-1.414,2.286l-0.489,0.408v0.016h2.001v1.021L9.508,15.992L9.508,15.992z"/>
				<path fill="#FFFFFF" d="M16.241,15.992v-1.268h-2.354v-0.807l2.009-3.235h1.52v3.112h0.637v0.93h-0.637v1.268H16.241z
					 M16.241,13.794v-1.176c0-0.32,0.015-0.646,0.04-0.989h-0.033c-0.171,0.343-0.31,0.653-0.488,0.989l-0.711,1.158v0.016h1.193
					V13.794z"/>
			</g>
		</g>
	</g>
</g>
</svg>
