<?xml version="1.0" encoding="utf-8"?>
<!-- Generator: Adobe Illustrator 15.0.0, SVG Export Plug-In . SVG Version: 6.00 Build 0)  -->
<!DOCTYPE svg PUBLIC "-//W3C//DTD SVG 1.1//EN" "http://www.w3.org/Graphics/SVG/1.1/DTD/svg11.dtd">
<svg version="1.1" id="Layer_1" xmlns="http://www.w3.org/2000/svg" xmlns:xlink="http://www.w3.org/1999/xlink" x="0px" y="0px"
	 width="120px" height="33px" viewBox="0 0 120 33" enable-background="new 0 0 120 33" xml:space="preserve">
<g>
	<g>
		<path fill="#008ECA" d="M63.175,30.75h-5.626c-1.824,0-2.732-0.775-2.732-2.32v-1.422h1.141v1.422
			c0,0.885,0.422,1.213,1.619,1.213h2.131c0.926,0,1.099-0.188,1.099-0.852v-3.359h1.155v3.379c0,0.309-0.05,0.578-0.142,0.834
			h1.354L63.175,30.75L63.175,30.75z M59.425,27.814h-2.158v-0.617h0.473c-0.032-0.115-0.051-0.223-0.051-0.314
			c0-0.551,0.391-0.957,0.909-0.957c0.372,0,0.645,0.191,0.812,0.563l-0.538,0.256c-0.059-0.164-0.158-0.246-0.28-0.246
			c-0.188,0-0.279,0.114-0.279,0.354c0,0.182,0.058,0.297,0.182,0.338h0.934v0.625h-0.004V27.814z"/>
		<path fill="#008ECA" d="M65.424,29.156c0,0.438-0.125,0.801-0.365,1.09c-0.271,0.34-0.648,0.504-1.14,0.504h-1.091v-1.105h0.852
			c0.389,0,0.588-0.271,0.588-0.811v-3.4h1.154v3.727L65.424,29.156L65.424,29.156z"/>
		<path fill="#008ECA" d="M70.984,30.75h-1.094c-0.135,0.908-0.764,1.361-1.887,1.361h-0.122v-0.924h0.103
			c0.445,0,0.709-0.166,0.802-0.486c-0.093,0.031-0.322,0.049-0.71,0.049c-1.083,0-1.877-0.785-1.877-1.883
			c0-1.117,0.775-1.869,1.877-1.869c1.056,0,1.833,0.795,1.833,1.895v0.75h1.075V30.75L70.984,30.75z M68.754,29.643v-0.801
			c0-0.486-0.29-0.801-0.714-0.801c-0.437,0-0.667,0.338-0.667,0.775c0,0.471,0.281,0.824,0.709,0.824L68.754,29.643L68.754,29.643z
			"/>
		<path fill="#008ECA" d="M76.585,30.75H70.68v-1.107h4.678c-0.051-0.934-0.762-1.66-1.728-1.66c-0.497,0-1.058,0.262-1.387,0.602
			c-0.117-0.158-0.31-0.414-0.581-0.787c0.563-0.586,1.247-0.875,2.051-0.875c1.891,0.01,2.872,1.297,2.872,3.453V30.75
			L76.585,30.75z"/>
		<path fill="#008ECA" d="M85.376,30.75h-1.694c-0.451,0.857-1.285,1.371-2.254,1.371c-1.453,0-2.609-1.223-2.609-2.809v-2.311
			h1.164V29.2c0,1.092,0.558,1.844,1.453,1.844c0.896,0,1.445-0.774,1.445-1.844v-2.197h1.157v2.638h1.338V30.75L85.376,30.75z
			 M81.998,26.381h-1.023v-0.949h1.023V26.381z"/>
		<path fill="#008ECA" d="M89.945,29.576c0,1.107-0.742,1.885-1.899,1.885c-0.702,0-1.229-0.238-1.567-0.711h-1.482v-1.107h1.146
			c0-1.182,0.678-1.932,1.864-1.932S89.945,28.445,89.945,29.576z M88.8,29.619c0-0.652-0.249-0.984-0.735-0.984h-0.08
			c-0.424,0-0.715,0.389-0.715,0.934c0,0.563,0.282,0.951,0.776,0.951C88.5,30.52,88.8,30.154,88.8,29.619z"/>
		<path fill="#008ECA" d="M97.523,30.75h-1.164c-0.662,0-1.125-0.34-1.389-1.018c-0.207,0.322-0.604,0.496-1.176,0.496
			c-0.99,0-1.628-0.857-1.628-2c0-1.23,0.619-2.021,1.709-2.021c0-0.008,0.735-0.008,2.206-0.008v2.602
			c0,0.547,0.281,0.842,0.848,0.842h0.594V30.75z M94.121,25.432h-1.025v-0.959h1.025V25.432z M94.896,28.139v-1.09h-0.765
			c-0.472,0-0.813,0.521-0.813,1.164c0,0.58,0.33,1.059,0.793,1.059C94.6,29.271,94.896,28.816,94.896,28.139z M95.675,25.432
			h-1.022v-0.959h1.022V25.432z"/>
		<path fill="#008ECA" d="M104.001,30.75h-6.739v-1.107h4.691c-0.023-0.438-0.184-0.811-0.473-1.121
			c-0.321-0.354-0.752-0.539-1.271-0.539c-0.495,0-1.057,0.262-1.378,0.602c-0.118-0.158-0.306-0.414-0.579-0.787
			c0.563-0.586,1.238-0.875,2.04-0.875c0.487,0,0.916,0.09,1.287,0.268c0.884,0.422,1.403,1.234,1.544,2.461h0.876v1.104
			L104.001,30.75L104.001,30.75z"/>
		<path fill="#008ECA" d="M112.189,30.75h-8.553v-1.107h1.043c0.381,0,0.584-0.197,0.584-0.791V27.41h1.154v1.063
			c0.729-0.927,1.688-1.479,2.607-1.479c1.355,0,2.146,0.959,2.259,2.648h0.897L112.189,30.75L112.189,30.75z M110.083,29.643
			l0.008-0.146c0-0.853-0.421-1.494-1.146-1.494c-0.854,0-1.61,0.556-2.247,1.646L110.083,29.643L110.083,29.643z"/>
		<path fill="#008ECA" d="M114.447,29.156c0,0.438-0.124,0.801-0.363,1.09c-0.271,0.34-0.654,0.504-1.141,0.504h-1.092v-1.105h0.853
			c0.388,0,0.586-0.271,0.586-0.811v-3.4h1.155v3.727L114.447,29.156L114.447,29.156z"/>
		<path fill="#008ECA" d="M116.447,30.75h-1.158v-5.328h1.158V30.75z"/>
	</g>
</g>
<rect id="_x3C_Slice_x3E_" x="12.004" y="0.122" fill="none" width="105" height="33"/>
<g>
	<linearGradient id="SVGID_1_" gradientUnits="userSpaceOnUse" x1="1.4951" y1="18.3604" x2="19.1382" y2="18.3604">
		<stop  offset="0" style="stop-color:#8CC63F"/>
		<stop  offset="1" style="stop-color:#75BA3F"/>
	</linearGradient>
	<path fill="url(#SVGID_1_)" d="M10.045,16.076c1.214,0,2.116-0.321,2.706-0.965c0.589-0.644,0.885-1.548,0.885-2.716
		c0-0.976-0.31-1.786-0.929-2.43S11.224,9,10.114,9C9.179,9,8.393,9.292,7.758,9.875c-0.637,0.585-0.955,1.328-0.955,2.233h-4.94
		L1.828,12C1.759,9.964,2.529,8.286,4.141,6.963c1.612-1.322,3.604-1.982,5.976-1.982c2.64,0,4.736,0.634,6.289,1.902
		c1.554,1.268,2.331,3.087,2.331,5.458c0,1.19-0.337,2.283-1.008,3.277c-0.674,0.995-1.593,1.776-2.761,2.348
		c1.332,0.515,2.359,1.291,3.084,2.332c0.725,1.043,1.086,2.304,1.086,3.779c0,2.381-0.844,4.254-2.53,5.618
		c-1.688,1.363-3.853,2.044-6.491,2.044c-2.324,0-4.356-0.644-6.098-1.929c-1.739-1.287-2.58-3.09-2.521-5.412l0.034-0.106h4.976
		c0,0.976,0.336,1.795,1.007,2.455c0.673,0.66,1.539,0.991,2.604,0.991c1.168,0,2.114-0.354,2.838-1.055
		c0.724-0.703,1.087-1.594,1.087-2.662c0-1.369-0.339-2.388-1.018-3.045c-0.678-0.66-1.669-0.992-2.978-0.992H7.226v-3.911
		L10.045,16.076L10.045,16.076z"/>
</g>
<g>
	<linearGradient id="SVGID_2_" gradientUnits="userSpaceOnUse" x1="16.9189" y1="18.3594" x2="34.5459" y2="18.3594">
		<stop  offset="0" style="stop-color:#8CC63F"/>
		<stop  offset="1" style="stop-color:#75BA3F"/>
	</linearGradient>
	<path fill="url(#SVGID_2_)" d="M26.975,4.981c0.992,0,1.912,0.092,2.76,0.276c0.847,0.184,1.685,0.456,2.515,0.813l-0.911,3.824
		C30.543,9.62,29.831,9.416,29.2,9.277c-0.631-0.137-1.36-0.206-2.19-0.206c-1.494,0-2.701,0.584-3.617,1.751
		c-0.917,1.168-1.375,2.793-1.375,4.877v0.84c0.678-0.679,1.485-1.206,2.427-1.58c0.939-0.376,1.988-0.563,3.146-0.563
		c2.185,0,3.89,0.789,5.115,2.367c1.227,1.578,1.84,3.635,1.84,6.172c0,2.604-0.794,4.729-2.383,6.355
		c-1.589,1.633-3.662,2.447-6.22,2.447c-2.663,0-4.832-0.932-6.51-2.787c-1.676-1.854-2.514-4.396-2.514-7.627v-5.45
		c0-3.299,0.948-5.94,2.848-7.923C21.663,5.974,24.065,4.981,26.975,4.981z M25.888,18.346c-0.923,0-1.707,0.15-2.355,0.453
		c-0.647,0.307-1.153,0.725-1.516,1.262v1.396c0,2,0.358,3.551,1.077,4.646c0.718,1.097,1.667,1.646,2.848,1.646
		c1.063,0,1.908-0.455,2.54-1.365c0.631-0.911,0.946-2.059,0.946-3.438c0-1.432-0.318-2.553-0.956-3.366
		C27.836,18.752,26.975,18.346,25.888,18.346z"/>
</g>
<g>
	<path fill="#8CC63F" d="M49.529,21.953c0,3.049-0.786,5.443-2.356,7.182c-1.57,1.74-3.651,2.607-6.245,2.607
		c-2.615,0-4.713-0.867-6.29-2.607c-1.575-1.736-2.364-4.133-2.364-7.182v-7.165c0-3.036,0.785-5.431,2.355-7.181
		c1.57-1.751,3.658-2.626,6.263-2.626c2.594,0,4.683,0.875,6.265,2.626c1.582,1.75,2.374,4.145,2.374,7.181L49.529,21.953
		L49.529,21.953z M44.432,14.254c0-1.668-0.313-2.96-0.938-3.878c-0.625-0.916-1.492-1.375-2.604-1.375
		c-1.12,0-1.986,0.459-2.602,1.375c-0.612,0.918-0.919,2.21-0.919,3.878v8.199c0,1.703,0.31,3.01,0.928,3.922
		c0.619,0.912,1.495,1.367,2.629,1.367c1.109,0,1.972-0.455,2.583-1.367c0.614-0.912,0.921-2.219,0.921-3.922L44.432,14.254
		L44.432,14.254z"/>
</g>
<g>
	<g>
		<path fill="#008ECA" d="M63.913,19.316c0.067-0.465-0.103-0.854-0.505-1.156C63.003,17.854,62.2,17.574,61,17.322
			c-1.797-0.354-3.124-0.889-3.981-1.605c-0.858-0.717-1.2-1.689-1.023-2.918c0.194-1.339,0.929-2.454,2.202-3.343
			c1.273-0.888,2.876-1.333,4.81-1.333c1.922,0,3.438,0.46,4.544,1.382c1.108,0.921,1.54,2.051,1.296,3.391L68.82,12.98h-4.131
			c0.088-0.623-0.043-1.122-0.396-1.494c-0.352-0.372-0.917-0.558-1.695-0.558c-0.654,0-1.215,0.163-1.678,0.489
			c-0.465,0.326-0.729,0.726-0.798,1.2c-0.069,0.484,0.08,0.866,0.444,1.145c0.365,0.279,1.176,0.54,2.424,0.781
			c1.884,0.372,3.246,0.919,4.092,1.641c0.845,0.721,1.18,1.714,1.002,2.979c-0.214,1.414-0.986,2.539-2.316,3.377
			c-1.332,0.838-3.011,1.256-5.029,1.256c-2.027,0-3.6-0.517-4.711-1.549c-1.113-1.031-1.547-2.188-1.305-3.461l0.045-0.084h3.908
			c-0.088,0.81,0.105,1.396,0.579,1.76c0.474,0.361,1.133,0.543,1.98,0.543c0.752,0,1.365-0.151,1.848-0.461
			C63.557,20.24,63.835,19.83,63.913,19.316z"/>
		<path fill="#008ECA" d="M76.941,23.799c-2.27,0-3.979-0.699-5.143-2.102c-1.16-1.4-1.563-3.17-1.216-5.313l0.088-0.558
			c0.361-2.345,1.291-4.217,2.788-5.618c1.499-1.4,3.389-2.096,5.658-2.087c2.05,0,3.563,0.628,4.545,1.885
			c0.979,1.256,1.309,2.921,0.977,4.997l-0.32,2.104h-9.457l-0.028,0.072c-0.117,1.066,0.067,1.918,0.558,2.547
			c0.488,0.627,1.316,0.939,2.487,0.939c0.917,0,1.742-0.098,2.476-0.286c0.73-0.188,1.477-0.472,2.229-0.845l0.761,2.513
			c-0.723,0.493-1.646,0.907-2.776,1.243C79.425,23.631,78.221,23.799,76.941,23.799z M78.641,11.266
			c-0.82,0-1.513,0.284-2.07,0.851c-0.563,0.568-0.971,1.308-1.225,2.22l0.028,0.083h5.185l0.045-0.307
			c0.146-0.912,0.067-1.614-0.229-2.107C80.076,11.512,79.498,11.266,78.641,11.266z"/>
		<path fill="#008ECA" d="M92.049,10.231c0.614-0.67,1.311-1.188,2.085-1.556c0.775-0.368,1.604-0.552,2.481-0.552
			c1.59,0,2.787,0.529,3.593,1.585c0.806,1.055,1.037,2.668,0.694,4.835l-1.403,8.96h-4.272l1.418-8.987
			c0.188-1.219,0.119-2.062-0.193-2.526c-0.316-0.465-0.881-0.698-1.68-0.698c-0.646,0-1.223,0.108-1.73,0.321
			c-0.516,0.214-0.96,0.516-1.34,0.907l-1.729,10.984h-4.271l3.426-21.772h4.271L92.049,10.231z"/>
	</g>
</g>
<circle fill="none" stroke="#8CC63F" stroke-miterlimit="10" cx="48.974" cy="4.122" r="1.418"/>
<g>
	<path fill="#008ECA" d="M110.863,23.213c-0.106-0.346-0.188-0.711-0.233-1.096c-0.049-0.389-0.067-0.779-0.06-1.182
		c-0.557,0.744-1.231,1.355-2.026,1.842c-0.796,0.481-1.688,0.729-2.687,0.729c-1.604,0-2.803-0.412-3.604-1.234
		c-0.801-0.82-1.088-1.93-0.862-3.313c0.232-1.535,1.006-2.696,2.313-3.481c1.31-0.786,3.122-1.18,5.442-1.18h2.398l0.189-1.2
		c0.115-0.754,0.008-1.324-0.328-1.71c-0.338-0.386-0.906-0.58-1.706-0.58c-0.663,0-1.22,0.161-1.662,0.482
		c-0.442,0.321-0.704,0.76-0.782,1.318h-4.111l-0.016-0.083c0.146-1.321,0.898-2.434,2.262-3.336
		c1.361-0.902,3.049-1.354,5.061-1.354c1.836,0,3.281,0.461,4.349,1.382c1.063,0.922,1.466,2.224,1.2,3.908l-0.979,6.236
		c-0.117,0.734-0.168,1.404-0.146,2.015c0.021,0.604,0.104,1.217,0.25,1.842h-4.264v-0.003L110.863,23.213L110.863,23.213z
		 M107.38,20.49c0.713,0,1.396-0.18,2.05-0.537c0.652-0.357,1.127-0.771,1.42-1.234l0.338-2.122h-2.397
		c-0.868,0-1.579,0.218-2.131,0.655c-0.554,0.438-0.875,0.959-0.978,1.563c-0.088,0.529,0.021,0.94,0.321,1.235
		C106.307,20.344,106.766,20.49,107.38,20.49z"/>
</g>
<path fill="#2BABD8" stroke="#FFFFFF" stroke-miterlimit="10" d="M112.581,9.267c0,0,0.213-3.632,5.433-4.058
	c0,0-0.166,3.485-3.271,4.319c0,0-1.751,0.278-2.063,0.229C112.68,9.756,112.521,9.634,112.581,9.267z"/>
</svg>
