<?xml version="1.0" encoding="utf-8"?>
<!-- Generator: Adobe Illustrator 15.0.0, SVG Export Plug-In . SVG Version: 6.00 Build 0)  -->
<!DOCTYPE svg PUBLIC "-//W3C//DTD SVG 1.1//EN" "http://www.w3.org/Graphics/SVG/1.1/DTD/svg11.dtd">
<svg version="1.1" id="Layer_1" xmlns="http://www.w3.org/2000/svg" xmlns:xlink="http://www.w3.org/1999/xlink" x="0px" y="0px"
	 width="134px" height="134px" viewBox="0 0 134 134" enable-background="new 0 0 134 134" xml:space="preserve">
<path fill="#E5E5E5" d="M67.375,131.75c-35.91,0-65.125-29.215-65.125-65.125S31.465,1.5,67.375,1.5S132.5,30.715,132.5,66.625
	S103.285,131.75,67.375,131.75z M67.375,9.291c-31.614,0-57.334,25.72-57.334,57.334s25.72,57.334,57.334,57.334
	s57.334-25.72,57.334-57.334S98.989,9.291,67.375,9.291z"/>
<circle fill="#E5E5E5" cx="47.411" cy="50.557" r="7.912"/>
<circle fill="#E5E5E5" cx="88.313" cy="50.557" r="7.912"/>
<path fill="#E5E5E5" d="M100.348,98.026c-1.194,0-2.354-0.63-2.979-1.747c-5.896-10.558-17.063-17.116-29.142-17.116
	c-12.027,0-23.169,6.517-29.081,17.005c-0.923,1.642-3.001,2.224-4.643,1.296c-1.64-0.923-2.22-3.002-1.295-4.642
	c7.118-12.63,20.535-20.476,35.019-20.476c14.546,0,27.992,7.896,35.093,20.608c0.918,1.643,0.33,3.72-1.313,4.638
	C101.481,97.887,100.91,98.026,100.348,98.026z"/>
</svg>
