<?xml version="1.0" encoding="utf-8"?>
<!-- Generator: Adobe Illustrator 15.0.0, SVG Export Plug-In . SVG Version: 6.00 Build 0)  -->
<!DOCTYPE svg PUBLIC "-//W3C//DTD SVG 1.1//EN" "http://www.w3.org/Graphics/SVG/1.1/DTD/svg11.dtd">
<svg version="1.1" id="Layer_1" xmlns="http://www.w3.org/2000/svg" xmlns:xlink="http://www.w3.org/1999/xlink" x="0px" y="0px"
	 width="24px" height="48px" viewBox="0 0 24 48" enable-background="new 0 0 24 48" xml:space="preserve">
<g>
	<path fill="#AEAEAE" d="M8.833,3.458c-0.622-0.554-1.43-0.905-2.327-0.945c-2.069-0.09-3.822,1.512-3.913,3.584
		C2.549,7.118,2.917,8.061,3.55,8.765C4.497,6.333,6.427,4.411,8.833,3.458z"/>
	<path fill="#AEAEAE" d="M15.976,3.566c0.646-0.525,1.469-0.841,2.366-0.841c2.071,0,3.751,1.679,3.751,3.75
		c0,1.021-0.409,1.948-1.072,2.625C20.182,6.629,18.338,4.622,15.976,3.566z"/>
	<polygon fill="#AEAEAE" points="13,11 13,7 12,7 12,13 12.972,13 13.336,13 15,13 15,11 	"/>
	<path fill="#AEAEAE" d="M20.776,12.092c0-4.615-3.753-8.368-8.367-8.368s-8.367,3.753-8.367,8.368c0,2.162,0.825,4.438,2.175,5.923
		L5.318,21h2.065L8,19.473l0,0c1.281,0.733,2.792,1.123,4.41,1.123c1.66,0,3.208-0.555,4.51-1.391l-0.062,0.33L17.477,21h2.064
		l-0.911-3.018C19.964,16.501,20.776,14.239,20.776,12.092z M5.864,12.092c0-3.61,2.937-6.545,6.546-6.545s6.544,2.936,6.544,6.545
		c0,3.609-2.936,6.544-6.544,6.544S5.864,15.701,5.864,12.092z"/>
</g>
<g>
	<path fill="#FFFFFF" d="M8.833,27.459c-0.622-0.555-1.43-0.905-2.327-0.945c-2.069-0.09-3.822,1.512-3.913,3.584
		c-0.045,1.021,0.324,1.963,0.956,2.667C4.497,30.333,6.427,28.41,8.833,27.459z"/>
	<path fill="#FFFFFF" d="M15.976,27.566c0.646-0.525,1.469-0.842,2.366-0.842c2.071,0,3.751,1.68,3.751,3.751
		c0,1.021-0.409,1.948-1.072,2.624C20.182,30.629,18.338,28.622,15.976,27.566z"/>
	<polygon fill="#FFFFFF" points="13,35 13,31 12,31 12,37 12.972,37 13.336,37 15,37 15,35 	"/>
	<path fill="#FFFFFF" d="M20.776,36.092c0-4.614-3.753-8.367-8.367-8.367s-8.367,3.753-8.367,8.367c0,2.162,0.825,4.438,2.175,5.924
		L5.318,45h2.065L8,43.473l0,0c1.281,0.734,2.792,1.123,4.41,1.123c1.66,0,3.208-0.555,4.51-1.391l-0.062,0.33L17.477,45h2.064
		l-0.911-3.018C19.964,40.501,20.776,38.238,20.776,36.092z M5.864,36.092c0-3.609,2.937-6.545,6.546-6.545s6.544,2.936,6.544,6.545
		s-2.936,6.545-6.544,6.545S5.864,39.701,5.864,36.092z"/>
</g>
</svg>
