<?xml version="1.0" encoding="utf-8"?>
<!-- Generator: Adobe Illustrator 15.0.0, SVG Export Plug-In . SVG Version: 6.00 Build 0)  -->
<!DOCTYPE svg PUBLIC "-//W3C//DTD SVG 1.1//EN" "http://www.w3.org/Graphics/SVG/1.1/DTD/svg11.dtd">
<svg version="1.1" id="Layer_1" xmlns="http://www.w3.org/2000/svg" xmlns:xlink="http://www.w3.org/1999/xlink" x="0px" y="0px"
	 width="50px" height="50px" viewBox="0 0 50 50" enable-background="new 0 0 50 50" xml:space="preserve">
<g>
	<linearGradient id="SVGID_1_" gradientUnits="userSpaceOnUse" x1="27.1455" y1="3.9619" x2="23.1416" y2="24.5603">
		<stop  offset="0" style="stop-color:#FFFFFF"/>
		<stop  offset="0.4711" style="stop-color:#FBFBFB"/>
		<stop  offset="0.9514" style="stop-color:#EFEFEF"/>
		<stop  offset="1" style="stop-color:#EDEDED"/>
	</linearGradient>
	<path fill="url(#SVGID_1_)" d="M17.229,14.551c0,0-2.976-8.661,7.217-10.497c0,0,5.411-0.925,6.043,2.321
		c0,0,4.388,0.903,2.315,8.175c0,0,2.163,0.117,0.149,3.171c0,0-0.365,0.648-1.317,0.648c0,0-1.963,5.949-6.467,6.458
		c0,0-3.82,0.665-6.737-6.49c0,0-1.653,0.212-2.162-2.432C16.271,15.906,15.789,14.459,17.229,14.551z"/>
	<linearGradient id="SVGID_2_" gradientUnits="userSpaceOnUse" x1="28.1279" y1="24.4897" x2="23.7279" y2="47.1261">
		<stop  offset="0" style="stop-color:#FFFFFF"/>
		<stop  offset="0.4711" style="stop-color:#FBFBFB"/>
		<stop  offset="0.9514" style="stop-color:#EFEFEF"/>
		<stop  offset="1" style="stop-color:#EDEDED"/>
	</linearGradient>
	<path fill="url(#SVGID_2_)" d="M29.968,24.848c-0.339,2.744-3.402,7.19-3.402,7.19l-0.659-3.436l0.476-1.044l-1.395-1.179
		l-1.427,1.147l0.45,1.056l-0.626,3.455c-1.238-0.757-3.37-7.19-3.37-7.19l-3.368,0.958c0,0-0.146,0.046-0.437,0.131l0.688-0.189
		l0.87-0.254c-0.022,0.059-1.978,5.939,0.088,11.871c0.072-0.006,0.14-0.006,0.215-0.006c1.127,0,2.04,0.912,2.04,2.039
		c0,1.129-0.913,2.048-2.04,2.048c-1.128,0-2.047-0.919-2.047-2.048c0-0.527,0.202-1.016,0.535-1.375
		c-2.331-6.46-0.583-11.748-0.489-12.041c-0.623,0.202-1.77,0.613-3.514,1.337c-2.826,1.167-3.217,6.402-3.217,6.402
		s-0.871,7.64-0.871,9.107c0,1.479,1.053,1.532,1.053,1.532s29.405,0,30.853,0c1.434,0,1.134-1.585,1.134-1.585
		s-0.176-3.077-0.782-8.448c-0.6-5.385-2.217-6.415-3.48-7.139c-0.62-0.346-2.374-0.914-4.003-1.402
		c0.013,0.294,0.117,2.666-0.235,4.211c0.776,0.32,1.988,1.044,2.217,2.361c0.261,1.563-0.255,6.896-0.313,7.49
		c-0.078,0.873-0.82,2.138-2.549,2.138c-0.007,0-0.02-0.013-0.032-0.013c-0.039,0.013-0.085,0.025-0.131,0.025
		c-0.364,0-0.664-0.306-0.664-0.671c0-0.378,0.3-0.678,0.664-0.678c0.014,0,0.026,0,0.039,0.006V40.65
		c1.226,0.064,1.337-0.814,1.344-0.92c0.163-1.597,0.534-5.965,0.325-7.145c-0.169-1.023-1.694-1.48-1.852-1.532
		c-2.196-0.442-3.083,1.858-3.116,1.956c-0.025,0.052-1.231,2.979-1.772,4.765c-0.372,1.22,0.743,1.846,0.912,1.938
		c0.261,0.084,0.443,0.332,0.443,0.625c0,0.365-0.3,0.665-0.664,0.665c-0.131,0-0.248-0.039-0.353-0.104v0.006
		c-0.809-0.385-2.19-1.63-1.616-3.515c0.566-1.845,1.76-4.752,1.812-4.869c0.404-1.088,1.747-2.979,4.016-2.849
		c0.261-1.141,0.261-3.546,0.242-4.264"/>
</g>
</svg>
