<?xml version="1.0" encoding="utf-8"?>
<!-- Generator: Adobe Illustrator 15.0.0, SVG Export Plug-In . SVG Version: 6.00 Build 0)  -->
<!DOCTYPE svg PUBLIC "-//W3C//DTD SVG 1.1//EN" "http://www.w3.org/Graphics/SVG/1.1/DTD/svg11.dtd">
<svg version="1.1" id="Layer_1" xmlns="http://www.w3.org/2000/svg" xmlns:xlink="http://www.w3.org/1999/xlink" x="0px" y="0px"
	 width="24px" height="48px" viewBox="0 0 24 48" enable-background="new 0 0 24 48" xml:space="preserve">
<g>
	<path fill="#AEAEAE" d="M8.046,6.545c0,0-1.707-4.964,4.136-6.017c0,0,3.102-0.53,3.464,1.33c0,0,2.514,0.518,1.326,4.686
		c0,0,1.239,0.067,0.087,1.817c0,0-0.211,0.371-0.757,0.371c0,0-1.125,3.411-3.707,3.703c0,0-2.188,0.381-3.862-3.721
		c0,0-0.947,0.123-1.239-1.394C7.497,7.321,7.221,6.492,8.046,6.545z"/>
	<path fill="#AEAEAE" d="M15.347,12.447c-0.193,1.572-1.95,4.12-1.95,4.12l-0.377-1.969L13.291,14l-0.797-0.676l-0.817,0.657
		l0.258,0.606l-0.359,1.979c-0.709-0.433-1.932-4.121-1.932-4.121l-1.931,0.549c0,0-0.083,0.026-0.25,0.074l0.395-0.107l0.498-0.145
		c-0.013,0.033-1.134,3.403,0.05,6.804c0.042-0.004,0.08-0.004,0.123-0.004c0.647,0,1.17,0.524,1.17,1.169
		c0,0.648-0.524,1.174-1.17,1.174c-0.645,0-1.173-0.527-1.173-1.174c0-0.301,0.116-0.583,0.307-0.788
		c-1.336-3.703-0.334-6.733-0.28-6.9c-0.357,0.115-1.015,0.351-2.015,0.767c-1.62,0.666-1.843,3.667-1.843,3.667
		s-0.499,4.378-0.499,5.219c0,0.849,0.604,0.878,0.604,0.878s16.855,0,17.682,0c0.824,0,0.649-0.909,0.649-0.909
		s-0.1-1.763-0.445-4.84c-0.345-3.087-1.271-3.678-1.996-4.092c-0.354-0.199-1.36-0.523-2.294-0.804
		c0.007,0.168,0.067,1.527-0.134,2.413c0.444,0.184,1.139,0.598,1.271,1.353c0.15,0.896-0.146,3.952-0.179,4.293
		c-0.045,0.5-0.471,1.225-1.462,1.225c-0.005,0-0.012-0.007-0.017-0.007c-0.023,0.007-0.05,0.015-0.077,0.015
		c-0.207,0-0.38-0.176-0.38-0.385c0-0.218,0.173-0.388,0.38-0.388c0.008,0,0.017,0,0.023,0.002v-0.001
		c0.704,0.035,0.765-0.467,0.771-0.528c0.093-0.916,0.306-3.418,0.187-4.095c-0.099-0.587-0.973-0.849-1.062-0.878
		c-1.261-0.253-1.768,1.065-1.784,1.12c-0.016,0.031-0.708,1.708-1.017,2.731c-0.215,0.701,0.426,1.058,0.523,1.111
		c0.149,0.048,0.254,0.192,0.254,0.358c0,0.209-0.172,0.381-0.38,0.381c-0.076,0-0.144-0.023-0.203-0.059v0.002
		c-0.464-0.221-1.256-0.934-0.927-2.016c0.324-1.057,1.007-2.724,1.039-2.79c0.231-0.624,1-1.708,2.3-1.633
		c0.15-0.654,0.15-2.033,0.139-2.444"/>
</g>
<g>
	<path fill="#FFFFFF" d="M8.206,30.524c0,0-1.646-4.786,3.988-5.801c0,0,2.992-0.513,3.342,1.283c0,0,2.423,0.498,1.276,4.518
		c0,0,1.196,0.065,0.084,1.754c0,0-0.202,0.358-0.729,0.358c0,0-1.084,3.288-3.575,3.568c0,0-2.11,0.368-3.724-3.589
		c0,0-0.914,0.118-1.195-1.344C7.676,31.274,7.41,30.475,8.206,30.524z"/>
	<path fill="#FFFFFF" d="M15.247,36.217c-0.187,1.517-1.88,3.974-1.88,3.974l-0.364-1.898l0.262-0.577l-0.77-0.651l-0.788,0.633
		l0.249,0.585l-0.347,1.909c-0.684-0.42-1.863-3.974-1.863-3.974l-1.862,0.529c0,0-0.08,0.024-0.241,0.07l0.381-0.104l0.48-0.14
		c-0.012,0.031-1.094,3.283,0.048,6.562c0.041-0.006,0.078-0.006,0.12-0.006c0.623,0,1.127,0.506,1.127,1.128
		c0,0.624-0.505,1.133-1.127,1.133c-0.623,0-1.132-0.509-1.132-1.133c0-0.291,0.111-0.561,0.296-0.76
		c-1.289-3.57-0.323-6.492-0.271-6.655c-0.344,0.112-0.979,0.339-1.942,0.738c-1.563,0.646-1.778,3.539-1.778,3.539
		s-0.481,4.222-0.481,5.033C3.363,46.971,3.945,47,3.945,47s16.253,0,17.051,0c0.796,0,0.627-0.877,0.627-0.877
		s-0.096-1.7-0.43-4.668c-0.332-2.977-1.227-3.547-1.925-3.946c-0.342-0.194-1.313-0.506-2.213-0.776
		c0.008,0.161,0.065,1.472-0.129,2.328c0.429,0.176,1.099,0.576,1.227,1.306c0.146,0.862-0.141,3.811-0.172,4.138
		c-0.044,0.484-0.454,1.183-1.41,1.183c-0.004,0-0.012-0.007-0.016-0.007c-0.023,0.007-0.049,0.014-0.074,0.014
		c-0.2,0-0.367-0.167-0.367-0.37c0-0.211,0.167-0.375,0.367-0.375c0.007,0,0.016,0,0.021,0.002v-0.002
		c0.68,0.035,0.738-0.45,0.743-0.509c0.09-0.884,0.296-3.296,0.181-3.948c-0.096-0.566-0.938-0.82-1.024-0.849
		c-1.215-0.244-1.704,1.028-1.721,1.082c-0.015,0.028-0.683,1.646-0.979,2.634c-0.208,0.675,0.41,1.021,0.504,1.07
		c0.145,0.046,0.245,0.185,0.245,0.346c0,0.201-0.165,0.368-0.366,0.368c-0.073,0-0.139-0.022-0.196-0.057v0.003
		c-0.446-0.213-1.211-0.902-0.894-1.944c0.313-1.02,0.972-2.627,1.002-2.69c0.224-0.602,0.965-1.647,2.218-1.575
		c0.146-0.633,0.146-1.962,0.135-2.356"/>
</g>
</svg>
