<?xml version="1.0" encoding="utf-8"?>
<!-- Generator: Adobe Illustrator 15.0.0, SVG Export Plug-In . SVG Version: 6.00 Build 0)  -->
<!DOCTYPE svg PUBLIC "-//W3C//DTD SVG 1.1//EN" "http://www.w3.org/Graphics/SVG/1.1/DTD/svg11.dtd">
<svg version="1.1" id="Layer_1" xmlns="http://www.w3.org/2000/svg" xmlns:xlink="http://www.w3.org/1999/xlink" x="0px" y="0px"
	 width="24px" height="48px" viewBox="0 0 24 48" enable-background="new 0 0 24 48" xml:space="preserve">
<path fill="#AEAEAE" d="M11.869,15.232c0,0-6.344-2.902-6.862-9.08c0,0-0.042-3.13,3.255-3.752c0,0,2.053-0.415,3.607,1.721
	c0,0,1.203-1.807,3.379-1.754c0,0,3.027,0.054,3.483,3.702C18.731,6.07,18.959,11.397,11.869,15.232z"/>
<path fill="#AEAEAE" d="M6.168,15.679c0,0-0.639-1.083-1.067-1.346c-0.428-0.263-1.067-0.928-0.749-1.745c0,0,0.51-0.637,1.188,0
	c0.678,0.635,1.41,1.34,1.562,1.464s0.663,0.483,1.243,0.815c0.581,0.332,2.045,1.106,2.433,2.184
	c0.386,1.078,0.51,2.655,0.442,3.389C11.151,21.173,11.068,23,10.916,23H8.22c0,0-0.234-0.457-0.234-0.815
	c0-0.359,0.234-2.215-1.106-3.001c0,0-2.253-1.265-2.819-1.846c0,0-0.415-0.346-0.471-0.567c-0.055-0.22-0.968-1.519-1.064-1.671
	c-0.097-0.151-0.678-1.118-0.746-1.49c-0.069-0.373-0.292-2.163-0.292-2.163S1.42,10.212,1.752,9.922
	c0.332-0.29,0.635-0.277,0.884,0.083c0.249,0.359,0.332,1.491,0.346,1.601c0.014,0.111,0,0.746,0,0.746s0.442,1.009,0.581,1.175
	c0.139,0.165,0.705,1.078,0.801,1.188c0.097,0.11,0.401,0.552,0.788,0.705C5.54,15.572,5.774,15.73,6.168,15.679z"/>
<path fill="#AEAEAE" d="M17.127,15.679c0,0,0.639-1.083,1.067-1.346s1.066-0.928,0.748-1.745c0,0-0.51-0.637-1.188,0
	c-0.678,0.635-1.409,1.34-1.562,1.464s-0.663,0.483-1.244,0.815s-2.044,1.106-2.433,2.184c-0.386,1.078-0.51,2.655-0.442,3.389
	C12.144,21.173,12.227,23,12.379,23h2.696c0,0,0.233-0.457,0.233-0.815c0-0.359-0.233-2.215,1.106-3.001
	c0,0,2.253-1.265,2.819-1.846c0,0,0.415-0.346,0.471-0.567c0.054-0.22,0.967-1.519,1.063-1.671c0.097-0.151,0.678-1.118,0.746-1.49
	c0.069-0.373,0.291-2.163,0.291-2.163s0.069-1.234-0.263-1.524c-0.332-0.29-0.636-0.277-0.885,0.083
	c-0.249,0.359-0.332,1.491-0.346,1.601c-0.013,0.111,0,0.746,0,0.746s-0.441,1.009-0.58,1.175c-0.14,0.165-0.705,1.078-0.802,1.188
	c-0.097,0.11-0.401,0.552-0.788,0.705C17.755,15.572,17.521,15.73,17.127,15.679z"/>
<path fill="#FFFFFF" d="M11.869,38.232c0,0-6.344-2.902-6.862-9.08c0,0-0.042-3.13,3.255-3.752c0,0,2.053-0.415,3.607,1.721
	c0,0,1.203-1.807,3.379-1.754c0,0,3.027,0.055,3.483,3.703C18.731,29.07,18.959,34.397,11.869,38.232z"/>
<path fill="#FFFFFF" d="M6.168,38.68c0,0-0.639-1.084-1.067-1.347c-0.428-0.263-1.067-0.929-0.749-1.745c0,0,0.51-0.637,1.188,0
	c0.678,0.636,1.41,1.341,1.562,1.465c0.152,0.123,0.663,0.482,1.243,0.814c0.581,0.332,2.045,1.106,2.433,2.184
	c0.386,1.078,0.51,2.655,0.442,3.389C11.151,44.173,11.068,46,10.916,46H8.22c0,0-0.234-0.457-0.234-0.815
	c0-0.359,0.234-2.215-1.106-3.001c0,0-2.253-1.265-2.819-1.846c0,0-0.415-0.346-0.471-0.567c-0.055-0.22-0.968-1.519-1.064-1.671
	c-0.097-0.15-0.678-1.117-0.746-1.49c-0.069-0.373-0.292-2.163-0.292-2.163s-0.069-1.233,0.263-1.524
	c0.332-0.29,0.635-0.277,0.884,0.082s0.332,1.492,0.346,1.602c0.014,0.111,0,0.746,0,0.746s0.442,1.01,0.581,1.176
	c0.139,0.164,0.705,1.077,0.801,1.188c0.097,0.109,0.401,0.553,0.788,0.705C5.54,38.572,5.774,38.73,6.168,38.68z"/>
<path fill="#FFFFFF" d="M17.127,38.68c0,0,0.639-1.084,1.067-1.347s1.066-0.929,0.748-1.745c0,0-0.51-0.637-1.188,0
	c-0.678,0.636-1.409,1.341-1.562,1.465c-0.152,0.123-0.663,0.482-1.244,0.814s-2.044,1.106-2.433,2.184
	c-0.386,1.078-0.51,2.655-0.442,3.389C12.144,44.173,12.227,46,12.379,46h2.696c0,0,0.233-0.457,0.233-0.815
	c0-0.359-0.233-2.215,1.106-3.001c0,0,2.253-1.265,2.819-1.846c0,0,0.415-0.346,0.471-0.567c0.054-0.22,0.967-1.519,1.063-1.671
	c0.097-0.15,0.678-1.117,0.746-1.49c0.069-0.373,0.291-2.163,0.291-2.163s0.069-1.233-0.263-1.524
	c-0.332-0.29-0.636-0.277-0.885,0.082s-0.332,1.492-0.346,1.602c-0.013,0.111,0,0.746,0,0.746s-0.441,1.01-0.58,1.176
	c-0.14,0.164-0.705,1.077-0.802,1.188c-0.097,0.109-0.401,0.553-0.788,0.705C17.755,38.572,17.521,38.73,17.127,38.68z"/>
</svg>
