<?xml version="1.0" encoding="utf-8"?>
<!-- Generator: Adobe Illustrator 15.0.0, SVG Export Plug-In . SVG Version: 6.00 Build 0)  -->
<!DOCTYPE svg PUBLIC "-//W3C//DTD SVG 1.1//EN" "http://www.w3.org/Graphics/SVG/1.1/DTD/svg11.dtd">
<svg version="1.1" id="Layer_1" xmlns="http://www.w3.org/2000/svg" xmlns:xlink="http://www.w3.org/1999/xlink" x="0px" y="0px"
	 width="24px" height="48px" viewBox="0 0 24 48" enable-background="new 0 0 24 48" xml:space="preserve">
<path fill="#AEAEAE" d="M12.706,21.686h7.056v-7.056h-7.056V21.686z M4.235,21.686h7.055v-7.056H4.235V21.686z M12.697,8.813
	c0.69-0.079,1.473-0.164,1.929-0.213c1.848-0.21,3.512-1.874,3.719-3.722c0.209-1.846-1.139-3.178-2.97-2.968
	c-1.441,0.157-2.758,1.208-3.377,2.539c-0.611-1.33-1.934-2.382-3.374-2.546C6.776,1.696,5.446,3.029,5.656,4.875
	c0.209,1.848,1.873,3.512,3.715,3.718c0.454,0.053,1.237,0.142,1.922,0.216c-0.007,0.089,0,0.171,0,0.171h1.413
	C12.706,8.984,12.712,8.905,12.697,8.813z M15.072,3.619c0.994-0.114,1.721,0.608,1.6,1.604c-0.106,1-1.002,1.902-2.005,2.013
	c-0.996,0.114-1.731-0.612-1.607-1.608C13.173,4.631,14.077,3.729,15.072,3.619z M9.327,7.234c-0.995-0.107-1.898-1.01-2.005-2.005
	c-0.114-0.999,0.604-1.72,1.6-1.607c0.984,0.107,1.895,1.01,2.013,2.009C11.049,6.63,10.333,7.348,9.327,7.234z M12.706,8.984v4.233
	h8.466V8.984H12.706z M2.828,13.217h8.462V8.984H2.828V13.217z"/>
<path fill="#FFFFFF" d="M12.706,45.459h7.056v-7.056h-7.056V45.459z M4.235,45.459h7.055v-7.056H4.235V45.459z M12.697,32.588
	c0.69-0.079,1.473-0.164,1.929-0.214c1.848-0.21,3.512-1.874,3.719-3.722c0.209-1.846-1.139-3.178-2.97-2.969
	c-1.441,0.156-2.758,1.209-3.377,2.539c-0.611-1.33-1.934-2.383-3.374-2.547c-1.848-0.206-3.178,1.127-2.968,2.973
	c0.209,1.848,1.873,3.512,3.715,3.719c0.454,0.053,1.237,0.142,1.922,0.215c-0.007,0.09,0,0.172,0,0.172h1.413
	C12.706,32.758,12.712,32.679,12.697,32.588z M15.072,27.393c0.994-0.113,1.721,0.608,1.6,1.604c-0.106,1-1.002,1.902-2.005,2.013
	c-0.996,0.114-1.731-0.612-1.607-1.608C13.173,28.405,14.077,27.502,15.072,27.393z M9.327,31.008
	c-0.995-0.106-1.898-1.01-2.005-2.005c-0.114-0.999,0.604-1.72,1.6-1.607c0.984,0.106,1.895,1.01,2.013,2.009
	C11.049,30.404,10.333,31.122,9.327,31.008z M12.706,32.758v4.233h8.466v-4.233H12.706z M2.828,36.991h8.462v-4.233H2.828V36.991z"
	/>
</svg>
