<?xml version="1.0" encoding="utf-8"?>
<!-- Generator: Adobe Illustrator 15.0.0, SVG Export Plug-In . SVG Version: 6.00 Build 0)  -->
<!DOCTYPE svg PUBLIC "-//W3C//DTD SVG 1.1//EN" "http://www.w3.org/Graphics/SVG/1.1/DTD/svg11.dtd">
<svg version="1.1" id="Layer_1" xmlns="http://www.w3.org/2000/svg" xmlns:xlink="http://www.w3.org/1999/xlink" x="0px" y="0px"
	 width="24px" height="48px" viewBox="0 0 24 48" enable-background="new 0 0 24 48" xml:space="preserve">
<path fill="#AEAEAE" d="M17.068,4.041C13.268,4.041,12,7.067,12,7.067S10.732,4.041,6.93,4.041c-3.801,0-5.901,3.026-5.901,6.487
	C1.028,17.017,12,22.634,12,22.634s10.971-5.617,10.971-12.105C22.99,7.067,20.87,4.041,17.068,4.041z"/>
<path fill="#FFFFFF" d="M17.068,26.865c-3.801,0-5.068,3.027-5.068,3.027s-1.268-3.027-5.071-3.027
	c-3.801,0-5.901,3.027-5.901,6.488C1.028,39.842,12,45.459,12,45.459s10.971-5.617,10.971-12.105
	C22.99,29.893,20.87,26.865,17.068,26.865z"/>
</svg>
