<?xml version="1.0" encoding="utf-8"?>
<!-- Generator: Adobe Illustrator 15.0.0, SVG Export Plug-In . SVG Version: 6.00 Build 0)  -->
<!DOCTYPE svg PUBLIC "-//W3C//DTD SVG 1.1//EN" "http://www.w3.org/Graphics/SVG/1.1/DTD/svg11.dtd">
<svg version="1.1" id="Layer_1" xmlns="http://www.w3.org/2000/svg" xmlns:xlink="http://www.w3.org/1999/xlink" x="0px" y="0px"
	 width="250px" height="250px" viewBox="0 0 250 250" enable-background="new 0 0 250 250" xml:space="preserve">
<rect x="-0.5" y="0.5" fill="#F9F9F9" stroke="#FFFFFF" stroke-miterlimit="10" width="250" height="250"/>
<g>
	<path fill="#E2E0E0" d="M87.008,78.516c0,0-14.528-42.217,35.176-51.167c0,0,26.401-4.53,29.47,11.333
		c0,0,21.361,4.387,11.316,39.865c0,0,10.521,0.588,0.698,15.466c0,0-1.78,3.163-6.453,3.163c0,0-9.536,29.01-31.536,31.471
		c0,0-18.628,3.261-32.854-31.629c0,0-8.075,1.033-10.539-11.858C82.318,85.128,79.966,78.071,87.008,78.516z"/>
	<path fill="#E2E0E0" d="M149.078,128.713c-1.59,13.385-16.563,35.081-16.563,35.081l-3.228-16.786l2.336-5.068l-6.803-5.771
		l-6.962,5.643l2.21,5.135l-3.083,16.85c-6.024-3.689-16.403-35.081-16.403-35.081l-16.42,4.688c0,0-0.715,0.238-2.114,0.652
		l3.354-0.906l4.228-1.239c-0.095,0.287-9.632,28.96,0.429,57.89c0.365-0.063,0.684-0.063,1.049-0.063c5.5,0,9.95,4.481,9.95,9.98
		c0,5.5-4.451,9.981-9.95,9.981c-5.516,0-9.998-4.515-9.998-10.015c0-2.574,0.969-4.926,2.606-6.705
		c-11.364-31.506-2.829-57.287-2.383-58.719c-3.02,0.971-8.615,2.988-17.119,6.502c-13.766,5.705-15.688,31.233-15.688,31.233
		s-4.229,37.257-4.229,44.378c0,7.248,5.134,7.471,5.134,7.471s143.421,0,150.416,0c7.059,0,5.596-7.723,5.596-7.723
		s-0.891-15.008-3.814-41.201c-2.924-26.26-10.841-31.297-16.977-34.811c-3.021-1.686-11.539-4.45-19.519-6.834
		c0.029,1.43,0.571,12.984-1.146,20.535c3.783,1.59,9.664,5.088,10.777,11.508c1.303,7.629-1.238,33.635-1.525,36.56
		c-0.414,4.259-4.006,10.427-12.43,10.427c0,0-0.063-0.095-0.129-0.095c-0.188,0.095-0.381,0.159-0.635,0.159
		c-1.779,0-3.242-1.526-3.242-3.307c0-1.847,1.463-3.307,3.242-3.307c0.063,0,0.126,0,0.189,0l0,0
		c5.978,0.316,6.518-4.007,6.549-4.516c0.764-7.756,2.574-29.119,1.591-34.842c-0.827-4.959-8.267-7.217-9.045-7.438
		c-10.713-2.162-15.005,9.028-15.196,9.536c-0.095,0.255-5.992,14.497-8.662,23.238c-1.795,5.945,3.641,8.998,4.467,9.442
		c1.256,0.443,2.146,1.651,2.146,3.052c0,1.78-1.43,3.273-3.259,3.273c-0.651,0-1.208-0.223-1.731-0.539v0.063
		c-3.927-1.906-10.635-7.946-7.837-17.135c2.734-8.996,8.567-23.176,8.822-23.748c1.983-5.276,8.551-14.494,19.629-13.892
		c1.272-5.563,1.272-17.276,1.177-20.808"/>
</g>
</svg>
