<?xml version="1.0" encoding="utf-8"?>
<!-- Generator: Adobe Illustrator 15.0.0, SVG Export Plug-In . SVG Version: 6.00 Build 0)  -->
<!DOCTYPE svg PUBLIC "-//W3C//DTD SVG 1.1//EN" "http://www.w3.org/Graphics/SVG/1.1/DTD/svg11.dtd">
<svg version="1.1" id="Layer_1" xmlns="http://www.w3.org/2000/svg" xmlns:xlink="http://www.w3.org/1999/xlink" x="0px" y="0px"
	 width="250px" height="250px" viewBox="0 0 250 250" enable-background="new 0 0 250 250" xml:space="preserve">
<rect x="-0.5" y="0.5" fill="#F9F9F9" stroke="#FFFFFF" stroke-miterlimit="10" width="250" height="250"/>
<g>
	<path fill="#E2E0E0" d="M122.555,157.424v17.416c0,0,18.048-6.16,22.857-9.928c4.81-3.744,5.328-7.754,1.605-11.08
		c0,0-1.451-1.352-8.686,0C131.142,155.162,122.555,157.424,122.555,157.424z"/>
	<path fill="#E2E0E0" d="M105.292,150.51l12.021-3.324v43.432c0,0,32.132,0,35.72,7.889c0,0,2.128,12.52-3.855,12.654
		c-6.036,0.133-78.333,0-78.333,0s-2.681-10.082-0.797-13.295c1.861-3.215,24.553-6.848,35.111-7.359L105.292,150.51z"/>
	<path fill="#E2E0E0" d="M105.315,108.029v10.282l12.841-3.069v-7.9c0,0,28.343-2.538,34.9-19.921c0,0,2.946-4.675-3.091-4.675
		c-6.005,0-78.732,0-78.732,0s-3.611,0.665-1.584,4.542c1.994,3.879,9.885,17.795,35.277,19.922L105.315,108.029z"/>
	<path fill="#E2E0E0" d="M95.697,61.627l4.809,3.878c0,0-10.304,5.994-15.112,11.069c0,0-2.88,2.614-1.064-1.197
		c1.807-3.789,2.516-5.285,2.516-5.285l-6.713,2.426c0,0-1.686-0.388,0-1.54C81.782,69.837,93.149,61.96,95.697,61.627z"/>
	<path fill="#E2E0E0" d="M186.827,74.602c-5.584-29.815-39.81-32.629-57.847-35.444c-18.037-2.792-29.946,10.825-31.067,12.598
		c-1.064,1.717-0.133,3.601-0.133,3.601c6.305,12.686,30.094,9.107,33.039,8.42c2.925-0.676,16.431-2.537,16.431-2.537
		c22.338,0.764,22.869,20.552,22.869,20.552c-0.952,32.22-39.433,36.652-39.433,36.652l-29.271,6.26
		c-34.746,5.905-33.638,27.688-33.638,27.688C67.533,178.607,99,177.256,99,177.256v-18.592c-13-0.133-11.678-6.006-11.678-6.006
		c0.93-6.182,12.193-8.688,12.193-8.688l40.338-9.24C196.802,118.577,186.827,74.602,186.827,74.602z M114.888,54.226
		c0,0-3.036,0.089-3.336-1.883c0,0-0.653-2.925,6.903-4.333c0,0,4.265-0.886,4.985,2.184
		C123.44,50.194,124.472,53.451,114.888,54.226z"/>
</g>
</svg>
