<?xml version="1.0" encoding="utf-8"?>
<!-- Generator: Adobe Illustrator 15.0.0, SVG Export Plug-In . SVG Version: 6.00 Build 0)  -->
<!DOCTYPE svg PUBLIC "-//W3C//DTD SVG 1.1//EN" "http://www.w3.org/Graphics/SVG/1.1/DTD/svg11.dtd">
<svg version="1.1" id="Layer_1" xmlns="http://www.w3.org/2000/svg" xmlns:xlink="http://www.w3.org/1999/xlink" x="0px" y="0px"
	 width="250px" height="250px" viewBox="0 0 250 250" enable-background="new 0 0 250 250" xml:space="preserve">
<rect x="-0.5" y="0.5" fill="#F9F9F9" stroke="#FFFFFF" stroke-miterlimit="10" width="250" height="250"/>
<path fill="#E2E0E0" d="M60.98,46.931c0,0-1.513,17.905,13.112,31.407c14.639,13.502,71.866,56.357,72.989,89.908
	c0,0,0.904,19.172-5.401,30.428l-7.628-11.01c0,0-3.841-4.039-9.462-1.369c-5.628,2.698-25.834,12.406-25.834,12.406
	s-14.502,4.574-12.995-8.791c1.89-16.775,0-19.582,0-19.582s-3.772-1.123-6.169-2.246c-2.417-1.123-2.725-7.477-2.951-9.381
	c0,0-6.478-2.177-7.306-3.164c-0.835-0.958,2.15-3.956,1.321-7.723c-0.829-3.752-2.595-10.216-5.443-12.078
	c-2.842-1.862-12.112-2.054-12.927-2.108c-0.842-0.068-2.985-1.644-1.643-4.656c1.349-2.999,11.236-19.446,12.893-23.78
	c1.636-4.361,2.293-9.996,1.93-10.743l-1.287-1.637l-4.882,0.295c0,0,4.799-5.485,4.053-8.641
	C62.59,81.296,55.606,54.641,60.98,46.931z"/>
<path fill="#E2E0E0" d="M77.441,33.86c0,0-5.087,24.793,46.696,55.543c51.784,30.777,57.208,69.203,39.405,96.686
	c0,0-16.898,29.511-48.854,33.564c0,0,34.667-19.829,44.129-45.943c0,0,19.349-40.548-51.791-85.122
	C107.026,88.574,70.854,67.862,77.441,33.86z"/>
<path fill="#E2E0E0" d="M92.853,32.292c0,0,13.729,11.941,28.141,19.363c14.406,7.443,72.962,31.75,84.424,78.823
	c0,0,15.255,43.902-32.674,73.852c0,0,47.765-47.505,5.669-99.528c0,0-19.596-26.114-58.104-44.807
	C120.323,59.981,98.125,48.054,92.853,32.292z"/>
</svg>
