<?xml version="1.0" encoding="utf-8"?>
<!-- Generator: Adobe Illustrator 15.0.0, SVG Export Plug-In . SVG Version: 6.00 Build 0)  -->
<!DOCTYPE svg PUBLIC "-//W3C//DTD SVG 1.1//EN" "http://www.w3.org/Graphics/SVG/1.1/DTD/svg11.dtd">
<svg version="1.1" id="Layer_1" xmlns="http://www.w3.org/2000/svg" xmlns:xlink="http://www.w3.org/1999/xlink" x="0px" y="0px"
	 width="250px" height="250px" viewBox="0 0 250 250" enable-background="new 0 0 250 250" xml:space="preserve">
<rect x="-0.5" y="0.5" fill="#F9F9F9" stroke="#FFFFFF" stroke-miterlimit="10" width="250" height="250"/>
<g>
	<path fill="#E2E0E0" d="M143.393,84.45l10.155-28.717L118.363,43.3h-0.888l-24.527,69.308l35.175,12.479h0.91l7.237-20.511
		c17.558,3.665,30.259,19.251,30.259,37.321c0,20.99-17.113,38.104-38.127,38.104c-10.249,0-19.869-4.272-26.896-11.301h11.697
		V155.93H49.218V168.7h26.185c10.086,19.869,30.62,32.548,52.977,32.548c32.779,0,59.419-26.594,59.419-59.351
		C187.847,114.72,169.332,91.163,143.393,84.45z"/>
	<polygon fill="#E2E0E0" points="119.133,132.651 120.009,132.651 121.946,127.282 97.327,118.539 96.44,118.539 96.416,118.514 
		94.502,123.92 119.133,132.651 121.071,127.234 121.071,127.282 	"/>
	<polygon fill="#E2E0E0" points="143.368,49.476 150.466,29.245 135.793,24.131 134.905,24.131 127.808,44.281 142.481,49.476 	"/>
	<polygon fill="#E2E0E0" points="104.215,202.835 104.215,211.381 159.665,211.381 160.552,211.381 160.552,202.835 
		159.665,202.835 	"/>
</g>
</svg>
