<?xml version="1.0" encoding="utf-8"?>
<!-- Generator: Adobe Illustrator 15.0.0, SVG Export Plug-In . SVG Version: 6.00 Build 0)  -->
<!DOCTYPE svg PUBLIC "-//W3C//DTD SVG 1.1//EN" "http://www.w3.org/Graphics/SVG/1.1/DTD/svg11.dtd">
<svg version="1.1" id="Layer_1" xmlns="http://www.w3.org/2000/svg" xmlns:xlink="http://www.w3.org/1999/xlink" x="0px" y="0px"
	 width="250px" height="250px" viewBox="0 0 250 250" enable-background="new 0 0 250 250" xml:space="preserve">
<rect x="-0.5" y="0.5" fill="#F9F9F9" stroke="#FFFFFF" stroke-miterlimit="10" width="250" height="250"/>
<path fill="#E2E0E0" d="M201.668,78.521h-32.456V40.772c0-4.854-4.262-8.819-9.54-8.819H94.816c-5.291,0-9.538,3.965-9.538,8.819
	v37.776H52.822c-5.292,0-9.567,4.275-9.567,9.525v105.948c0,5.306,4.275,9.538,9.567,9.538h42.446l-0.452-28.617h63.444
	l0.227,28.617h43.181c5.277,0,9.539-4.232,9.539-9.538V88.045C211.207,82.824,206.945,78.521,201.668,78.521z M92.349,152.025
	H69.813v-23.339h22.536V152.025z M92.349,120.614H69.813V97.246h22.536V120.614z M110.354,57.354h10.837V45.274h12.08v12.051h10.88
	v10.866h-10.88v12.051h-12.08V68.233h-10.837V57.354z M123.774,152.025h-22.551v-23.339h22.551V152.025z M123.774,120.614h-22.551
	V97.246h22.551V120.614z M154.366,152.025h-22.534v-23.339h22.534V152.025z M154.366,120.614h-22.534V97.246h22.534V120.614z
	 M184.96,152.025h-22.521v-23.339h22.521V152.025z M184.96,120.614h-22.521V97.246h22.521V120.614z"/>
</svg>
