<?xml version="1.0" encoding="utf-8"?>
<!-- Generator: Adobe Illustrator 15.0.0, SVG Export Plug-In . SVG Version: 6.00 Build 0)  -->
<!DOCTYPE svg PUBLIC "-//W3C//DTD SVG 1.1//EN" "http://www.w3.org/Graphics/SVG/1.1/DTD/svg11.dtd">
<svg version="1.1" id="Layer_1" xmlns="http://www.w3.org/2000/svg" xmlns:xlink="http://www.w3.org/1999/xlink" x="0px" y="0px"
	 width="250px" height="250px" viewBox="0 0 250 250" enable-background="new 0 0 250 250" xml:space="preserve">
<rect x="-0.5" y="0.5" fill="#F9F9F9" stroke="#FFFFFF" stroke-miterlimit="10" width="250" height="250"/>
<path fill="#E2E0E0" d="M130.671,212.882h61.952v-62.004h-61.952V212.882z M56.273,212.882h62.004v-62.004H56.273V212.882z
	 M130.602,99.802c6.04-0.716,12.9-1.467,16.949-1.938c16.234-1.85,30.863-16.443,32.644-32.678
	c1.851-16.182-9.95-27.912-26.079-26.097c-12.639,1.501-24.194,10.701-29.623,22.344c-5.359-11.643-16.985-20.842-29.676-22.344
	c-16.27-1.815-27.912,9.915-26.062,26.097c1.868,16.234,16.479,30.828,32.678,32.678c3.997,0.437,10.875,1.152,16.88,1.868
	c-0.07,0.821,0,1.536,0,1.536h12.394C130.671,101.303,130.741,100.552,130.602,99.802z M151.461,54.137
	c8.729-0.925,15.152,5.376,14.07,14.174c-0.943,8.711-8.833,16.653-17.631,17.579c-8.729,0.995-15.152-5.29-14.104-14.017
	C134.791,63.039,142.733,55.149,151.461,54.137z M100.996,85.924c-8.711-0.96-16.653-8.833-17.613-17.648
	c-0.978-8.763,5.289-15.134,14.053-14.087c8.675,0.925,16.652,8.85,17.683,17.648C116.096,80.6,109.828,87.006,100.996,85.924z
	 M130.671,101.303v37.182h74.415v-37.182H130.671z M43.914,138.484h74.293v-37.182H43.914V138.484z"/>
</svg>
