<?xml version="1.0" encoding="utf-8"?>
<!-- Generator: Adobe Illustrator 15.0.0, SVG Export Plug-In . SVG Version: 6.00 Build 0)  -->
<!DOCTYPE svg PUBLIC "-//W3C//DTD SVG 1.1//EN" "http://www.w3.org/Graphics/SVG/1.1/DTD/svg11.dtd">
<svg version="1.1" id="Layer_1" xmlns="http://www.w3.org/2000/svg" xmlns:xlink="http://www.w3.org/1999/xlink" x="0px" y="0px"
	 width="50px" height="50px" viewBox="0 0 50 50" enable-background="new 0 0 50 50" xml:space="preserve">
<path opacity="0.13" fill="#0E0E0E" d="M33.083,46.042c0,1.538-3.205,2.785-7.161,2.785c-3.953,0-7.158-1.247-7.158-2.785
	c0-1.545,3.205-2.792,7.158-2.792C29.878,43.25,33.083,44.497,33.083,46.042z"/>
<linearGradient id="SVGID_1_" gradientUnits="userSpaceOnUse" x1="21.5435" y1="2.1191" x2="33.7611" y2="42.0813">
	<stop  offset="0" style="stop-color:#F7118F"/>
	<stop  offset="0.2233" style="stop-color:#F4118B"/>
	<stop  offset="0.4316" style="stop-color:#EB1180"/>
	<stop  offset="0.6341" style="stop-color:#DB106D"/>
	<stop  offset="0.8316" style="stop-color:#C51053"/>
	<stop  offset="1" style="stop-color:#AD0F36"/>
</linearGradient>
<path fill="url(#SVGID_1_)" d="M38.614,14.753c0,5.158-2.956,9.625-7.265,11.799c-1.787,0.9-5.943,18.082-5.943,18.082
	s-4.21-17.195-6.014-18.119c-4.271-2.187-7.195-6.633-7.195-11.762c0-7.295,5.914-13.208,13.209-13.208S38.614,7.458,38.614,14.753z
	"/>
<path fill="#FFFFFF" d="M18.437,6.41c0,0-0.157,1.851,1.356,3.249c1.514,1.397,7.432,5.827,7.548,9.297c0,0,0.094,1.981-0.558,3.146
	l-0.79-1.139c0,0-0.396-0.418-0.979-0.139s-2.672,1.281-2.672,1.281s-1.5,0.474-1.344-0.907c0.196-1.736,0-2.026,0-2.026
	s-0.39-0.117-0.638-0.233c-0.249-0.116-0.282-0.774-0.305-0.969c0,0-0.67-0.226-0.755-0.328c-0.086-0.101,0.222-0.409,0.136-0.797
	c-0.085-0.389-0.268-1.056-0.563-1.25c-0.295-0.194-1.252-0.211-1.338-0.219s-0.309-0.171-0.168-0.482
	c0.139-0.31,1.161-2.01,1.332-2.46c0.17-0.45,0.239-1.033,0.2-1.11l-0.133-0.171l-0.505,0.031c0,0,0.496-0.567,0.419-0.893
	C18.604,9.965,17.882,7.209,18.437,6.41z"/>
<path fill="#FFFFFF" d="M20.141,5.059c0,0-0.527,2.562,4.829,5.744c5.356,3.182,5.916,7.156,4.075,9.998c0,0-1.746,3.05-5.052,3.47
	c0,0,3.585-2.049,4.564-4.751c0,0,2.002-4.191-5.356-8.802C23.2,10.718,19.458,8.576,20.141,5.059z"/>
<path fill="#FFFFFF" d="M21.732,4.896c0,0,1.42,1.234,2.911,2.002c1.489,0.769,7.545,3.283,8.731,8.15c0,0,1.577,4.541-3.38,7.638
	c0,0,4.939-4.914,0.586-10.292c0,0-2.025-2.701-6.008-4.633C24.573,7.761,22.279,6.526,21.732,4.896z"/>
</svg>
