<?xml version="1.0" encoding="utf-8"?>
<!-- Generator: Adobe Illustrator 15.0.0, SVG Export Plug-In . SVG Version: 6.00 Build 0)  -->
<!DOCTYPE svg PUBLIC "-//W3C//DTD SVG 1.1//EN" "http://www.w3.org/Graphics/SVG/1.1/DTD/svg11.dtd">
<svg version="1.1" id="Layer_1" xmlns="http://www.w3.org/2000/svg" xmlns:xlink="http://www.w3.org/1999/xlink" x="0px" y="0px"
	 width="50px" height="50px" viewBox="0 0 50 50" enable-background="new 0 0 50 50" xml:space="preserve">
<path opacity="0.13" fill="#0E0E0E" enable-background="new    " d="M33.083,45.042c0,1.538-3.205,2.785-7.161,2.785
	c-3.953,0-7.158-1.247-7.158-2.785c0-1.545,3.205-2.792,7.158-2.792C29.878,42.25,33.083,43.497,33.083,45.042z"/>
<linearGradient id="SVGID_1_" gradientUnits="userSpaceOnUse" x1="27.9258" y1="0.7852" x2="19.8082" y2="42.5465">
	<stop  offset="0" style="stop-color:#63BFCE"/>
	<stop  offset="0.8858" style="stop-color:#63B5C4"/>
	<stop  offset="1" style="stop-color:#63B3C2"/>
</linearGradient>
<path fill="url(#SVGID_1_)" d="M38.613,13.753c0,5.158-2.955,9.625-7.264,11.8c-1.787,0.899-5.944,18.082-5.944,18.082
	s-4.21-17.195-6.014-18.119c-4.271-2.188-7.195-6.634-7.195-11.763c0-7.295,5.914-13.208,13.209-13.208
	C32.701,0.545,38.613,6.458,38.613,13.753z"/>
<linearGradient id="SVGID_2_" gradientUnits="userSpaceOnUse" x1="316.3525" y1="1018.0439" x2="313.0317" y2="1035.1281" gradientTransform="matrix(1 0 0 1 -289.3599 -1013.6406)">
	<stop  offset="0" style="stop-color:#FFFFFF"/>
	<stop  offset="1" style="stop-color:#F4F4F4"/>
</linearGradient>
<path fill="url(#SVGID_2_)" d="M31.846,8.9h-2.982V5.427c0-0.448-0.393-0.813-0.877-0.813h-5.969c-0.485,0-0.877,0.363-0.877,0.813
	V8.9h-2.986c-0.485,0-0.877,0.394-0.877,0.878v9.744c0,0.484,0.393,0.877,0.877,0.877h3.905l-0.043-2.633h5.837l0.021,2.633h3.971
	c0.485,0,0.879-0.393,0.879-0.877V9.779C32.725,9.294,32.331,8.9,31.846,8.9z M21.791,15.661h-2.073v-2.148h2.073V15.661z
	 M21.791,12.771h-2.073v-2.148h2.073V12.771z M23.447,6.953h0.997V5.844h1.111v1.109h1v0.999h-1v1.109h-1.111V7.952h-0.997V6.953z
	 M24.679,15.661h-2.074v-2.148h2.074V15.661z M24.679,12.771h-2.074v-2.148h2.074V12.771z M27.495,15.661h-2.074v-2.148h2.074
	V15.661z M27.495,12.771h-2.074v-2.148h2.074V12.771z M30.311,15.661h-2.074v-2.148h2.074V15.661z M30.311,12.771h-2.074v-2.148
	h2.074V12.771z"/>
</svg>
