<?xml version="1.0" encoding="utf-8"?>
<!-- Generator: Adobe Illustrator 15.0.0, SVG Export Plug-In . SVG Version: 6.00 Build 0)  -->
<!DOCTYPE svg PUBLIC "-//W3C//DTD SVG 1.1//EN" "http://www.w3.org/Graphics/SVG/1.1/DTD/svg11.dtd">
<svg version="1.1" id="Layer_1" xmlns="http://www.w3.org/2000/svg" xmlns:xlink="http://www.w3.org/1999/xlink" x="0px" y="0px"
	 width="50px" height="50px" viewBox="0 0 50 50" enable-background="new 0 0 50 50" xml:space="preserve">
<path opacity="0.13" fill="#0E0E0E" enable-background="new    " d="M32.678,46.042c0,1.538-3.205,2.785-7.161,2.785
	c-3.953,0-7.158-1.247-7.158-2.785c0-1.545,3.205-2.792,7.158-2.792C29.473,43.25,32.678,44.497,32.678,46.042z"/>
<linearGradient id="SVGID_1_" gradientUnits="userSpaceOnUse" x1="583.1377" y1="743.1182" x2="595.355" y2="783.0794" gradientTransform="matrix(1 0 0 1 -562 -741)">
	<stop  offset="0" style="stop-color:#8CC63F"/>
	<stop  offset="1" style="stop-color:#269C38"/>
</linearGradient>
<path fill="url(#SVGID_1_)" d="M38.208,14.753c0,5.158-2.955,9.625-7.264,11.799c-1.787,0.9-5.943,18.082-5.943,18.082
	s-4.211-17.194-6.014-18.118c-4.271-2.188-7.195-6.634-7.195-11.763c0-7.295,5.914-13.208,13.209-13.208S38.208,7.458,38.208,14.753
	z"/>
<linearGradient id="SVGID_2_" gradientUnits="userSpaceOnUse" x1="588.5859" y1="746.4043" x2="585.2653" y2="763.4874" gradientTransform="matrix(1 0 0 1 -562 -741)">
	<stop  offset="0" style="stop-color:#FFFFFF"/>
	<stop  offset="1" style="stop-color:#F4F4F4"/>
</linearGradient>
<path fill="url(#SVGID_2_)" d="M31.44,9.9h-2.982V6.427c0-0.448-0.393-0.812-0.877-0.812h-5.969c-0.485,0-0.877,0.363-0.877,0.812
	V9.9h-2.986c-0.485,0-0.877,0.394-0.877,0.877v9.744c0,0.484,0.393,0.877,0.877,0.877h3.904l-0.043-2.633h5.838l0.021,2.633h3.971
	c0.485,0,0.879-0.393,0.879-0.877v-9.742C32.319,10.294,31.926,9.9,31.44,9.9z M21.386,16.661h-2.073v-2.147h2.073V16.661z
	 M21.386,13.771h-2.073v-2.148h2.073V13.771z M23.042,7.953h0.996V6.844h1.111v1.109h1v0.999h-1v1.108h-1.111V8.952h-0.996V7.953z
	 M24.274,16.661H22.2v-2.147h2.074V16.661z M24.274,13.771H22.2v-2.148h2.074V13.771z M27.09,16.661h-2.074v-2.147h2.074V16.661z
	 M27.09,13.771h-2.074v-2.148h2.074V13.771z M29.905,16.661h-2.074v-2.147h2.074V16.661z M29.905,13.771h-2.074v-2.148h2.074V13.771
	z"/>
<circle fill="#FFFFFF" stroke="#D81212" stroke-width="0.25" stroke-miterlimit="10" cx="40.023" cy="8.977" r="6.531"/>
<g>
	<path fill="#D81212" d="M39.875,11.591h-4.092v-0.799l1.889-2.136c0.281-0.332,0.482-0.613,0.602-0.843
		c0.117-0.23,0.179-0.442,0.179-0.635c0-0.251-0.063-0.452-0.188-0.603c-0.125-0.151-0.314-0.227-0.564-0.227
		c-0.266,0-0.471,0.097-0.615,0.289c-0.146,0.193-0.219,0.437-0.219,0.733h-1.189l-0.008-0.025c-0.014-0.542,0.164-1,0.537-1.375
		c0.371-0.375,0.869-0.563,1.494-0.563s1.111,0.16,1.457,0.479c0.346,0.319,0.52,0.749,0.52,1.288c0,0.366-0.098,0.699-0.291,1
		c-0.195,0.302-0.529,0.719-1.004,1.252l-1.004,1.206l0.008,0.021h2.492v0.938H39.875z"/>
	<path fill="#D81212" d="M44.213,9.322h0.686v0.947h-0.686v1.322H42.99v-1.322h-2.484l-0.059-0.733l2.529-4.041h1.235L44.213,9.322
		L44.213,9.322z M41.557,9.322h1.435V7.107l-0.025-0.004l-0.127,0.272L41.557,9.322z"/>
</g>
<circle fill="#FFFFFF" stroke="#FF6A29" stroke-width="0.25" stroke-miterlimit="10" cx="9.976" cy="8.976" r="6.531"/>
<path fill="#DB410B" d="M10.244,12.467h2.666V9.801h-2.666V12.467z M7.042,12.467h2.666V9.801H7.042V12.467z M10.244,7.603
	c0.256-0.029,0.555-0.062,0.728-0.083c0.696-0.078,1.326-0.706,1.401-1.405c0.082-0.696-0.426-1.202-1.119-1.122
	c-0.545,0.062-1.045,0.459-1.277,0.96c-0.232-0.501-0.732-0.898-1.273-0.96C8.001,4.913,7.501,5.418,7.58,6.115
	C7.658,6.813,8.289,7.442,8.984,7.52C9.156,7.539,9.453,7.57,9.71,7.601c-0.004,0.035,0,0.064,0,0.064h0.533
	C10.244,7.667,10.246,7.634,10.244,7.603z M11.139,5.639c0.374-0.043,0.647,0.231,0.603,0.607c-0.039,0.376-0.379,0.717-0.757,0.758
	c-0.376,0.043-0.653-0.228-0.608-0.605C10.421,6.021,10.762,5.682,11.139,5.639z M8.966,7.005c-0.377-0.04-0.717-0.382-0.758-0.76
	C8.166,5.87,8.437,5.596,8.812,5.642c0.375,0.041,0.717,0.382,0.762,0.757C9.617,6.776,9.346,7.05,8.966,7.005z M10.244,7.667v1.599
	h3.199V7.667H10.244z M6.509,9.267h3.199v-1.6H6.509V9.267z"/>
</svg>
