<?xml version="1.0" encoding="utf-8"?>
<!-- Generator: Adobe Illustrator 15.0.0, SVG Export Plug-In . SVG Version: 6.00 Build 0)  -->
<!DOCTYPE svg PUBLIC "-//W3C//DTD SVG 1.1//EN" "http://www.w3.org/Graphics/SVG/1.1/DTD/svg11.dtd">
<svg version="1.1" id="Layer_1" xmlns="http://www.w3.org/2000/svg" xmlns:xlink="http://www.w3.org/1999/xlink" x="0px" y="0px"
	 width="50px" height="50px" viewBox="0 0 50 50" enable-background="new 0 0 50 50" xml:space="preserve">
<circle fill="#FFFFFF" stroke="#FF6A29" stroke-width="0.25" stroke-miterlimit="10" cx="37.877" cy="9.173" r="6.531"/>
<path fill="#FF6A29" d="M38.145,12.664h2.666V9.998h-2.666V12.664z M34.943,12.664h2.666V9.998h-2.666V12.664z M38.145,7.799
	C38.4,7.77,38.7,7.737,38.873,7.716c0.695-0.078,1.326-0.706,1.4-1.405c0.082-0.696-0.426-1.202-1.119-1.122
	c-0.545,0.062-1.045,0.459-1.276,0.96c-0.231-0.501-0.731-0.898-1.272-0.96c-0.701-0.08-1.201,0.426-1.123,1.122
	c0.078,0.699,0.709,1.328,1.404,1.405c0.172,0.019,0.469,0.051,0.727,0.081c-0.004,0.035,0,0.064,0,0.064h0.533
	C38.145,7.864,38.146,7.831,38.145,7.799z M39.04,5.835c0.374-0.043,0.647,0.231,0.603,0.607c-0.039,0.376-0.379,0.717-0.756,0.758
	c-0.377,0.043-0.654-0.228-0.609-0.605C38.322,6.217,38.663,5.878,39.04,5.835z M36.867,7.202c-0.377-0.04-0.717-0.382-0.758-0.76
	c-0.043-0.376,0.229-0.65,0.604-0.604c0.375,0.041,0.717,0.382,0.762,0.757C37.518,6.973,37.247,7.247,36.867,7.202z M38.145,7.864
	v1.599h3.199V7.864H38.145z M34.41,9.463h3.199V7.864H34.41V9.463z"/>
<path opacity="0.13" fill="#0E0E0E" enable-background="new    " d="M23.237,47.139c0,1.539-3.205,2.785-7.161,2.785
	c-3.953,0-7.158-1.246-7.158-2.785c0-1.545,3.205-2.791,7.158-2.791C20.032,44.348,23.237,45.594,23.237,47.139z"/>
<linearGradient id="SVGID_1_" gradientUnits="userSpaceOnUse" x1="573.6963" y1="744.2158" x2="585.9133" y2="784.1761" gradientTransform="matrix(1 0 0 1 -562 -741)">
	<stop  offset="0" style="stop-color:#8CC63F"/>
	<stop  offset="1" style="stop-color:#269C38"/>
</linearGradient>
<path fill="url(#SVGID_1_)" d="M28.768,15.85c0,5.158-2.955,9.625-7.264,11.798c-1.787,0.9-5.943,18.082-5.943,18.082
	s-4.211-17.193-6.014-18.117c-4.271-2.188-7.195-6.634-7.195-11.763c0-7.295,5.914-13.208,13.209-13.208S28.768,8.555,28.768,15.85z
	"/>
<linearGradient id="SVGID_2_" gradientUnits="userSpaceOnUse" x1="579.1465" y1="747.502" x2="575.8259" y2="764.585" gradientTransform="matrix(1 0 0 1 -562 -741)">
	<stop  offset="0" style="stop-color:#FFFFFF"/>
	<stop  offset="1" style="stop-color:#F4F4F4"/>
</linearGradient>
<path fill="url(#SVGID_2_)" d="M22,10.998h-2.982V7.524c0-0.448-0.393-0.812-0.877-0.812h-5.969c-0.485,0-0.877,0.363-0.877,0.812
	v3.474H8.308c-0.485,0-0.877,0.394-0.877,0.877v9.744c0,0.484,0.393,0.877,0.877,0.877h3.904l-0.043-2.633h5.838l0.021,2.633H22
	c0.485,0,0.879-0.393,0.879-0.877v-9.742C22.878,11.391,22.485,10.998,22,10.998z M11.945,17.758H9.872v-2.147h2.073V17.758z
	 M11.945,14.869H9.872V12.72h2.073V14.869z M13.601,9.05h0.996V7.941h1.111V9.05h1v0.999h-1v1.108h-1.111v-1.108h-0.996V9.05z
	 M14.833,17.758h-2.074v-2.147h2.074V17.758z M14.833,14.869h-2.074V12.72h2.074V14.869z M17.649,17.758h-2.074v-2.147h2.074V17.758
	z M17.649,14.869h-2.074V12.72h2.074V14.869z M20.464,17.758H18.39v-2.147h2.074V17.758z M20.464,14.869H18.39V12.72h2.074V14.869z"
	/>
</svg>
