<?xml version="1.0" encoding="utf-8"?>
<!-- Generator: Adobe Illustrator 15.0.0, SVG Export Plug-In . SVG Version: 6.00 Build 0)  -->
<!DOCTYPE svg PUBLIC "-//W3C//DTD SVG 1.1//EN" "http://www.w3.org/Graphics/SVG/1.1/DTD/svg11.dtd">
<svg version="1.1" id="Layer_1" xmlns="http://www.w3.org/2000/svg" xmlns:xlink="http://www.w3.org/1999/xlink" x="0px" y="0px"
	 width="50px" height="50px" viewBox="0 0 50 50" enable-background="new 0 0 50 50" xml:space="preserve">
<path opacity="0.13" fill="#0E0E0E" enable-background="new    " d="M26.441,46.542c0,1.538-3.206,2.785-7.161,2.785
	c-3.953,0-7.158-1.247-7.158-2.785c0-1.545,3.205-2.792,7.158-2.792C23.237,43.75,26.441,44.997,26.441,46.542z"/>
<linearGradient id="SVGID_1_" gradientUnits="userSpaceOnUse" x1="21.2856" y1="2.2856" x2="13.1682" y2="44.0465">
	<stop  offset="0" style="stop-color:#63BFCE"/>
	<stop  offset="0.8858" style="stop-color:#63B5C4"/>
	<stop  offset="1" style="stop-color:#63B3C2"/>
</linearGradient>
<path fill="url(#SVGID_1_)" d="M31.974,15.253c0,5.159-2.955,9.625-7.264,11.799c-1.787,0.9-5.943,18.082-5.943,18.082
	s-4.21-17.195-6.015-18.119c-4.271-2.188-7.195-6.633-7.195-11.762c0-7.295,5.914-13.208,13.21-13.208
	C26.062,2.045,31.974,7.958,31.974,15.253z"/>
<linearGradient id="SVGID_2_" gradientUnits="userSpaceOnUse" x1="590.7109" y1="-795.5439" x2="587.3901" y2="-812.6285" gradientTransform="matrix(1 0 0 -1 -570.3594 -789.6406)">
	<stop  offset="0" style="stop-color:#FFFFFF"/>
	<stop  offset="1" style="stop-color:#F4F4F4"/>
</linearGradient>
<path fill="url(#SVGID_2_)" d="M25.205,10.4h-2.983V6.927c0-0.448-0.393-0.813-0.877-0.813h-5.969c-0.485,0-0.877,0.363-0.877,0.813
	V10.4h-2.986c-0.485,0-0.877,0.394-0.877,0.878v9.744c0,0.484,0.393,0.877,0.877,0.877h3.905l-0.043-2.633h5.837l0.022,2.633h3.971
	c0.484,0,0.878-0.393,0.878-0.877v-9.744C26.083,10.794,25.689,10.4,25.205,10.4z M15.15,17.161h-2.073v-2.148h2.073V17.161z
	 M15.15,14.271h-2.073v-2.148h2.073V14.271z M16.806,8.453h0.997V7.344h1.111v1.109h0.999v0.999h-0.999v1.109h-1.111V9.452h-0.997
	V8.453z M18.039,17.161h-2.074v-2.148h2.074V17.161z M18.039,14.271h-2.074v-2.148h2.074V14.271z M20.854,17.161H18.78v-2.148h2.074
	V17.161z M20.854,14.271H18.78v-2.148h2.074V14.271z M23.67,17.161h-2.074v-2.148h2.074V17.161z M23.67,14.271h-2.074v-2.148h2.074
	V14.271z"/>
<circle fill="#FFFFFF" stroke="#D81212" stroke-width="0.25" stroke-miterlimit="10" cx="32.396" cy="7.476" r="6.531"/>
<g>
	<path fill="#D81212" d="M32.247,10.09h-4.091V9.292l1.889-2.136c0.281-0.332,0.48-0.613,0.602-0.843
		c0.117-0.231,0.179-0.442,0.179-0.635c0-0.251-0.063-0.452-0.188-0.603c-0.125-0.151-0.313-0.227-0.563-0.227
		c-0.267,0-0.472,0.097-0.615,0.289C29.313,5.33,29.24,5.574,29.24,5.87h-1.188l-0.01-0.025c-0.016-0.542,0.164-1,0.536-1.375
		c0.371-0.375,0.869-0.563,1.494-0.563s1.11,0.16,1.456,0.479c0.349,0.319,0.521,0.749,0.521,1.288c0,0.366-0.097,0.699-0.291,1
		c-0.192,0.302-0.526,0.719-1.002,1.252L29.75,9.131l0.01,0.021h2.49L32.247,10.09L32.247,10.09z"/>
	<path fill="#D81212" d="M36.586,7.821h0.688v0.947h-0.688v1.322h-1.225V8.769h-2.482L32.82,8.036l2.529-4.041h1.232v3.827
		L36.586,7.821L36.586,7.821z M33.93,7.821h1.434V5.606l-0.024-0.004l-0.127,0.272L33.93,7.821z"/>
</g>
</svg>
