<?xml version="1.0" encoding="utf-8"?>
<!-- Generator: Adobe Illustrator 15.0.0, SVG Export Plug-In . SVG Version: 6.00 Build 0)  -->
<!DOCTYPE svg PUBLIC "-//W3C//DTD SVG 1.1//EN" "http://www.w3.org/Graphics/SVG/1.1/DTD/svg11.dtd">
<svg version="1.1" id="Layer_1" xmlns="http://www.w3.org/2000/svg" xmlns:xlink="http://www.w3.org/1999/xlink" x="0px" y="0px"
	 width="50px" height="50px" viewBox="0 0 50 50" enable-background="new 0 0 50 50" xml:space="preserve">
<path opacity="0.13" fill="#0E0E0E" enable-background="new    " d="M26.061,45.27c0,1.537-3.205,2.785-7.161,2.785
	c-3.953,0-7.158-1.248-7.158-2.785c0-1.545,3.205-2.793,7.158-2.793C22.856,42.477,26.061,43.725,26.061,45.27z"/>
<linearGradient id="SVGID_1_" gradientUnits="userSpaceOnUse" x1="595.3857" y1="758.75" x2="607.6035" y2="798.7121" gradientTransform="matrix(1 0 0 1 -581 -756)">
	<stop  offset="0" style="stop-color:#009FCD"/>
	<stop  offset="1" style="stop-color:#007087"/>
</linearGradient>
<path fill="url(#SVGID_1_)" d="M31.457,15.384c0,5.158-2.957,9.625-7.265,11.8c-1.787,0.899-5.944,18.082-5.944,18.082
	s-4.209-17.195-6.013-18.119C7.963,24.959,5.04,20.513,5.04,15.384c0-7.295,5.914-13.208,13.208-13.208
	C25.543,2.176,31.457,8.089,31.457,15.384z"/>
<g>
	<path fill="#FFFFFF" d="M16.271,19.458v2.119c0,0-3.627,0.152-3.597-2.834c0,0-0.167-2.484,3.795-3.155l3.336-0.715
		c0,0,4.39-0.504,4.496-4.176c0,0-0.062-2.255-2.604-2.346c0,0-1.541,0.212-1.875,0.289c-0.336,0.076-3.048,0.488-3.765-0.96
		c0,0-0.106-0.213,0.016-0.411c0.122-0.199,1.478-1.753,3.535-1.433c2.058,0.32,5.958,0.64,6.6,4.038c0,0,1.144,5.014-5.349,6.857
		l-4.587,1.052c0,0-1.266,0.29-1.372,0.99C14.898,18.772,14.806,19.443,16.271,19.458z"/>
	<path fill="#FFFFFF" d="M18.877,19.316v1.981c0,0,2.057-0.701,2.605-1.128c0.549-0.426,0.608-0.883,0.183-1.264
		c0,0-0.166-0.152-0.99,0C19.853,19.057,18.877,19.316,18.877,19.316z"/>
	<path fill="#FFFFFF" d="M16.905,18.528l1.371-0.38v4.953c0,0,3.662,0,4.073,0.898c0,0,0.242,1.425-0.44,1.44
		c-0.688,0.016-8.929,0-8.929,0s-0.305-1.15-0.092-1.517c0.213-0.365,2.799-0.777,4.002-0.839L16.905,18.528z"/>
	<path fill="#FFFFFF" d="M16.909,13.684v1.172l1.464-0.351v-0.899c0,0,3.23-0.29,3.978-2.271c0,0,0.335-0.534-0.352-0.534
		s-8.976,0-8.976,0s-0.412,0.077-0.182,0.519c0.229,0.442,1.127,2.027,4.023,2.271L16.909,13.684z"/>
	<path fill="#FFFFFF" d="M15.813,8.395l0.549,0.442c0,0-1.174,0.686-1.722,1.265c0,0-0.328,0.297-0.122-0.137
		c0.206-0.434,0.289-0.603,0.289-0.603l-0.769,0.275c0,0-0.191-0.046,0-0.176C14.229,9.332,15.523,8.433,15.813,8.395z"/>
	
		<linearGradient id="SVGID_2_" gradientUnits="userSpaceOnUse" x1="598.6191" y1="763.1914" x2="599.9805" y2="763.1914" gradientTransform="matrix(1 0 0 1 -581 -756)">
		<stop  offset="0" style="stop-color:#009FCD"/>
		<stop  offset="1" style="stop-color:#007087"/>
	</linearGradient>
	<path fill="url(#SVGID_2_)" d="M17.621,7.339c0,0-0.075-0.335,0.785-0.496c0,0,0.488-0.099,0.571,0.248c0,0,0.115,0.37-0.975,0.461
		C18.003,7.552,17.653,7.56,17.621,7.339z"/>
</g>
<circle fill="#FFFFFF" stroke="#D81212" stroke-width="0.25" stroke-miterlimit="10" cx="33.014" cy="7.552" r="6.531"/>
<g>
	<path fill="#D81212" d="M32.863,10.167h-4.092v-0.8l1.889-2.136c0.282-0.332,0.482-0.613,0.602-0.843s0.178-0.442,0.178-0.635
		c0-0.251-0.063-0.452-0.188-0.603c-0.126-0.151-0.314-0.227-0.564-0.227c-0.266,0-0.471,0.097-0.615,0.289
		c-0.146,0.193-0.219,0.437-0.219,0.733h-1.188L28.657,5.92c-0.015-0.542,0.164-1,0.536-1.375c0.371-0.375,0.869-0.563,1.494-0.563
		s1.111,0.16,1.457,0.479c0.347,0.319,0.52,0.749,0.52,1.288c0,0.366-0.097,0.699-0.291,1c-0.193,0.302-0.527,0.719-1.003,1.252
		l-1.005,1.206l0.009,0.021h2.491v0.939H32.863z"/>
	<path fill="#D81212" d="M37.201,7.898h0.688v0.946h-0.688v1.323h-1.223V8.844h-2.483l-0.06-0.733l2.529-4.041H37.2L37.201,7.898
		L37.201,7.898z M34.547,7.898h1.432V5.683l-0.024-0.004l-0.126,0.272L34.547,7.898z"/>
</g>
</svg>
