<?xml version="1.0" encoding="utf-8"?>
<!-- Generator: Adobe Illustrator 15.0.0, SVG Export Plug-In . SVG Version: 6.00 Build 0)  -->
<!DOCTYPE svg PUBLIC "-//W3C//DTD SVG 1.1//EN" "http://www.w3.org/Graphics/SVG/1.1/DTD/svg11.dtd">
<svg version="1.1" id="Layer_1" xmlns="http://www.w3.org/2000/svg" xmlns:xlink="http://www.w3.org/1999/xlink" x="0px" y="0px"
	 width="50px" height="50px" viewBox="0 0 50 50" enable-background="new 0 0 50 50" xml:space="preserve">
<path opacity="0.13" fill="#0E0E0E" enable-background="new    " d="M31.583,45.542c0,1.538-3.205,2.785-7.161,2.785
	c-3.953,0-7.158-1.247-7.158-2.785c0-1.545,3.205-2.792,7.158-2.792C28.378,42.75,31.583,43.997,31.583,45.542z"/>
<linearGradient id="SVGID_1_" gradientUnits="userSpaceOnUse" x1="19.9087" y1="3.0229" x2="32.1263" y2="42.9851">
	<stop  offset="0" style="stop-color:#009FCD"/>
	<stop  offset="1" style="stop-color:#007087"/>
</linearGradient>
<path fill="url(#SVGID_1_)" d="M36.979,15.657c0,5.158-2.956,9.625-7.265,11.8c-1.787,0.9-5.944,18.082-5.944,18.082
	s-4.209-17.195-6.013-18.119c-4.271-2.187-7.195-6.633-7.195-11.763c0-7.295,5.914-13.208,13.208-13.208
	C31.066,2.449,36.979,8.362,36.979,15.657z"/>
<g>
	<path fill="#FFFFFF" d="M21.793,19.73v2.119c0,0-3.627,0.152-3.597-2.834c0,0-0.167-2.484,3.795-3.155l3.336-0.715
		c0,0,4.389-0.504,4.496-4.176c0,0-0.062-2.255-2.605-2.346c0,0-1.54,0.212-1.874,0.289c-0.336,0.076-3.048,0.488-3.765-0.96
		c0,0-0.106-0.213,0.016-0.411c0.122-0.199,1.478-1.753,3.535-1.433c2.058,0.32,5.959,0.64,6.599,4.038c0,0,1.144,5.014-5.348,6.857
		l-4.588,1.052c0,0-1.266,0.29-1.372,0.99C20.421,19.045,20.33,19.716,21.793,19.73z"/>
	<path fill="#FFFFFF" d="M24.4,19.589v1.981c0,0,2.057-0.701,2.605-1.128c0.55-0.426,0.609-0.883,0.183-1.264
		c0,0-0.166-0.152-0.99,0C25.375,19.33,24.4,19.589,24.4,19.589z"/>
	<path fill="#FFFFFF" d="M22.429,18.801l1.371-0.38v4.953c0,0,3.662,0,4.073,0.898c0,0,0.242,1.425-0.441,1.441
		c-0.687,0.016-8.929,0-8.929,0s-0.305-1.151-0.092-1.517c0.213-0.365,2.799-0.777,4.002-0.839L22.429,18.801z"/>
	<path fill="#FFFFFF" d="M22.432,13.957v1.172l1.464-0.351v-0.899c0,0,3.23-0.29,3.978-2.271c0,0,0.335-0.534-0.352-0.534
		c-0.686,0-8.976,0-8.976,0s-0.412,0.077-0.182,0.519c0.229,0.442,1.127,2.027,4.023,2.271L22.432,13.957z"/>
	<path fill="#FFFFFF" d="M21.335,8.667l0.549,0.442c0,0-1.174,0.686-1.722,1.265c0,0-0.328,0.297-0.122-0.137
		c0.206-0.434,0.289-0.603,0.289-0.603L19.561,9.91c0,0-0.191-0.046,0-0.176C19.751,9.604,21.046,8.706,21.335,8.667z"/>
	<linearGradient id="SVGID_2_" gradientUnits="userSpaceOnUse" x1="23.1431" y1="7.4639" x2="24.5044" y2="7.4639">
		<stop  offset="0" style="stop-color:#009FCD"/>
		<stop  offset="1" style="stop-color:#007087"/>
	</linearGradient>
	<path fill="url(#SVGID_2_)" d="M23.145,7.612c0,0-0.075-0.335,0.785-0.496c0,0,0.488-0.099,0.571,0.248c0,0,0.115,0.37-0.975,0.461
		C23.526,7.825,23.176,7.833,23.145,7.612z"/>
</g>
</svg>
