<?xml version="1.0" encoding="utf-8"?>
<!-- Generator: Adobe Illustrator 15.0.0, SVG Export Plug-In . SVG Version: 6.00 Build 0)  -->
<!DOCTYPE svg PUBLIC "-//W3C//DTD SVG 1.1//EN" "http://www.w3.org/Graphics/SVG/1.1/DTD/svg11.dtd">
<svg version="1.1" id="Layer_1" xmlns="http://www.w3.org/2000/svg" xmlns:xlink="http://www.w3.org/1999/xlink" x="0px" y="0px"
	 width="50px" height="50px" viewBox="0 0 50 50" enable-background="new 0 0 50 50" xml:space="preserve">
<path opacity="0.13" fill="#0E0E0E" enable-background="new    " d="M33.083,45.042c0,1.538-3.205,2.785-7.161,2.785
	c-3.953,0-7.158-1.247-7.158-2.785c0-1.545,3.205-2.792,7.158-2.792C29.878,42.25,33.083,43.497,33.083,45.042z"/>
<linearGradient id="SVGID_1_" gradientUnits="userSpaceOnUse" x1="572.8887" y1="753.2646" x2="597.4042" y2="767.995" gradientTransform="matrix(1 0 0 1 -562 -741)">
	<stop  offset="0" style="stop-color:#BD26FC"/>
	<stop  offset="1" style="stop-color:#8A17D4"/>
</linearGradient>
<path fill="url(#SVGID_1_)" d="M38.613,13.753c0,5.158-2.955,9.625-7.264,11.799c-1.787,0.9-5.943,18.082-5.943,18.082
	s-4.21-17.194-6.014-18.118c-4.271-2.188-7.195-6.634-7.195-11.763c0-7.295,5.914-13.208,13.209-13.208
	C32.701,0.545,38.613,6.458,38.613,13.753z"/>
<g>
	<path fill="#FFFFFF" d="M27.273,9.678l1.142-3.223l-3.95-1.396h-0.1l-2.756,7.785l3.95,1.401h0.102l0.813-2.301
		c1.971,0.408,3.396,2.159,3.396,4.187c0,2.358-1.919,4.276-4.277,4.276c-1.152,0-2.23-0.476-3.021-1.265h1.311v-1.436h-7.18v1.436
		h2.94c1.131,2.229,3.439,3.659,5.949,3.659c3.679,0,6.671-2.993,6.671-6.67C32.264,13.079,30.188,10.432,27.273,9.678z"/>
	<polygon fill="#FFFFFF" points="24.551,15.093 24.65,15.093 24.867,14.486 22.101,13.507 22.003,13.507 22,13.506 21.785,14.113 
		24.551,15.092 24.766,14.485 24.767,14.486 	"/>
	<polygon fill="#FFFFFF" points="27.27,5.752 28.064,3.482 26.422,2.905 26.32,2.905 25.523,5.171 27.17,5.752 	"/>
	<polygon fill="#FFFFFF" points="22.875,22.973 22.875,23.929 29.1,23.929 29.198,23.929 29.198,22.973 29.1,22.973 	"/>
</g>
</svg>
