<?xml version="1.0" encoding="utf-8"?>
<!-- Generator: Adobe Illustrator 15.0.0, SVG Export Plug-In . SVG Version: 6.00 Build 0)  -->
<!DOCTYPE svg PUBLIC "-//W3C//DTD SVG 1.1//EN" "http://www.w3.org/Graphics/SVG/1.1/DTD/svg11.dtd">
<svg version="1.1" id="Layer_1" xmlns="http://www.w3.org/2000/svg" xmlns:xlink="http://www.w3.org/1999/xlink" x="0px" y="0px"
	 width="50px" height="50px" viewBox="0 0 50 50" enable-background="new 0 0 50 50" xml:space="preserve">
<path opacity="0.13" fill="#0E0E0E" enable-background="new    " d="M24.208,47.215c0,1.538-3.205,2.785-7.161,2.785
	c-3.953,0-7.158-1.247-7.158-2.785c0-1.545,3.205-2.792,7.158-2.792C21.003,44.423,24.208,45.67,24.208,47.215z"/>
<linearGradient id="SVGID_1_" gradientUnits="userSpaceOnUse" x1="649.668" y1="-854.292" x2="661.8851" y2="-894.2527" gradientTransform="matrix(1 0 0 -1 -637 -851)">
	<stop  offset="0" style="stop-color:#8CC63F"/>
	<stop  offset="1" style="stop-color:#269C38"/>
</linearGradient>
<path fill="url(#SVGID_1_)" d="M29.738,15.926c0,5.158-2.955,9.625-7.264,11.799c-1.787,0.9-5.943,18.082-5.943,18.082
	s-4.21-17.192-6.014-18.117c-4.271-2.188-7.195-6.633-7.195-11.764c0-7.295,5.914-13.208,13.209-13.208
	C23.826,2.718,29.738,8.631,29.738,15.926z"/>
<rect x="14.125" y="9.173" fill="#FFFFFF" width="4" height="14"/>
<rect x="9.125" y="14.173" fill="#FFFFFF" width="14" height="4"/>
<circle fill="#FFFFFF" stroke="#FF6A29" stroke-width="0.25" stroke-miterlimit="10" cx="29.738" cy="8.922" r="6.531"/>
<path fill="#FF6A29" d="M27.968,8.616L26.774,9.82c-0.061,0.058-0.098,0.14-0.098,0.23c0,0.177,0.145,0.322,0.319,0.322h2.259v2.015
	c0,0.223,0.182,0.402,0.403,0.402s0.403-0.18,0.403-0.402v-2.015h2.42c0.176,0,0.318-0.145,0.318-0.322
	c0-0.088-0.035-0.169-0.093-0.227l-1.196-1.209V5.861h0.242c0.223,0,0.403-0.181,0.403-0.403c0-0.223-0.181-0.403-0.403-0.403
	h-4.027c-0.223,0-0.403,0.18-0.403,0.403c0,0.222,0.181,0.403,0.403,0.403h0.242V8.616z M29.417,6.183v2.095
	c0,0.177-0.145,0.322-0.322,0.322c-0.177,0-0.322-0.145-0.322-0.322V6.183c0-0.177,0.146-0.322,0.322-0.322
	C29.272,5.861,29.417,6.006,29.417,6.183z"/>
</svg>
