<?xml version="1.0" encoding="utf-8"?>
<!-- Generator: Adobe Illustrator 15.0.0, SVG Export Plug-In . SVG Version: 6.00 Build 0)  -->
<!DOCTYPE svg PUBLIC "-//W3C//DTD SVG 1.1//EN" "http://www.w3.org/Graphics/SVG/1.1/DTD/svg11.dtd">
<svg version="1.1" id="Layer_1" xmlns="http://www.w3.org/2000/svg" xmlns:xlink="http://www.w3.org/1999/xlink" x="0px" y="0px"
	 width="50px" height="50px" viewBox="0 0 50 50" enable-background="new 0 0 50 50" xml:space="preserve">
<path opacity="0.13" fill="#0E0E0E" enable-background="new    " d="M32.945,47.549c0,1.537-3.205,2.785-7.162,2.785
	c-3.953,0-7.157-1.248-7.157-2.785c0-1.545,3.205-2.793,7.157-2.793C29.74,44.756,32.945,46.004,32.945,47.549z"/>
<linearGradient id="SVGID_1_" gradientUnits="userSpaceOnUse" x1="658.4053" y1="-854.625" x2="670.6228" y2="-894.5867" gradientTransform="matrix(1 0 0 -1 -637 -851)">
	<stop  offset="0" style="stop-color:#8CC63F"/>
	<stop  offset="1" style="stop-color:#269C38"/>
</linearGradient>
<path fill="url(#SVGID_1_)" d="M38.477,16.259c0,5.158-2.957,9.625-7.266,11.8c-1.787,0.899-5.943,18.082-5.943,18.082
	s-4.21-17.195-6.014-18.119c-4.271-2.188-7.195-6.632-7.195-11.763c0-7.295,5.914-13.208,13.209-13.208
	C32.563,3.051,38.477,8.964,38.477,16.259z"/>
<rect x="22.862" y="9.506" fill="#FFFFFF" width="4" height="14"/>
<rect x="17.862" y="14.506" fill="#FFFFFF" width="14" height="4"/>
<circle fill="#FFFFFF" stroke="#D81212" stroke-width="0.25" stroke-miterlimit="10" cx="38.477" cy="8.977" r="6.531"/>
<g>
	<path fill="#D81212" d="M38.328,11.591h-4.092v-0.799l1.889-2.136c0.281-0.332,0.482-0.613,0.602-0.843
		c0.117-0.23,0.18-0.442,0.18-0.635c0-0.251-0.063-0.452-0.188-0.603c-0.125-0.151-0.313-0.227-0.563-0.227
		c-0.266,0-0.471,0.097-0.615,0.289C35.393,6.83,35.32,7.074,35.32,7.37h-1.189l-0.008-0.025c-0.014-0.542,0.164-1,0.537-1.375
		c0.371-0.375,0.869-0.563,1.494-0.563s1.111,0.16,1.457,0.479c0.346,0.319,0.52,0.749,0.52,1.288c0,0.366-0.098,0.699-0.291,1
		c-0.195,0.302-0.529,0.719-1.004,1.252l-1.004,1.206l0.008,0.021h2.492v0.938H38.328z"/>
	<path fill="#D81212" d="M42.666,9.322h0.686v0.947h-0.686v1.322h-1.223v-1.322h-2.484L38.9,9.536l2.529-4.041h1.234L42.666,9.322
		L42.666,9.322z M40.01,9.322h1.436V7.107L41.42,7.103l-0.127,0.272L40.01,9.322z"/>
</g>
<circle fill="#FFFFFF" stroke="#FF6A29" stroke-width="0.25" stroke-miterlimit="10" cx="11.331" cy="8.977" r="6.531"/>
<path fill="#DB410B" d="M9.558,8.67L8.365,9.874c-0.06,0.058-0.097,0.14-0.097,0.23c0,0.177,0.144,0.322,0.319,0.322h2.259v2.015
	c0,0.223,0.181,0.403,0.403,0.403s0.403-0.18,0.403-0.403v-2.015h2.42c0.176,0,0.319-0.145,0.319-0.322
	c0-0.088-0.036-0.169-0.093-0.227l-1.196-1.209V5.915h0.242c0.222,0,0.403-0.181,0.403-0.403c0-0.223-0.181-0.403-0.403-0.403H9.316
	c-0.222,0-0.403,0.18-0.403,0.403c0,0.222,0.181,0.403,0.403,0.403h0.242V8.67z M11.008,6.237v2.095
	c0,0.177-0.145,0.322-0.322,0.322s-0.322-0.145-0.322-0.322V6.237c0-0.177,0.145-0.322,0.322-0.322S11.008,6.06,11.008,6.237z"/>
</svg>
