<?xml version="1.0" encoding="utf-8"?>
<!-- Generator: Adobe Illustrator 15.0.0, SVG Export Plug-In . SVG Version: 6.00 Build 0)  -->
<!DOCTYPE svg PUBLIC "-//W3C//DTD SVG 1.1//EN" "http://www.w3.org/Graphics/SVG/1.1/DTD/svg11.dtd">
<svg version="1.1" id="Layer_1" xmlns="http://www.w3.org/2000/svg" xmlns:xlink="http://www.w3.org/1999/xlink" x="0px" y="0px"
	 width="50px" height="50px" viewBox="0 0 50 50" enable-background="new 0 0 50 50" xml:space="preserve">
<path opacity="0.13" fill="#0E0E0E" d="M33.083,45.042c0,1.538-3.205,2.785-7.161,2.785c-3.953,0-7.158-1.247-7.158-2.785
	c0-1.545,3.205-2.792,7.158-2.792C29.878,42.25,33.083,43.497,33.083,45.042z"/>
<linearGradient id="SVGID_1_" gradientUnits="userSpaceOnUse" x1="21.543" y1="1.1187" x2="33.7606" y2="41.0808">
	<stop  offset="0" style="stop-color:#8CC63F"/>
	<stop  offset="1" style="stop-color:#269C38"/>
</linearGradient>
<path fill="url(#SVGID_1_)" d="M38.614,13.753c0,5.158-2.956,9.625-7.265,11.799c-1.787,0.9-5.943,18.082-5.943,18.082
	s-4.21-17.195-6.014-18.119c-4.271-2.187-7.195-6.633-7.195-11.762c0-7.295,5.914-13.208,13.209-13.208S38.614,6.458,38.614,13.753z
	"/>
<rect x="23" y="7" fill="#FFFFFF" width="4" height="14"/>
<rect x="18" y="12" fill="#FFFFFF" width="14" height="4"/>
</svg>
