<?xml version="1.0" encoding="utf-8"?>
<!-- Generator: Adobe Illustrator 15.0.0, SVG Export Plug-In . SVG Version: 6.00 Build 0)  -->
<!DOCTYPE svg PUBLIC "-//W3C//DTD SVG 1.1//EN" "http://www.w3.org/Graphics/SVG/1.1/DTD/svg11.dtd">
<svg version="1.1" id="Layer_1" xmlns="http://www.w3.org/2000/svg" xmlns:xlink="http://www.w3.org/1999/xlink" x="0px" y="0px"
	 width="50px" height="50px" viewBox="0 0 50 50" enable-background="new 0 0 50 50" xml:space="preserve">
<path opacity="0.13" fill="#0E0E0E" enable-background="new    " d="M26.441,47.215c0,1.537-3.206,2.785-7.162,2.785
	c-3.953,0-7.158-1.248-7.158-2.785c0-1.545,3.205-2.793,7.158-2.793C23.237,44.422,26.441,45.67,26.441,47.215z"/>
<linearGradient id="SVGID_1_" gradientUnits="userSpaceOnUse" x1="595.9014" y1="759.291" x2="608.119" y2="799.2532" gradientTransform="matrix(1 0 0 1 -581 -756)">
	<stop  offset="0" style="stop-color:#8CC63F"/>
	<stop  offset="1" style="stop-color:#269C38"/>
</linearGradient>
<path fill="url(#SVGID_1_)" d="M31.973,15.925c0,5.158-2.955,9.625-7.264,11.8c-1.787,0.899-5.943,18.082-5.943,18.082
	s-4.21-17.195-6.014-18.119C8.48,25.5,5.556,21.054,5.556,15.925c0-7.295,5.914-13.208,13.209-13.208
	C26.061,2.717,31.973,8.63,31.973,15.925z"/>
<rect x="16.359" y="9.172" fill="#FFFFFF" width="4" height="14"/>
<rect x="11.359" y="14.172" fill="#FFFFFF" width="14" height="4"/>
<circle fill="#FFFFFF" stroke="#D81212" stroke-width="0.25" stroke-miterlimit="10" cx="31.531" cy="9.172" r="6.531"/>
<g>
	<path fill="#D81212" d="M31.382,11.786h-4.091v-0.799l1.889-2.136c0.281-0.332,0.481-0.613,0.602-0.843
		c0.117-0.231,0.177-0.442,0.177-0.635c0-0.251-0.063-0.452-0.188-0.603c-0.125-0.151-0.313-0.227-0.564-0.227
		c-0.266,0-0.471,0.097-0.615,0.289c-0.146,0.193-0.218,0.437-0.218,0.733h-1.188L27.175,7.54c-0.015-0.542,0.164-1,0.536-1.375
		c0.371-0.375,0.869-0.563,1.494-0.563s1.111,0.16,1.457,0.479c0.348,0.319,0.52,0.749,0.52,1.288c0,0.366-0.097,0.699-0.291,1
		c-0.193,0.302-0.527,0.719-1.002,1.252l-1.006,1.206l0.01,0.021h2.49L31.382,11.786L31.382,11.786z"/>
	<path fill="#D81212" d="M35.721,9.517h0.687v0.947h-0.687v1.322h-1.224v-1.322h-2.483l-0.059-0.733l2.529-4.041h1.234v3.827H35.721
		z M33.064,9.517h1.433V7.302l-0.024-0.004L34.346,7.57L33.064,9.517z"/>
</g>
</svg>
