<?xml version="1.0" encoding="utf-8"?>
<!-- Generator: Adobe Illustrator 15.0.0, SVG Export Plug-In . SVG Version: 6.00 Build 0)  -->
<!DOCTYPE svg PUBLIC "-//W3C//DTD SVG 1.1//EN" "http://www.w3.org/Graphics/SVG/1.1/DTD/svg11.dtd">
<svg version="1.1" id="Layer_1" xmlns="http://www.w3.org/2000/svg" xmlns:xlink="http://www.w3.org/1999/xlink" x="0px" y="0px"
	 width="120px" height="35px" viewBox="0 0 120 35" enable-background="new 0 0 120 35" xml:space="preserve">
<ellipse fill="#2B677A" cx="26.354" cy="23.036" rx="4.729" ry="5.454"/>
<g>
	<path fill="#2B677A" d="M63.77,31.629h-5.626c-1.824,0-2.732-0.775-2.732-2.32v-1.422h1.141v1.422c0,0.885,0.422,1.213,1.619,1.213
		h2.131c0.926,0,1.098-0.189,1.098-0.852v-3.359h1.156v3.379c0,0.305-0.05,0.578-0.141,0.834h1.354V31.629z M60.02,28.695h-2.158
		v-0.619h0.473c-0.032-0.115-0.051-0.223-0.051-0.314c0-0.551,0.391-0.957,0.909-0.957c0.372,0,0.645,0.191,0.812,0.563
		l-0.538,0.256c-0.059-0.164-0.158-0.246-0.28-0.246c-0.188,0-0.279,0.115-0.279,0.354c0,0.182,0.058,0.299,0.182,0.338h0.934v0.627
		H60.02z"/>
	<path fill="#2B677A" d="M66.019,30.035c0,0.438-0.125,0.801-0.365,1.09c-0.271,0.34-0.652,0.504-1.14,0.504h-1.091v-1.105h0.851
		c0.39,0,0.588-0.273,0.588-0.811v-3.4h1.155v3.723H66.019L66.019,30.035z"/>
	<path fill="#2B677A" d="M71.579,31.629h-1.094c-0.131,0.908-0.76,1.363-1.883,1.363H68.48v-0.924h0.099
		c0.445,0,0.71-0.166,0.802-0.488c-0.092,0.033-0.322,0.049-0.71,0.049c-1.083,0-1.877-0.785-1.877-1.883
		c0-1.117,0.775-1.869,1.877-1.869c1.056,0,1.833,0.795,1.833,1.895v0.75h1.075V31.629z M69.349,30.521v-0.801
		c0-0.486-0.29-0.801-0.714-0.801c-0.436,0-0.667,0.338-0.667,0.775c0,0.471,0.281,0.826,0.709,0.826H69.349L69.349,30.521z"/>
	<path fill="#2B677A" d="M77.18,31.629h-5.905v-1.107h4.677c-0.051-0.934-0.762-1.66-1.727-1.66c-0.497,0-1.058,0.258-1.387,0.598
		c-0.117-0.158-0.309-0.414-0.581-0.787c0.563-0.586,1.247-0.875,2.051-0.875c1.89,0.008,2.872,1.297,2.872,3.453V31.629z"/>
	<path fill="#2B677A" d="M85.971,31.629h-1.694C83.824,32.486,82.99,33,82.022,33c-1.454,0-2.609-1.223-2.609-2.809v-2.307h1.163
		v2.197c0,1.092,0.555,1.844,1.453,1.844c0.894,0,1.446-0.777,1.446-1.844v-2.197h1.157v2.637h1.338V31.629L85.971,31.629z
		 M82.593,27.26h-1.024v-0.949h1.024V27.26z"/>
	<path fill="#2B677A" d="M90.54,30.455c0,1.107-0.742,1.885-1.899,1.885c-0.702,0-1.229-0.238-1.568-0.711h-1.485v-1.107h1.146
		c0-1.182,0.678-1.932,1.866-1.932C89.789,28.59,90.54,29.324,90.54,30.455z M89.395,30.498c0-0.652-0.249-0.984-0.736-0.984h-0.08
		c-0.424,0-0.714,0.389-0.714,0.934c0,0.563,0.282,0.951,0.776,0.951C89.095,31.398,89.395,31.033,89.395,30.498z"/>
	<path fill="#2B677A" d="M98.119,31.629h-1.164c-0.663,0-1.125-0.34-1.389-1.016c-0.208,0.322-0.603,0.496-1.173,0.496
		c-0.993,0-1.628-0.859-1.628-2c0-1.232,0.619-2.023,1.709-2.023c0-0.008,0.736-0.008,2.206-0.008v2.602
		c0,0.547,0.282,0.842,0.844,0.842h0.595V31.629z M94.716,26.311H93.69v-0.959h1.025V26.311z M95.492,29.018v-1.09H94.73
		c-0.472,0-0.816,0.521-0.816,1.164c0,0.58,0.33,1.059,0.792,1.059C95.194,30.15,95.492,29.695,95.492,29.018z M96.27,26.311h-1.023
		v-0.959h1.023V26.311z"/>
	<path fill="#2B677A" d="M104.596,31.629h-6.74v-1.107h4.692c-0.024-0.438-0.183-0.811-0.472-1.121
		c-0.322-0.355-0.752-0.539-1.272-0.539c-0.495,0-1.057,0.258-1.378,0.598c-0.118-0.158-0.306-0.414-0.579-0.787
		c0.563-0.586,1.238-0.875,2.04-0.875c0.487,0,0.916,0.09,1.287,0.266c0.884,0.42,1.404,1.236,1.544,2.461h0.876v1.105H104.596
		L104.596,31.629z"/>
	<path fill="#2B677A" d="M112.784,31.629h-8.552v-1.107h1.043c0.381,0,0.584-0.197,0.584-0.791v-1.445h1.157v1.064
		c0.728-0.926,1.688-1.479,2.61-1.479c1.355,0,2.147,0.959,2.256,2.65h0.9L112.784,31.629L112.784,31.629z M110.678,30.521
		l0.008-0.148c0-0.85-0.421-1.494-1.146-1.494c-0.852,0-1.61,0.553-2.247,1.645h3.386V30.521z"/>
	<path fill="#2B677A" d="M115.042,30.035c0,0.438-0.124,0.801-0.363,1.09c-0.271,0.34-0.654,0.504-1.141,0.504h-1.091v-1.105h0.852
		c0.388,0,0.586-0.273,0.586-0.811v-3.4h1.155v3.723H115.042L115.042,30.035z"/>
	<path fill="#2B677A" d="M117.042,31.629h-1.158v-5.328h1.158V31.629z"/>
</g>
<rect id="_x3C_Slice_x3E_" x="12.599" fill="none" width="105" height="33"/>
<g>
	<path fill="#2B677A" d="M10.64,15.955c1.214,0,2.116-0.322,2.706-0.966c0.589-0.644,0.885-1.548,0.885-2.716
		c0-0.977-0.31-1.786-0.929-2.43c-0.619-0.645-1.483-0.965-2.593-0.965c-0.936,0-1.722,0.291-2.356,0.875
		c-0.637,0.584-0.955,1.328-0.955,2.232H2.458l-0.035-0.107C2.354,9.844,3.124,8.164,4.735,6.842C6.348,5.521,8.34,4.86,10.711,4.86
		c2.64,0,4.736,0.634,6.289,1.901c1.554,1.269,2.331,3.088,2.331,5.459c0,1.189-0.337,2.283-1.008,3.277
		c-0.674,0.994-1.593,1.776-2.761,2.348c1.332,0.514,2.359,1.291,3.084,2.332c0.725,1.043,1.086,2.303,1.086,3.779
		c0,2.381-0.844,4.254-2.53,5.619c-1.688,1.363-3.853,2.043-6.491,2.043c-2.324,0-4.356-0.643-6.098-1.928
		c-1.739-1.287-2.58-3.09-2.521-5.412l0.034-0.107h4.976c0,0.977,0.336,1.795,1.007,2.455c0.673,0.66,1.539,0.992,2.604,0.992
		c1.168,0,2.114-0.352,2.838-1.055s1.087-1.59,1.087-2.662c0-1.369-0.339-2.385-1.018-3.045c-0.678-0.66-1.669-0.992-2.978-0.992
		H7.82v-3.912h2.819V15.955z"/>
</g>
<g>
	<path fill="#2B677A" d="M27.569,4.86c0.992,0,1.912,0.093,2.76,0.276c0.847,0.184,1.685,0.455,2.515,0.813l-0.911,3.824
		c-0.795-0.275-1.507-0.479-2.138-0.617c-0.631-0.137-1.36-0.205-2.19-0.205c-1.494,0-2.701,0.584-3.617,1.75
		c-0.917,1.168-1.375,2.793-1.375,4.877v0.84c0.678-0.679,1.485-1.205,2.427-1.58c0.939-0.375,1.988-0.563,3.146-0.563
		c2.185,0,3.89,0.789,5.115,2.367c1.227,1.578,1.84,3.635,1.84,6.174c0,2.605-0.794,4.727-2.383,6.357
		c-1.589,1.633-3.662,2.447-6.22,2.447c-2.663,0-4.832-0.928-6.51-2.787c-1.676-1.857-2.514-4.398-2.514-7.627v-5.449
		c0-3.299,0.948-5.94,2.848-7.924C22.258,5.853,24.66,4.86,27.569,4.86z M26.482,18.225c-0.923,0-1.707,0.15-2.355,0.453
		c-0.647,0.306-1.153,0.725-1.516,1.262v1.393c0,2,0.358,3.551,1.077,4.645c0.718,1.098,1.667,1.645,2.848,1.645
		c1.063,0,1.908-0.455,2.54-1.365c0.631-0.912,0.946-2.059,0.946-3.438c0-1.432-0.318-2.553-0.956-3.369
		C28.431,18.631,27.569,18.225,26.482,18.225z"/>
</g>
<g>
	<path fill="#2B677A" d="M50.264,22.041c0,3.049-0.786,5.443-2.356,7.182c-1.57,1.74-3.651,2.607-6.245,2.607
		c-2.615,0-4.713-0.867-6.29-2.607c-1.575-1.736-2.364-4.133-2.364-7.182v-7.164c0-3.037,0.785-5.432,2.355-7.182
		c1.57-1.751,3.658-2.626,6.263-2.626c2.594,0,4.683,0.875,6.265,2.626c1.582,1.75,2.374,4.145,2.374,7.182L50.264,22.041
		L50.264,22.041z M45.166,14.342c0-1.668-0.313-2.959-0.938-3.877c-0.625-0.916-1.492-1.375-2.604-1.375
		c-1.12,0-1.986,0.459-2.602,1.375c-0.612,0.918-0.919,2.209-0.919,3.877v8.199c0,1.703,0.31,3.01,0.928,3.922
		c0.619,0.912,1.495,1.367,2.629,1.367c1.109,0,1.972-0.455,2.583-1.367c0.614-0.912,0.921-2.219,0.921-3.922L45.166,14.342
		L45.166,14.342z"/>
</g>
<g>
	<path fill="#2B677A" d="M64.508,19.196c0.068-0.465-0.102-0.851-0.505-1.157c-0.405-0.308-1.208-0.586-2.408-0.838
		c-1.797-0.354-3.124-0.889-3.981-1.605c-0.858-0.717-1.2-1.688-1.023-2.918c0.194-1.338,0.929-2.453,2.202-3.342
		s2.876-1.334,4.81-1.334c1.921,0,3.438,0.461,4.544,1.383c1.108,0.92,1.54,2.051,1.296,3.391l-0.028,0.084h-4.128
		c0.088-0.623-0.044-1.122-0.396-1.494c-0.351-0.371-0.917-0.558-1.697-0.558c-0.653,0-1.213,0.163-1.676,0.489
		c-0.465,0.326-0.729,0.726-0.798,1.199c-0.069,0.484,0.08,0.866,0.445,1.146c0.366,0.278,1.175,0.54,2.423,0.78
		c1.884,0.373,3.248,0.92,4.092,1.642c0.845,0.722,1.179,1.715,1.002,2.979c-0.214,1.414-0.987,2.539-2.318,3.377
		c-1.332,0.838-3.009,1.256-5.028,1.256c-2.03,0-3.603-0.516-4.714-1.549c-1.113-1.031-1.547-2.188-1.305-3.461l0.045-0.084h3.908
		c-0.088,0.81,0.105,1.396,0.579,1.76c0.474,0.361,1.133,0.543,1.982,0.543c0.752,0,1.366-0.152,1.846-0.461
		C64.151,20.119,64.43,19.709,64.508,19.196z"/>
	<path fill="#2B677A" d="M77.536,23.678c-2.266,0-3.979-0.699-5.139-2.102c-1.163-1.4-1.565-3.17-1.216-5.311l0.088-0.559
		c0.361-2.345,1.291-4.217,2.788-5.617c1.499-1.4,3.385-2.096,5.658-2.088c2.05,0,3.563,0.629,4.545,1.885
		c0.981,1.257,1.306,2.922,0.974,4.998l-0.32,2.106h-9.457l-0.029,0.071c-0.117,1.068,0.068,1.919,0.557,2.547
		c0.489,0.629,1.317,0.941,2.488,0.941c0.917,0,1.742-0.096,2.475-0.285c0.731-0.189,1.474-0.473,2.226-0.846l0.761,2.514
		c-0.723,0.492-1.648,0.906-2.78,1.242C80.02,23.51,78.814,23.678,77.536,23.678z M79.234,11.145c-0.819,0-1.512,0.283-2.07,0.852
		c-0.563,0.567-0.97,1.307-1.224,2.219l0.028,0.084h5.184l0.045-0.308c0.146-0.911,0.068-1.614-0.229-2.106
		C80.671,11.391,80.093,11.145,79.234,11.145z"/>
	<path fill="#2B677A" d="M92.644,10.11c0.614-0.67,1.311-1.188,2.085-1.556c0.775-0.368,1.604-0.553,2.481-0.553
		c1.59,0,2.788,0.529,3.593,1.586c0.806,1.055,1.037,2.668,0.695,4.834l-1.404,8.961H95.82l1.419-8.987
		c0.187-1.22,0.118-2.062-0.197-2.526c-0.316-0.465-0.877-0.697-1.677-0.697c-0.645,0-1.222,0.107-1.733,0.32
		c-0.513,0.215-0.96,0.516-1.34,0.907l-1.728,10.983h-4.273L89.717,1.61h4.273L92.644,10.11z"/>
</g>
<path fill="#357584" d="M27.051,20.404l0.313,0.809l0.31-0.809c0.019-0.049,0.504-1.246,1.937-1.246
	c0.697,0,1.279,0.287,1.688,0.822c0.391,0.508,0.599,1.203,0.599,1.969c0.009,1.479-1.253,2.906-2.304,3.838
	c-0.935,0.818-1.866,1.414-2.229,1.629c-0.361-0.221-1.305-0.811-2.237-1.641c-1.062-0.924-2.314-2.344-2.314-3.826
	c0-0.762,0.208-1.461,0.6-1.969c0.409-0.533,0.999-0.814,1.697-0.814C26.555,19.158,27.038,20.398,27.051,20.404"/>
<circle fill="none" stroke="#2A5F70" stroke-miterlimit="10" cx="49.568" cy="4" r="1.418"/>
<g>
	<path fill="#2B677A" d="M111.459,23.092c-0.107-0.346-0.187-0.711-0.234-1.096c-0.049-0.387-0.068-0.779-0.059-1.18
		c-0.557,0.744-1.232,1.357-2.027,1.842c-0.796,0.484-1.689,0.727-2.687,0.727c-1.602,0-2.802-0.412-3.602-1.234
		c-0.801-0.824-1.088-1.93-0.864-3.316c0.234-1.535,1.006-2.695,2.313-3.481c1.307-0.786,3.122-1.181,5.444-1.181h2.4l0.19-1.199
		c0.116-0.754,0.007-1.324-0.329-1.711c-0.336-0.385-0.906-0.579-1.706-0.579c-0.663,0-1.218,0.161-1.662,0.481
		c-0.443,0.321-0.704,0.76-0.782,1.318h-4.112l-0.015-0.083c0.146-1.321,0.899-2.435,2.26-3.336
		c1.363-0.901,3.049-1.354,5.059-1.354c1.836,0,3.284,0.461,4.349,1.383c1.063,0.922,1.463,2.224,1.2,3.908l-0.979,6.238
		c-0.117,0.736-0.167,1.406-0.147,2.012c0.021,0.604,0.104,1.217,0.25,1.842H111.459z M107.975,20.369
		c0.713,0,1.396-0.18,2.049-0.537c0.653-0.357,1.127-0.771,1.421-1.234l0.337-2.122h-2.4c-0.868,0-1.579,0.218-2.131,0.655
		c-0.551,0.438-0.875,0.959-0.974,1.563c-0.088,0.529,0.021,0.94,0.321,1.235C106.901,20.223,107.36,20.369,107.975,20.369z"/>
</g>
<path fill="#357584" stroke="#2B5464" stroke-miterlimit="10" d="M113.176,9.146c0,0,0.213-3.632,5.432-4.058
	c0,0-0.165,3.484-3.271,4.318c0,0-1.751,0.278-2.063,0.229C113.273,9.635,113.115,9.514,113.176,9.146z"/>
</svg>
