<?xml version="1.0" encoding="utf-8"?>
<!-- Generator: Adobe Illustrator 15.0.0, SVG Export Plug-In . SVG Version: 6.00 Build 0)  -->
<!DOCTYPE svg PUBLIC "-//W3C//DTD SVG 1.1//EN" "http://www.w3.org/Graphics/SVG/1.1/DTD/svg11.dtd">
<svg version="1.1" id="Layer_1" xmlns="http://www.w3.org/2000/svg" xmlns:xlink="http://www.w3.org/1999/xlink" x="0px" y="0px"
	 width="10px" height="15px" viewBox="0 0 10 15" enable-background="new 0 0 10 15" xml:space="preserve">
<g>
	<path fill="#FFFFFF" d="M2.173,14.854h5.655c0.818,0,1.488-0.67,1.488-1.487V1.759c0-0.818-0.67-1.487-1.488-1.487H2.173
		c-0.818,0-1.488,0.669-1.488,1.487v11.608C0.685,14.185,1.354,14.854,2.173,14.854z M5,0.867c0.575,0,1.041,0.333,1.041,0.744
		c0,0.411-0.466,0.745-1.041,0.745S3.958,2.021,3.958,1.61S4.425,0.867,5,0.867z M1.875,3.099h6.249v9.821H1.875V3.099z"/>
</g>
</svg>
