<?xml version="1.0" encoding="utf-8"?>
<!-- Generator: Adobe Illustrator 15.0.0, SVG Export Plug-In . SVG Version: 6.00 Build 0)  -->
<!DOCTYPE svg PUBLIC "-//W3C//DTD SVG 1.1//EN" "http://www.w3.org/Graphics/SVG/1.1/DTD/svg11.dtd">
<svg version="1.1" id="Layer_1" xmlns="http://www.w3.org/2000/svg" xmlns:xlink="http://www.w3.org/1999/xlink" x="0px" y="0px"
	 width="120px" height="120px" viewBox="0 0 120 120" enable-background="new 0 0 120 120" xml:space="preserve">
<path fill="#30A19D" d="M83.815,31.133c0,13.153-6.559,34.63-23.815,34.63c-16.682,0-23.815-21.478-23.815-34.63
	c0-18.753,10.663-24.39,23.815-24.39C73.152,6.743,83.815,12.726,83.815,31.133z"/>
<path fill="#30A19D" d="M110,98.093c0,6.354-5.335,11.907-11.688,11.907H21.918C15.565,110,10,104.446,10,98.093V90.96
	c0-14.152,30.323-23.241,36.678-23.241l13.334,16.223l13.259-16.223c6.354,0,36.729,9.089,36.729,23.241V98.093z"/>
</svg>
