<?xml version="1.0" encoding="utf-8"?>
<!-- Generator: Adobe Illustrator 15.0.0, SVG Export Plug-In . SVG Version: 6.00 Build 0)  -->
<!DOCTYPE svg PUBLIC "-//W3C//DTD SVG 1.1//EN" "http://www.w3.org/Graphics/SVG/1.1/DTD/svg11.dtd">
<svg version="1.1" id="Layer_1" xmlns="http://www.w3.org/2000/svg" xmlns:xlink="http://www.w3.org/1999/xlink" x="0px" y="0px"
	 width="50px" height="50px" viewBox="0 0 50 50" enable-background="new 0 0 50 50" xml:space="preserve">
<g>
	<path fill="#E20505" d="M26.074,47.817c-11.272,0-20.408-9.136-20.408-20.425c0-11.289,9.136-20.424,20.408-20.424V2.46
		l9.468,6.201l-9.468,6.202v-4.706c-9.503,0-17.236,7.732-17.236,17.235s7.733,17.236,17.236,17.236
		c9.502,0,17.235-7.669,17.235-17.236h3.173C46.482,38.713,37.347,47.817,26.074,47.817z"/>
</g>
<g>
	<path fill="#E20505" d="M25.6,34.601H14.586v-2.153l5.084-5.748c0.759-0.895,1.298-1.653,1.617-2.273
		c0.318-0.619,0.479-1.188,0.479-1.707c0-0.677-0.168-1.218-0.506-1.624c-0.337-0.405-0.846-0.608-1.522-0.608
		c-0.713,0-1.266,0.259-1.657,0.777c-0.391,0.518-0.585,1.177-0.585,1.973h-3.202l-0.022-0.068
		c-0.039-1.458,0.443-2.691,1.443-3.703c1-1.011,2.341-1.516,4.024-1.516c1.683,0,2.991,0.43,3.922,1.29
		c0.933,0.861,1.399,2.017,1.399,3.466c0,0.985-0.261,1.883-0.785,2.695c-0.521,0.812-1.421,1.936-2.7,3.37l-2.704,3.246
		l0.022,0.057H25.6V34.601z"/>
	<path fill="#E20505" d="M37.277,28.491h1.85v2.548h-1.85v3.562h-3.29v-3.562h-6.685l-0.158-1.974l6.809-10.878h3.324V28.491z
		 M30.131,28.491h3.856v-5.964l-0.068-0.01l-0.338,0.732L30.131,28.491z"/>
</g>
</svg>
