<?xml version="1.0" encoding="utf-8"?>
<!-- Generator: Adobe Illustrator 15.0.0, SVG Export Plug-In . SVG Version: 6.00 Build 0)  -->
<!DOCTYPE svg PUBLIC "-//W3C//DTD SVG 1.1//EN" "http://www.w3.org/Graphics/SVG/1.1/DTD/svg11.dtd">
<svg version="1.1" id="Layer_1" xmlns="http://www.w3.org/2000/svg" xmlns:xlink="http://www.w3.org/1999/xlink" x="0px" y="0px"
	 width="40px" height="40px" viewBox="0 0 40 40" enable-background="new 0 0 40 40" xml:space="preserve">
<path fill="#FFFFFF" d="M5.679,4.473c0,0-0.322,3.763,2.754,6.601c3.079,2.84,15.105,11.845,15.342,18.895
	c0,0,0.191,4.028-1.134,6.394l-1.605-2.314c0,0-0.805-0.852-1.988-0.283c-1.183,0.568-5.43,2.603-5.43,2.603
	s-3.048,0.965-2.73-1.842c0.399-3.529,0-4.118,0-4.118s-0.792-0.239-1.298-0.475c-0.504-0.236-0.571-1.575-0.619-1.97
	c0,0-1.361-0.46-1.534-0.666c-0.175-0.202,0.451-0.83,0.276-1.619c-0.175-0.791-0.544-2.148-1.144-2.541
	c-0.599-0.396-2.544-0.429-2.719-0.444c-0.175-0.017-0.628-0.347-0.341-0.98c0.282-0.629,2.357-4.084,2.707-4.998
	c0.345-0.917,0.484-2.1,0.404-2.257L6.35,14.11l-1.64-0.061c0,0,1.625-1.026,1.467-1.689C6.019,11.697,4.55,6.096,5.679,4.473z"/>
<path fill="#FFFFFF" d="M9.14,1.726c0,0-1.071,5.208,9.813,11.674c10.885,6.468,12.023,14.543,8.283,20.319
	c0,0-3.55,6.2-10.268,7.052c0,0,7.285-4.163,9.274-9.655c0,0,4.069-8.519-10.886-17.888C15.356,13.227,7.751,8.875,9.14,1.726z"/>
<path fill="#FFFFFF" d="M12.375,1.396c0,0,2.886,2.509,5.916,4.068c3.027,1.564,15.333,6.672,17.746,16.564
	c0,0,3.205,9.229-6.869,15.521c0,0,10.039-9.984,1.191-20.916c0,0-4.117-5.489-12.21-9.417C18.149,7.217,13.487,4.709,12.375,1.396z
	"/>
</svg>
