<?xml version="1.0" encoding="utf-8"?>
<!-- Generator: Adobe Illustrator 15.0.0, SVG Export Plug-In . SVG Version: 6.00 Build 0)  -->
<!DOCTYPE svg PUBLIC "-//W3C//DTD SVG 1.1//EN" "http://www.w3.org/Graphics/SVG/1.1/DTD/svg11.dtd">
<svg version="1.1" id="Layer_1" xmlns="http://www.w3.org/2000/svg" xmlns:xlink="http://www.w3.org/1999/xlink" x="0px" y="0px"
	 width="40px" height="40px" viewBox="0 0 40 40" enable-background="new 0 0 40 40" xml:space="preserve">
<path fill="#FFFFFF" d="M37.584,35.292c0,1.082-0.877,1.958-1.959,1.958h-8.871l-0.049-5.879H13.668l0.098,5.879H5.043
	c-1.083,0-1.96-0.876-1.96-1.958V13.531c0-1.083,0.877-1.96,1.96-1.96h30.582c1.082,0,1.959,0.877,1.959,1.96V35.292z"/>
<path fill="#FFFFFF" d="M28.959,16.472c0,1.083-0.877,1.96-1.961,1.96h-13.33c-1.083,0-1.96-0.877-1.96-1.96V4.71
	c0-1.083,0.877-1.96,1.96-1.96h13.33c1.084,0,1.961,0.877,1.961,1.96V16.472z"/>
<rect x="19.093" y="4.744" fill="#1695D7" width="2.48" height="7.185"/>
<rect x="16.865" y="7.221" fill="#1695D7" width="6.939" height="2.23"/>
<rect x="8.536" y="15.417" fill="#1695D7" width="4.632" height="4.798"/>
<rect x="14.987" y="15.417" fill="#1695D7" width="4.631" height="4.798"/>
<rect x="21.275" y="15.417" fill="#1695D7" width="4.632" height="4.798"/>
<rect x="27.561" y="15.417" fill="#1695D7" width="4.635" height="4.798"/>
<rect x="8.536" y="21.868" fill="#1695D7" width="4.632" height="4.799"/>
<rect x="14.987" y="21.868" fill="#1695D7" width="4.631" height="4.799"/>
<rect x="21.275" y="21.868" fill="#1695D7" width="4.632" height="4.799"/>
<rect x="27.561" y="21.868" fill="#1695D7" width="4.635" height="4.799"/>
</svg>
