<?xml version="1.0" encoding="utf-8"?>
<!-- Generator: Adobe Illustrator 15.0.0, SVG Export Plug-In . SVG Version: 6.00 Build 0)  -->
<!DOCTYPE svg PUBLIC "-//W3C//DTD SVG 1.1//EN" "http://www.w3.org/Graphics/SVG/1.1/DTD/svg11.dtd">
<svg version="1.1" id="Layer_1" xmlns="http://www.w3.org/2000/svg" xmlns:xlink="http://www.w3.org/1999/xlink" x="0px" y="0px"
	 width="40px" height="40px" viewBox="0 0 40 40" enable-background="new 0 0 40 40" xml:space="preserve">
<path fill="#FFFFFF" d="M21.24,36.557h12.416V24.14H21.24V36.557z M6.338,36.557H18.75V24.14H6.338V36.557z M21.227,13.906
	c1.213-0.138,2.59-0.288,3.391-0.375c3.254-0.369,6.18-3.297,6.543-6.549c0.369-3.247-2.002-5.592-5.223-5.223
	c-2.535,0.275-4.854,2.127-5.943,4.466c-1.076-2.339-3.403-4.191-5.937-4.479c-3.252-0.363-5.592,1.983-5.223,5.229
	c0.369,3.253,3.297,6.181,6.537,6.543c0.801,0.094,2.177,0.25,3.384,0.381c-0.012,0.156,0,0.3,0,0.3h2.485
	C21.24,14.206,21.252,14.068,21.227,13.906z M25.406,4.766c1.75-0.2,3.027,1.07,2.814,2.821c-0.188,1.758-1.764,3.347-3.527,3.541
	c-1.752,0.2-3.047-1.076-2.828-2.828C22.064,6.549,23.654,4.96,25.406,4.766z M15.296,11.128c-1.751-0.188-3.34-1.777-3.528-3.528
	c-0.201-1.758,1.063-3.027,2.815-2.828c1.732,0.188,3.334,1.777,3.541,3.535C18.324,10.065,17.067,11.329,15.296,11.128z
	 M21.24,14.206v7.45h14.898v-7.45H21.24z M3.861,21.656H18.75v-7.45H3.861V21.656z"/>
</svg>
