<?xml version="1.0" encoding="utf-8"?>
<!-- Generator: Adobe Illustrator 15.0.0, SVG Export Plug-In . SVG Version: 6.00 Build 0)  -->
<!DOCTYPE svg PUBLIC "-//W3C//DTD SVG 1.1//EN" "http://www.w3.org/Graphics/SVG/1.1/DTD/svg11.dtd">
<svg version="1.1" id="Layer_1" xmlns="http://www.w3.org/2000/svg" xmlns:xlink="http://www.w3.org/1999/xlink" x="0px" y="0px"
	 width="50px" height="50px" viewBox="0 0 50 50" enable-background="new 0 0 50 50" xml:space="preserve">
<path fill="#FF6A29" d="M27.056,42.896h13.97V28.921h-13.97V42.896z M10.278,42.896h13.974V28.921H10.278V42.896z M27.046,17.396
	c1.359-0.154,2.912-0.323,3.814-0.435c3.656-0.407,6.955-3.702,7.361-7.365c0.422-3.65-2.241-6.299-5.872-5.882
	c-2.855,0.323-5.476,2.407-6.701,5.036c-1.214-2.629-3.834-4.713-6.68-5.036c-3.663-0.417-6.294,2.232-5.888,5.882
	c0.422,3.663,3.721,6.958,7.368,7.365c0.901,0.099,2.454,0.268,3.803,0.422c-0.016,0.183,0,0.336,0,0.336h2.803
	C27.056,17.737,27.072,17.565,27.046,17.396z M31.751,7.103c1.964-0.224,3.396,1.209,3.162,3.184
	c-0.213,1.972-1.985,3.759-3.971,3.973c-1.97,0.224-3.423-1.196-3.184-3.17C27.988,9.108,29.776,7.33,31.751,7.103z M20.366,14.272
	c-1.975-0.208-3.762-2.001-3.971-3.986c-0.229-1.975,1.198-3.408,3.163-3.17c1.964,0.214,3.751,2.001,3.992,3.973
	C23.773,13.068,22.351,14.507,20.366,14.272z M27.056,17.737v8.381h16.772v-8.381H27.056z M7.485,26.118h16.767v-8.381H7.485V26.118
	z"/>
</svg>
