<?xml version="1.0" encoding="utf-8"?>
<!-- Generator: Adobe Illustrator 15.0.0, SVG Export Plug-In . SVG Version: 6.00 Build 0)  -->
<!DOCTYPE svg PUBLIC "-//W3C//DTD SVG 1.1//EN" "http://www.w3.org/Graphics/SVG/1.1/DTD/svg11.dtd">
<svg version="1.1" id="Layer_1" xmlns="http://www.w3.org/2000/svg" xmlns:xlink="http://www.w3.org/1999/xlink" x="0px" y="0px"
	 width="50px" height="50px" viewBox="0 0 50 50" enable-background="new 0 0 50 50" xml:space="preserve">
<g>
	<path fill="#FFFFFF" d="M19.036,33.388v4.63c0,0-7.925,0.335-7.861-6.192c0,0-0.365-5.427,8.294-6.896l7.293-1.563
		c0,0,9.588-1.1,9.821-9.125c0,0-0.135-4.929-5.693-5.128c0,0-3.365,0.463-4.095,0.632c-0.734,0.165-6.66,1.065-8.229-2.099
		c0,0-0.23-0.466,0.033-0.898c0.269-0.434,3.232-3.83,7.726-3.13c4.499,0.698,13.023,1.399,14.421,8.824
		c0,0,2.499,10.956-11.685,14.986l-10.026,2.298c0,0-2.766,0.631-2.998,2.162C16.039,31.889,15.839,33.355,19.036,33.388z"/>
	<path fill="#FFFFFF" d="M24.734,33.077v4.331c0,0,4.494-1.532,5.691-2.467c1.202-0.931,1.331-1.929,0.399-2.763
		c0,0-0.364-0.332-2.164,0C26.863,32.514,24.734,33.077,24.734,33.077z"/>
	<path fill="#FFFFFF" d="M20.425,31.355l2.997-0.831v10.824c0,0,8.002,0,8.901,1.962c0,0,0.528,3.115-0.965,3.149
		c-1.5,0.034-19.514,0-19.514,0s-0.666-2.513-0.2-3.316c0.468-0.798,6.116-1.698,8.748-1.831L20.425,31.355z"/>
	<path fill="#FFFFFF" d="M20.432,20.772v2.561l3.202-0.767v-1.964c0,0,7.056-0.633,8.69-4.96c0,0,0.733-1.169-0.768-1.169
		c-1.498,0-19.613,0-19.613,0s-0.901,0.168-0.399,1.135c0.499,0.964,2.462,4.43,8.792,4.958L20.432,20.772z"/>
	<path fill="#FFFFFF" d="M18.036,9.213l1.201,0.966c0,0-2.565,1.498-3.765,2.763c0,0-0.716,0.651-0.265-0.299
		c0.449-0.948,0.632-1.317,0.632-1.317l-1.681,0.602c0,0-0.418-0.101,0-0.385C14.575,11.26,17.405,9.296,18.036,9.213z"/>
	<linearGradient id="SVGID_1_" gradientUnits="userSpaceOnUse" x1="21.9868" y1="6.583" x2="24.9624" y2="6.583">
		<stop  offset="0" style="stop-color:#009FCD"/>
		<stop  offset="1" style="stop-color:#007087"/>
	</linearGradient>
	<path fill="url(#SVGID_1_)" d="M21.99,6.906c0,0-0.164-0.733,1.715-1.083c0,0,1.067-0.215,1.25,0.541c0,0,0.249,0.81-2.131,1.008
		C22.824,7.372,22.057,7.388,21.99,6.906z"/>
</g>
</svg>
