<?xml version="1.0" encoding="utf-8"?>
<!-- Generator: Adobe Illustrator 15.0.0, SVG Export Plug-In . SVG Version: 6.00 Build 0)  -->
<!DOCTYPE svg PUBLIC "-//W3C//DTD SVG 1.1//EN" "http://www.w3.org/Graphics/SVG/1.1/DTD/svg11.dtd">
<svg version="1.1" id="Layer_1" xmlns="http://www.w3.org/2000/svg" xmlns:xlink="http://www.w3.org/1999/xlink" x="0px" y="0px"
	 width="250px" height="250px" viewBox="0 0 250 250" enable-background="new 0 0 250 250" xml:space="preserve">
<circle fill="#F9F9F9" cx="123.577" cy="102.748" r="87.252"/>
<path fill="#ADADAD" d="M124.625,5.601c-53.855,0-97.512,43.658-97.512,97.512c0,31.662,18.302,56.227,38.467,77.612
	c14.853,15.751,59.045,64.3,59.045,64.3s42.947-47.097,59.055-64.31c20.079-21.458,38.457-45.945,38.457-77.603
	C222.137,49.259,178.48,5.601,124.625,5.601z M124.142,184.105c-45.19,0-81.826-36.635-81.826-81.825
	c0-45.189,36.636-81.824,81.826-81.824c45.186,0,81.825,36.635,81.825,81.824C205.967,147.471,169.328,184.105,124.142,184.105z"/>
<g>
	<path fill="#CCCCCC" d="M104.511,71.874c0,0-7.848-22.808,19.003-27.643c0,0,14.263-2.447,15.921,6.123
		c0,0,11.541,2.37,6.113,21.537c0,0,5.686,0.318,0.379,8.355c0,0-0.963,1.708-3.486,1.708c0,0-5.152,15.672-17.039,17.002
		c0,0-10.063,1.762-17.749-17.087c0,0-4.363,0.558-5.694-6.406C101.978,75.446,100.707,71.633,104.511,71.874z"/>
	<path fill="#CCCCCC" d="M138.045,98.993c-0.859,7.231-8.949,18.953-8.949,18.953l-1.743-9.069l1.262-2.738l-3.676-3.118
		l-3.76,3.048l1.193,2.774l-1.665,9.103c-3.255-1.993-8.862-18.952-8.862-18.952l-8.871,2.533c0,0-0.386,0.129-1.143,0.353
		l1.812-0.49l2.284-0.669c-0.051,0.155-5.204,15.645,0.232,31.274c0.197-0.033,0.369-0.033,0.566-0.033
		c2.971,0,5.375,2.422,5.375,5.392c0,2.972-2.405,5.394-5.375,5.394c-2.98,0-5.401-2.44-5.401-5.411
		c0-1.391,0.523-2.661,1.408-3.623c-6.139-17.021-1.528-30.948-1.288-31.722c-1.631,0.524-4.654,1.614-9.249,3.513
		c-7.437,3.082-8.475,16.874-8.475,16.874s-2.285,20.127-2.285,23.975c0,3.915,2.773,4.035,2.773,4.035s77.483,0,81.262,0
		c3.813,0,3.023-4.172,3.023-4.172s-0.482-8.107-2.063-22.259c-1.578-14.187-5.855-16.907-9.17-18.806
		c-1.633-0.911-6.234-2.404-10.545-3.692c0.016,0.772,0.309,7.015-0.619,11.094c2.043,0.859,5.221,2.749,5.822,6.217
		c0.703,4.122-0.67,18.171-0.824,19.751c-0.223,2.301-2.164,5.633-6.715,5.633c0,0-0.035-0.051-0.07-0.051
		c-0.102,0.051-0.205,0.086-0.342,0.086c-0.961,0-1.752-0.824-1.752-1.787c0-0.997,0.791-1.786,1.752-1.786c0.033,0,0.068,0,0.102,0
		l0,0c3.23,0.171,3.521-2.164,3.539-2.439c0.412-4.19,1.391-15.731,0.859-18.823c-0.447-2.679-4.467-3.899-4.887-4.018
		c-5.789-1.168-8.107,4.877-8.211,5.152c-0.051,0.138-3.236,7.832-4.68,12.554c-0.969,3.212,1.967,4.861,2.414,5.102
		c0.678,0.24,1.16,0.892,1.16,1.648c0,0.962-0.773,1.769-1.762,1.769c-0.352,0-0.652-0.12-0.936-0.291v0.033
		c-2.121-1.029-5.745-4.292-4.233-9.257c1.477-4.86,4.628-12.521,4.767-12.829c1.07-2.851,4.619-7.831,10.604-7.505
		c0.688-3.006,0.688-9.333,0.637-11.241"/>
</g>
</svg>
