<?xml version="1.0" encoding="utf-8"?>
<!-- Generator: Adobe Illustrator 15.0.0, SVG Export Plug-In . SVG Version: 6.00 Build 0)  -->
<!DOCTYPE svg PUBLIC "-//W3C//DTD SVG 1.1//EN" "http://www.w3.org/Graphics/SVG/1.1/DTD/svg11.dtd">
<svg version="1.1" id="Layer_1" xmlns="http://www.w3.org/2000/svg" xmlns:xlink="http://www.w3.org/1999/xlink" x="0px" y="0px"
	 width="250px" height="250px" viewBox="0 0 250 250" enable-background="new 0 0 250 250" xml:space="preserve">
<circle fill="#F9F9F9" cx="123.577" cy="102.748" r="87.252"/>
<path fill="#ADADAD" d="M124.625,5.601c-53.855,0-97.512,43.658-97.512,97.512c0,31.662,18.302,56.227,38.467,77.612
	c14.853,15.751,59.045,64.3,59.045,64.3s42.947-47.097,59.055-64.31c20.079-21.458,38.457-45.945,38.457-77.603
	C222.137,49.259,178.48,5.601,124.625,5.601z M124.142,184.105c-45.19,0-81.826-36.635-81.826-81.825
	c0-45.189,36.636-81.824,81.826-81.824c45.186,0,81.825,36.635,81.825,81.824C205.967,147.471,169.328,184.105,124.142,184.105z"/>
<g>
	<path fill="#CCCCCC" d="M126.323,119.422v11.367c0,0,11.782-4.02,14.92-6.479c3.141-2.444,3.479-5.061,1.048-7.232
		c0,0-0.946-0.882-5.669,0C131.93,117.945,126.323,119.422,126.323,119.422z"/>
	<path fill="#CCCCCC" d="M115.057,114.909l7.845-2.17v28.351c0,0,20.975,0,23.316,5.148c0,0,1.39,8.174-2.516,8.26
		c-3.939,0.088-51.13,0-51.13,0s-1.751-6.58-0.521-8.678c1.214-2.1,16.026-4.469,22.918-4.803L115.057,114.909z"/>
	<path fill="#CCCCCC" d="M115.071,87.18v6.711l8.381-2.002v-5.157c0,0,18.5-1.656,22.781-13.003c0,0,1.923-3.051-2.018-3.051
		c-3.92,0-51.392,0-51.392,0s-2.357,0.434-1.035,2.964c1.302,2.532,6.453,11.616,23.027,13.003L115.071,87.18z"/>
	<path fill="#CCCCCC" d="M108.793,56.892l3.139,2.531c0,0-6.726,3.913-9.864,7.226c0,0-1.881,1.706-0.694-0.781
		c1.179-2.475,1.642-3.45,1.642-3.45L98.633,64c0,0-1.1-0.253,0-1.005C99.71,62.25,107.129,57.109,108.793,56.892z"/>
	<path fill="#CCCCCC" d="M168.277,65.361c-3.646-19.461-25.986-21.299-37.759-23.136c-11.773-1.822-19.547,7.065-20.279,8.223
		c-0.694,1.121-0.088,2.351-0.088,2.351c4.116,8.281,19.644,5.944,21.567,5.496c1.909-0.441,10.725-1.655,10.725-1.655
		c14.581,0.498,14.928,13.415,14.928,13.415c-0.622,21.031-25.739,23.924-25.739,23.924l-19.106,4.086
		c-22.681,3.854-21.958,18.074-21.958,18.074c-0.159,17.112,20.38,16.229,20.38,16.229v-12.136c-8.485-0.087-7.622-3.92-7.622-3.92
		c0.607-4.035,7.959-5.67,7.959-5.67l26.33-6.032C174.788,94.066,168.277,65.361,168.277,65.361z M121.32,52.061
		c0,0-1.982,0.059-2.178-1.229c0,0-0.426-1.909,4.505-2.828c0,0,2.785-0.578,3.254,1.425
		C126.901,49.429,127.575,51.555,121.32,52.061z"/>
</g>
</svg>
