<?xml version="1.0" encoding="utf-8"?>
<!-- Generator: Adobe Illustrator 15.0.0, SVG Export Plug-In . SVG Version: 6.00 Build 0)  -->
<!DOCTYPE svg PUBLIC "-//W3C//DTD SVG 1.1//EN" "http://www.w3.org/Graphics/SVG/1.1/DTD/svg11.dtd">
<svg version="1.1" id="Layer_1" xmlns="http://www.w3.org/2000/svg" xmlns:xlink="http://www.w3.org/1999/xlink" x="0px" y="0px"
	 width="250px" height="250px" viewBox="0 0 250 250" enable-background="new 0 0 250 250" xml:space="preserve">
<circle fill="#F9F9F9" cx="123.577" cy="102.748" r="87.252"/>
<path fill="#ADADAD" d="M124.625,5.601c-53.855,0-97.512,43.658-97.512,97.512c0,31.662,18.302,56.227,38.467,77.612
	c14.853,15.751,59.045,64.3,59.045,64.3s42.947-47.097,59.055-64.31c20.079-21.458,38.457-45.945,38.457-77.603
	C222.137,49.259,178.48,5.601,124.625,5.601z M124.142,184.105c-45.19,0-81.826-36.635-81.826-81.825
	c0-45.189,36.636-81.824,81.826-81.824c45.186,0,81.825,36.635,81.825,81.824C205.967,147.471,169.328,184.105,124.142,184.105z"/>
<polygon fill="#CCCCCC" points="178.779,87.406 140.342,87.406 140.342,48.979 109.619,48.979 109.619,87.406 71.221,87.406 
	71.221,118.119 109.619,118.119 109.619,156.517 140.342,156.517 140.342,118.119 178.779,118.119 "/>
</svg>
