<?xml version="1.0" encoding="utf-8"?>
<!-- Generator: Adobe Illustrator 15.0.0, SVG Export Plug-In . SVG Version: 6.00 Build 0)  -->
<!DOCTYPE svg PUBLIC "-//W3C//DTD SVG 1.1//EN" "http://www.w3.org/Graphics/SVG/1.1/DTD/svg11.dtd">
<svg version="1.1" id="Layer_1" xmlns="http://www.w3.org/2000/svg" xmlns:xlink="http://www.w3.org/1999/xlink" x="0px" y="0px"
	 width="250px" height="250px" viewBox="0 0 250 250" enable-background="new 0 0 250 250" xml:space="preserve">
<circle fill="#F9F9F9" cx="123.577" cy="102.748" r="87.252"/>
<path fill="#ADADAD" d="M124.625,5.601c-53.855,0-97.512,43.658-97.512,97.512c0,31.662,18.302,56.227,38.467,77.612
	c14.853,15.751,59.045,64.3,59.045,64.3s42.947-47.097,59.055-64.31c20.079-21.458,38.457-45.945,38.457-77.603
	C222.137,49.259,178.48,5.601,124.625,5.601z M124.142,184.105c-45.19,0-81.826-36.635-81.826-81.825
	c0-45.189,36.636-81.824,81.826-81.824c45.186,0,81.825,36.635,81.825,81.824C205.967,147.471,169.328,184.105,124.142,184.105z"/>
<path fill="#CCCCCC" d="M79.802,50.162c0,0-1.052,12.449,9.116,21.836c10.178,9.388,49.967,39.183,50.747,62.51
	c0,0,0.628,13.33-3.755,21.156l-5.304-7.655c0,0-2.671-2.808-6.579-0.952c-3.913,1.877-17.961,8.626-17.961,8.626
	s-10.083,3.181-9.035-6.112c1.314-11.663,0-13.614,0-13.614s-2.623-0.781-4.289-1.562c-1.681-0.781-1.895-5.198-2.052-6.522
	c0,0-4.504-1.515-5.08-2.2c-0.581-0.665,1.495-2.75,0.919-5.369c-0.577-2.609-1.805-7.104-3.785-8.398
	c-1.976-1.294-8.421-1.428-8.988-1.465c-0.586-0.048-2.076-1.144-1.143-3.237c0.938-2.085,7.812-13.521,8.964-16.534
	c1.137-3.032,1.594-6.95,1.342-7.469l-0.894-1.138l-3.395,0.205c0,0,3.336-3.813,2.818-6.008
	C80.921,74.055,76.065,55.522,79.802,50.162z"/>
<path fill="#CCCCCC" d="M91.247,41.074c0,0-3.538,17.238,32.466,38.617c36.004,21.398,39.775,48.114,27.396,67.223
	c0,0-11.748,20.518-33.966,23.335c0,0,24.103-13.785,30.681-31.941c0,0,13.453-28.192-36.008-59.183
	C111.816,79.115,86.667,64.714,91.247,41.074z"/>
<path fill="#CCCCCC" d="M101.962,39.984c0,0,9.545,8.302,19.565,13.462c10.017,5.175,50.729,22.075,58.697,54.803
	c0,0,10.606,30.524-22.717,51.347c0,0,33.209-33.028,3.941-69.199c0,0-13.625-18.156-40.398-31.152
	C121.062,59.235,105.627,50.943,101.962,39.984z"/>
</svg>
