<?xml version="1.0" encoding="utf-8"?>
<!-- Generator: Adobe Illustrator 15.0.0, SVG Export Plug-In . SVG Version: 6.00 Build 0)  -->
<!DOCTYPE svg PUBLIC "-//W3C//DTD SVG 1.1//EN" "http://www.w3.org/Graphics/SVG/1.1/DTD/svg11.dtd">
<svg version="1.1" id="Layer_1" xmlns="http://www.w3.org/2000/svg" xmlns:xlink="http://www.w3.org/1999/xlink" x="0px" y="0px"
	 width="250px" height="250px" viewBox="0 0 250 250" enable-background="new 0 0 250 250" xml:space="preserve">
<circle fill="#F9F9F9" cx="123.577" cy="102.748" r="87.252"/>
<path fill="#ADADAD" d="M124.625,5.601c-53.855,0-97.512,43.658-97.512,97.512c0,31.662,18.302,56.227,38.467,77.612
	c14.853,15.751,59.045,64.3,59.045,64.3s42.947-47.097,59.055-64.31c20.079-21.458,38.457-45.945,38.457-77.603
	C222.137,49.259,178.48,5.601,124.625,5.601z M124.142,184.105c-45.19,0-81.826-36.635-81.826-81.825
	c0-45.189,36.636-81.824,81.826-81.824c45.186,0,81.825,36.635,81.825,81.824C205.967,147.471,169.328,184.105,124.142,184.105z"/>
<g>
	<path fill="#CCCCCC" d="M134.992,78.746l6.29-17.79l-21.795-7.702h-0.55l-15.193,42.934l21.79,7.731h0.563l4.482-12.706
		c10.877,2.271,18.745,11.925,18.745,23.119c0,13.002-10.602,23.604-23.619,23.604c-6.349,0-12.308-2.646-16.661-7h7.246v-7.911
		H76.653v7.911h16.221c6.248,12.309,18.969,20.162,32.817,20.162c20.307,0,36.809-16.473,36.809-36.766
		C162.53,97.497,151.061,82.904,134.992,78.746z"/>
	<polygon fill="#CCCCCC" points="119.963,108.604 120.506,108.604 121.706,105.279 106.456,99.863 105.906,99.863 105.891,99.847 
		104.706,103.196 119.963,108.604 121.164,105.249 121.164,105.279 	"/>
	<polygon fill="#CCCCCC" points="134.977,57.08 139.373,44.548 130.284,41.379 129.733,41.379 125.338,53.862 134.427,57.08 	"/>
	<polygon fill="#CCCCCC" points="110.722,152.082 110.722,157.375 145.072,157.375 145.621,157.375 145.621,152.082 
		145.072,152.082 	"/>
</g>
</svg>
