<?xml version="1.0" encoding="utf-8"?>
<!-- Generator: Adobe Illustrator 15.0.0, SVG Export Plug-In . SVG Version: 6.00 Build 0)  -->
<!DOCTYPE svg PUBLIC "-//W3C//DTD SVG 1.1//EN" "http://www.w3.org/Graphics/SVG/1.1/DTD/svg11.dtd">
<svg version="1.1" id="Layer_1" xmlns="http://www.w3.org/2000/svg" xmlns:xlink="http://www.w3.org/1999/xlink" x="0px" y="0px"
	 width="250px" height="250px" viewBox="0 0 250 250" enable-background="new 0 0 250 250" xml:space="preserve">
<circle fill="#F9F9F9" cx="123.577" cy="102.748" r="87.252"/>
<path fill="#ADADAD" d="M124.625,5.601c-53.855,0-97.512,43.658-97.512,97.512c0,31.662,18.302,56.227,38.467,77.612
	c14.853,15.751,59.045,64.3,59.045,64.3s42.947-47.097,59.055-64.31c20.079-21.458,38.457-45.945,38.457-77.603
	C222.137,49.259,178.48,5.601,124.625,5.601z M124.142,184.105c-45.19,0-81.826-36.635-81.826-81.825
	c0-45.189,36.636-81.824,81.826-81.824c45.186,0,81.825,36.635,81.825,81.824C205.967,147.471,169.328,184.105,124.142,184.105z"/>
<path fill="#CCCCCC" d="M159.417,83.857H143.79V65.682c0-2.337-2.052-4.246-4.594-4.246H107.97c-2.548,0-4.593,1.909-4.593,4.246
	V83.87H87.75c-2.549,0-4.606,2.058-4.606,4.586v51.013c0,2.555,2.058,4.592,4.606,4.592h20.437l-0.217-13.779h30.547l0.109,13.779
	h20.791c2.541,0,4.593-2.037,4.593-4.592V88.442C164.01,85.929,161.958,83.857,159.417,83.857z M106.782,119.248H95.931V108.01
	h10.852V119.248z M106.782,104.125H95.931V92.873h10.852V104.125z M115.45,73.666h5.219v-5.816h5.816v5.802h5.237v5.232h-5.237
	v5.802h-5.816v-5.782h-5.219V73.666z M121.912,119.248h-10.858V108.01h10.858V119.248z M121.912,104.125h-10.858V92.873h10.858
	V104.125z M136.642,119.248h-10.85V108.01h10.85V119.248z M136.642,104.125h-10.85V92.873h10.85V104.125z M151.372,119.248h-10.843
	V108.01h10.843V119.248z M151.372,104.125h-10.843V92.873h10.843V104.125z"/>
</svg>
