<?xml version="1.0" encoding="utf-8"?>
<!-- Generator: Adobe Illustrator 15.0.0, SVG Export Plug-In . SVG Version: 6.00 Build 0)  -->
<!DOCTYPE svg PUBLIC "-//W3C//DTD SVG 1.1//EN" "http://www.w3.org/Graphics/SVG/1.1/DTD/svg11.dtd">
<svg version="1.1" id="Layer_1" xmlns="http://www.w3.org/2000/svg" xmlns:xlink="http://www.w3.org/1999/xlink" x="0px" y="0px"
	 width="250px" height="250px" viewBox="0 0 250 250" enable-background="new 0 0 250 250" xml:space="preserve">
<rect x="-0.5" y="0.5" fill="#F9F9F9" stroke="#FFFFFF" stroke-miterlimit="10" width="250" height="250"/>
<g>
	<path fill="#E2E0E0" d="M94.833,67.937c7.687,4.437,17.705,6.642,26.915,4.067c-1.663-7.954-8.295-16.829-15.993-21.459
		c-6.858-4.173-17.177-7.094-26.146-4.363C80.383,55.245,87.156,63.485,94.833,67.937z"/>
	<path fill="#E2E0E0" d="M185.279,101.805c-7.054-12.317-19.695-20.112-33.387-20.321c-8.892-0.161-17.357,5.064-23.604,6.612
		c-0.09-0.713-1.874-16.605,6.014-28.852l-4.897-3.156c-8.195,12.72-7.331,28.267-6.984,31.985c-6.24-1.58-14.661-6.75-23.514-6.589
		c-13.691,0.208-26.327,8.004-33.387,20.321c-14.238,24.807-3.647,61.56,10.229,81.676c6.793,9.837,14.867,20.91,25.488,20.509
		c9.556-0.387,13.565-5.854,24.162-6.562c10.597,0.708,14.605,6.175,24.166,6.562c10.617,0.401,18.69-10.672,25.483-20.509
		C188.927,163.365,199.519,126.612,185.279,101.805z M127.677,88.239c-0.794,0.166-1.563,0.279-2.276,0.294L127.677,88.239z"/>
</g>
</svg>
