<?xml version="1.0" encoding="utf-8"?>
<!-- Generator: Adobe Illustrator 15.0.0, SVG Export Plug-In . SVG Version: 6.00 Build 0)  -->
<!DOCTYPE svg PUBLIC "-//W3C//DTD SVG 1.1//EN" "http://www.w3.org/Graphics/SVG/1.1/DTD/svg11.dtd">
<svg version="1.1" id="Layer_1" xmlns="http://www.w3.org/2000/svg" xmlns:xlink="http://www.w3.org/1999/xlink" x="0px" y="0px"
	 width="250px" height="250px" viewBox="0 0 250 250" enable-background="new 0 0 250 250" xml:space="preserve">
<circle fill="#F9F9F9" cx="123.577" cy="102.748" r="87.252"/>
<path fill="#ADADAD" d="M124.625,5.601c-53.855,0-97.512,43.658-97.512,97.512c0,31.662,18.302,56.227,38.467,77.612
	c14.853,15.751,59.045,64.3,59.045,64.3s42.947-47.097,59.055-64.31c20.079-21.458,38.457-45.945,38.457-77.603
	C222.137,49.259,178.48,5.601,124.625,5.601z M124.142,184.105c-45.19,0-81.826-36.635-81.826-81.825
	c0-45.189,36.636-81.824,81.826-81.824c45.186,0,81.825,36.635,81.825,81.824C205.967,147.471,169.328,184.105,124.142,184.105z"/>
<path fill="#CCCCCC" d="M126.586,142.807h30.206v-30.231h-30.206V142.807z M90.312,142.807h30.231v-30.231H90.312V142.807z
	 M126.552,87.671c2.946-0.349,6.29-0.715,8.265-0.945c7.915-0.902,15.048-8.017,15.916-15.933
	c0.902-7.89-4.851-13.609-12.715-12.724c-6.163,0.732-11.797,5.218-14.443,10.895c-2.613-5.677-8.282-10.162-14.47-10.895
	c-7.933-0.885-13.609,4.834-12.707,12.724c0.91,7.916,8.035,15.031,15.933,15.933c1.949,0.213,5.303,0.562,8.23,0.911
	c-0.034,0.4,0,0.749,0,0.749h6.043C126.586,88.403,126.62,88.037,126.552,87.671z M136.723,65.406
	c4.256-0.451,7.388,2.622,6.86,6.911c-0.46,4.247-4.307,8.12-8.597,8.571c-4.256,0.485-7.388-2.579-6.877-6.834
	C128.595,69.747,132.467,65.9,136.723,65.406z M112.117,80.905c-4.247-0.468-8.12-4.307-8.588-8.604
	c-0.477-4.272,2.579-7.379,6.852-6.869c4.23,0.451,8.119,4.315,8.622,8.605C119.479,78.309,116.424,81.433,112.117,80.905z
	 M126.586,88.403v18.129h36.283V88.403H126.586z M84.285,106.532h36.224V88.403H84.285V106.532z"/>
</svg>
