<?xml version="1.0" encoding="utf-8"?>
<!-- Generator: Adobe Illustrator 15.0.0, SVG Export Plug-In . SVG Version: 6.00 Build 0)  -->
<!DOCTYPE svg PUBLIC "-//W3C//DTD SVG 1.0//EN" "http://www.w3.org/TR/2001/REC-SVG-20010904/DTD/svg10.dtd">
<svg version="1.0" id="Layer_1" xmlns="http://www.w3.org/2000/svg" xmlns:xlink="http://www.w3.org/1999/xlink" x="0px" y="0px"
	 width="72px" height="72px" viewBox="0 0 72 72" enable-background="new 0 0 72 72" xml:space="preserve">
<g id="Page-1">
	<g id="Icons-Communication" transform="translate(-85.000000, -126.000000)">
		<g id="phone" transform="translate(85.000000, 126.000000)">
			<path id="Shape" fill="#0082B7" d="M14.422,31.247c5.608,11.217,15.223,20.434,26.441,26.443l8.813-8.813
				c1.201-1.201,2.803-1.604,4.007-0.803c4.405,1.604,9.214,2.402,14.42,2.402c2.402,0,4.007,1.604,4.007,4.006v13.622
				c0,2.402-1.604,4.007-4.007,4.007C30.447,72.11,0,41.665,0,4.006C0,1.602,1.602,0,4.006,0h14.021
				c2.404,0,4.006,1.602,4.006,4.006c0,4.808,0.803,9.614,2.405,14.42c0.4,1.205,0,2.805-0.802,4.006L14.422,31.247L14.422,31.247z"
				/>
		</g>
	</g>
</g>
</svg>
