<?xml version="1.0" encoding="utf-8"?>
<!-- Generator: Adobe Illustrator 15.0.0, SVG Export Plug-In . SVG Version: 6.00 Build 0)  -->
<!DOCTYPE svg PUBLIC "-//W3C//DTD SVG 1.0//EN" "http://www.w3.org/TR/2001/REC-SVG-20010904/DTD/svg10.dtd">
<svg version="1.0" id="Layer_1" xmlns="http://www.w3.org/2000/svg" xmlns:xlink="http://www.w3.org/1999/xlink" x="0px" y="0px"
	 width="32px" height="32px" viewBox="0 0 32 32" enable-background="new 0 0 32 32" xml:space="preserve">
<g>
	<path fill="#FFFFFF" d="M16.863,25.233l0.939-3.788l2.082-8.389c0.373-1.493-0.539-3.006-2.034-3.376l-0.271-0.068
		c-0.181-0.046-0.362-0.069-0.542-0.079l0.001-0.055c0,0-0.044,0.02-0.122,0.055c-0.856-0.004-2.108,0.828-2.108,0.828
		c-2.431,1.695-5.759,3.942-5.266,5.014c0.748,1.622,4.391-2.646,3.518,0.873l-0.94,3.788l-2.081,8.39
		c-0.371,1.494,0.419,2.977,1.914,3.348l0.27,0.067c0.182,0.044,0.363,0.069,0.544,0.078l-0.002,0.055c0,0,0.045-0.02,0.123-0.055
		c0.856,0.004,2.108-0.828,2.108-0.828c2.432-1.694,5.82-3.927,5.325-4.999C19.575,24.471,15.991,28.753,16.863,25.233z"/>
	<circle fill="#FFFFFF" cx="16.48" cy="3.93" r="3.904"/>
</g>
</svg>
