<?xml version="1.0" encoding="utf-8"?>
<!-- Generator: Adobe Illustrator 15.0.0, SVG Export Plug-In . SVG Version: 6.00 Build 0)  -->
<!DOCTYPE svg PUBLIC "-//W3C//DTD SVG 1.1//EN" "http://www.w3.org/Graphics/SVG/1.1/DTD/svg11.dtd">
<svg version="1.1" id="Layer_1" xmlns="http://www.w3.org/2000/svg" xmlns:xlink="http://www.w3.org/1999/xlink" x="0px" y="0px"
	 width="48px" height="48px" viewBox="0 0 48 48" enable-background="new 0 0 48 48" xml:space="preserve">
<path fill="#008ECA" d="M33.542,34.744h-4.933v4.979h4.933V34.744z M26.592,21.415h-4.931v4.979h4.931V21.415z M33.542,28.079
	h-4.933v4.98h4.933V28.079z M40.486,21.415h-4.931v4.979h4.931V21.415z M26.592,28.079h-4.931v4.98h4.931V28.079z M33.542,21.415
	h-4.933v4.979h4.933V21.415z M40.486,28.079h-4.931v4.98h4.931V28.079z M12.697,34.744H7.767v4.979h4.931V34.744z M12.697,28.079
	H7.767v4.98h4.931V28.079z M39.218,3.86v2.186c0.851,0.76,1.39,1.868,1.39,3.104c0,2.291-1.839,4.148-4.107,4.148
	c-2.27,0-4.107-1.857-4.107-4.148c0-1.237,0.538-2.345,1.39-3.104V3.86H14.589v2.186c0.851,0.76,1.39,1.868,1.39,3.104
	c0,2.291-1.839,4.148-4.107,4.148S7.764,11.441,7.764,9.15c0-1.237,0.539-2.345,1.39-3.104V3.86H0V48h48V3.86H39.218z
	 M43.616,43.573H4.384V15.997h39.232V43.573L43.616,43.573z M19.647,21.415h-4.934v4.979h4.934V21.415L19.647,21.415z
	 M19.647,34.744h-4.934v4.979h4.934V34.744L19.647,34.744z M26.592,34.744h-4.931v4.979h4.931V34.744z M19.647,28.079h-4.934v4.98
	h4.934V28.079L19.647,28.079z M11.871,11.567c1.13,0,2.045-0.924,2.045-2.064V2.065c0-1.14-0.915-2.065-2.045-2.065
	c-1.129,0-2.045,0.926-2.045,2.065v7.438C9.826,10.644,10.742,11.567,11.871,11.567 M36.5,11.567c1.129,0,2.045-0.924,2.045-2.064
	V2.065C38.545,0.926,37.629,0,36.5,0s-2.045,0.926-2.045,2.065v7.438C34.455,10.644,35.37,11.567,36.5,11.567"/>
</svg>
