<?xml version="1.0" encoding="utf-8"?>
<!-- Generator: Adobe Illustrator 15.0.0, SVG Export Plug-In . SVG Version: 6.00 Build 0)  -->
<!DOCTYPE svg PUBLIC "-//W3C//DTD SVG 1.1//EN" "http://www.w3.org/Graphics/SVG/1.1/DTD/svg11.dtd">
<svg version="1.1" id="Layer_1" xmlns="http://www.w3.org/2000/svg" xmlns:xlink="http://www.w3.org/1999/xlink" x="0px" y="0px"
	 width="48px" height="48px" viewBox="0 0 48 48" enable-background="new 0 0 48 48" xml:space="preserve">
<g>
	<path fill="#008ECA" d="M25.172,30.936l0.838-3.371l1.853-7.472c0.331-1.332-0.48-2.678-1.813-3.008l-0.24-0.061
		c-0.161-0.04-0.323-0.061-0.484-0.069l0.002-0.049c0,0-0.039,0.018-0.108,0.047c-0.762-0.002-1.877,0.738-1.877,0.738
		c-2.165,1.511-5.128,3.513-4.689,4.465c0.665,1.444,3.91-2.355,3.133,0.777l-0.837,3.375l-1.854,7.472
		c-0.329,1.33,0.374,2.65,1.705,2.979l0.241,0.063c0.162,0.039,0.323,0.063,0.484,0.068l-0.002,0.049c0,0,0.04-0.018,0.108-0.047
		c0.763,0.002,1.877-0.738,1.877-0.738c2.166-1.51,5.184-3.498,4.743-4.451C27.586,30.258,24.395,34.07,25.172,30.936z"/>
	<circle fill="#008ECA" cx="24.83" cy="11.964" r="3.476"/>
</g>
<circle fill="none" stroke="#29ABE2" stroke-width="0.5" stroke-miterlimit="10" cx="24" cy="24" r="23.646"/>
</svg>
