<?xml version="1.0" encoding="utf-8"?>
<!-- Generator: Adobe Illustrator 15.0.0, SVG Export Plug-In . SVG Version: 6.00 Build 0)  -->
<!DOCTYPE svg PUBLIC "-//W3C//DTD SVG 1.1//EN" "http://www.w3.org/Graphics/SVG/1.1/DTD/svg11.dtd">
<svg version="1.1" id="Layer_1" xmlns="http://www.w3.org/2000/svg" xmlns:xlink="http://www.w3.org/1999/xlink" x="0px" y="0px"
	 width="32px" height="40px" viewBox="0 0 32 40" enable-background="new 0 0 32 40" xml:space="preserve">
<path fill="#E0AD31" d="M14.346,1.042L14.346,1.042c-0.006,0-0.012,0-0.018,0
	c-0.006,0-0.012,0-0.018,0l0,0C9.836,1.042,1-0.176,1,10.565C1,21.333,14.387,33.84,14.387,33.84s13.27-12.115,13.27-22.883
	C27.656,0.216,18.82,1.042,14.346,1.042z"/>
<image overflow="visible" enable-background="new    " width="720" height="1280" xlink:href="E:\Dhanesh\86a44917-58c4-4301-bbea-b553d09aa93d.jpg"  transform="matrix(1 0 0 1 -830.5 -318.5)">
</image>
<path fill="#FFFFFF" d="M22.151,12.514c0-0.369-0.309-0.668-0.69-0.668c-0.024,0-0.049,0.002-0.071,0.003l-4.77-0.112l-1.628-4.252
	C14.909,7.205,14.646,7,14.329,7s-0.581,0.205-0.664,0.485l-1.63,4.252l-4.768,0.112c-0.022-0.001-0.046-0.003-0.072-0.003
	c-0.38,0-0.689,0.299-0.689,0.668c0,0.236,0.126,0.443,0.316,0.562l3.797,2.685l-1.354,4.212c-0.05,0.092-0.078,0.195-0.078,0.307
	c0,0.369,0.309,0.668,0.691,0.668c0.161,0,0.311-0.055,0.428-0.146l4.023-2.553l4.023,2.554c0.117,0.09,0.266,0.146,0.429,0.146
	c0.381,0,0.688-0.3,0.688-0.669c0-0.11-0.029-0.215-0.078-0.305l-1.353-4.214l3.796-2.685C22.026,12.957,22.151,12.75,22.151,12.514
	"/>
</svg>
