<?xml version="1.0" encoding="utf-8"?>
<!-- Generator: Adobe Illustrator 15.0.0, SVG Export Plug-In . SVG Version: 6.00 Build 0)  -->
<!DOCTYPE svg PUBLIC "-//W3C//DTD SVG 1.1//EN" "http://www.w3.org/Graphics/SVG/1.1/DTD/svg11.dtd">
<svg version="1.1" id="Layer_1" xmlns="http://www.w3.org/2000/svg" xmlns:xlink="http://www.w3.org/1999/xlink" x="0px" y="0px"
	 width="48px" height="48px" viewBox="0 0 48 48" enable-background="new 0 0 48 48" xml:space="preserve">
<path fill="#FFFFFF" d="M3.955,18.171c-2.147,0-3.88,1.733-3.88,3.88s1.733,3.88,3.88,3.88s3.88-1.733,3.88-3.88
	S6.102,18.171,3.955,18.171z M3.955,2.652c-2.147,0-3.88,1.733-3.88,3.88s1.733,3.88,3.88,3.88s3.88-1.733,3.88-3.88
	S6.102,2.652,3.955,2.652z M3.955,34.118c-1.901,0-3.453,1.537-3.453,3.452s1.552,3.453,3.453,3.453s3.453-1.538,3.453-3.453
	S5.856,34.118,3.955,34.118z M11.714,40.157h36.211v-5.174H11.714V40.157z M11.714,24.638h36.211v-5.173H11.714V24.638z
	 M11.714,3.946v5.173h36.211V3.946H11.714z"/>
</svg>
