<?xml version="1.0" encoding="utf-8"?>
<!-- Generator: Adobe Illustrator 15.0.0, SVG Export Plug-In . SVG Version: 6.00 Build 0)  -->
<!DOCTYPE svg PUBLIC "-//W3C//DTD SVG 1.1//EN" "http://www.w3.org/Graphics/SVG/1.1/DTD/svg11.dtd">
<svg version="1.1" id="Layer_1" xmlns="http://www.w3.org/2000/svg" xmlns:xlink="http://www.w3.org/1999/xlink" x="0px" y="0px"
	 width="48px" height="48px" viewBox="0 0 48 48" enable-background="new 0 0 48 48" xml:space="preserve">
<g id="map_x5F_pin_x5F_fill">
	<g>
		<g>
			<path fill="#FFFFFF" d="M34.804,4.453c-5.842-5.841-15.306-5.841-21.148,0c-5.842,5.839-5.842,15.311,0,21.147
				c0,0,10.567,10.364,10.567,22.328c0-11.964,10.578-22.328,10.578-22.328C40.646,19.764,40.646,10.292,34.804,4.453z
				 M24.224,21.018c-3.3,0-5.976-2.676-5.976-5.982c0-3.306,2.676-5.982,5.976-5.982c3.313,0,5.988,2.676,5.988,5.982
				C30.212,18.342,27.536,21.018,24.224,21.018z"/>
		</g>
	</g>
</g>
</svg>
