<?xml version="1.0" encoding="utf-8"?>
<!-- Generator: Adobe Illustrator 15.0.0, SVG Export Plug-In . SVG Version: 6.00 Build 0)  -->
<!DOCTYPE svg PUBLIC "-//W3C//DTD SVG 1.0//EN" "http://www.w3.org/TR/2001/REC-SVG-20010904/DTD/svg10.dtd">
<svg version="1.0" id="Layer_1" xmlns="http://www.w3.org/2000/svg" xmlns:xlink="http://www.w3.org/1999/xlink" x="0px" y="0px"
	 width="48px" height="48px" viewBox="0 0 48 48" enable-background="new 0 0 48 48" xml:space="preserve">
<ellipse fill="none" stroke="#FFFFFF" stroke-linecap="round" stroke-linejoin="round" stroke-miterlimit="10" cx="37.858" cy="10.307" rx="3.713" ry="3.643"/>
<path fill="none" stroke="#FFFFFF" stroke-width="2" stroke-linecap="round" stroke-linejoin="round" stroke-miterlimit="10" d="
	M45.688,23.348L23.377,45.624c-1.731,1.729-4.536,1.728-6.267-0.004L2.26,30.742c-1.733-1.736-1.73-4.555,0.007-6.289L24.483,2.294
	C25.314,1.466,26.441,1,27.612,1h14.945c2.447,0,4.434,1.99,4.434,4.442v14.759C46.991,21.382,46.523,22.513,45.688,23.348z"/>
<g>
	<path fill="#FFFFFF" d="M18.526,24.812c0,3.727-1.959,5.578-4.244,5.578c-2.204,0-4.108-1.769-4.135-5.333
		c0-3.537,1.932-5.522,4.271-5.522C16.894,19.534,18.526,21.438,18.526,24.812z M12.051,24.976
		c-0.055,2.258,0.789,3.972,2.285,3.972c1.578,0,2.286-1.687,2.286-4.026c0-2.149-0.626-3.945-2.286-3.945
		C12.84,20.976,12.051,22.745,12.051,24.976z M14.119,37.816l10.394-18.282h1.524L15.643,37.816H14.119z M30.035,32.131
		c0,3.728-1.959,5.577-4.217,5.577c-2.205,0-4.109-1.769-4.136-5.306c0-3.563,1.932-5.55,4.272-5.55
		C28.43,26.853,30.035,28.757,30.035,32.131z M23.56,32.294c-0.027,2.258,0.843,3.972,2.313,3.972c1.578,0,2.286-1.687,2.286-4.026
		c0-2.149-0.626-3.944-2.286-3.944C24.375,28.295,23.56,30.063,23.56,32.294z"/>
</g>
</svg>
