<?xml version="1.0" encoding="utf-8"?>
<!-- Generator: Adobe Illustrator 15.0.0, SVG Export Plug-In . SVG Version: 6.00 Build 0)  -->
<!DOCTYPE svg PUBLIC "-//W3C//DTD SVG 1.0//EN" "http://www.w3.org/TR/2001/REC-SVG-20010904/DTD/svg10.dtd">
<svg version="1.0" id="Layer_1" xmlns="http://www.w3.org/2000/svg" xmlns:xlink="http://www.w3.org/1999/xlink" x="0px" y="0px"
	 width="32px" height="32px" viewBox="0 0 32 32" enable-background="new 0 0 32 32" xml:space="preserve">
<g>
	<path fill="#FFFFFF" d="M30.844,29H1.222c-0.628,0-1.139-0.51-1.139-1.14V11.912c0-0.629,0.511-1.14,1.139-1.14
		c0.629,0,1.139,0.511,1.139,1.14v14.81h27.343V8.494h-5.696c-0.303,0-0.592-0.121-0.806-0.334l-4.223-4.224h-5.893L8.863,8.16
		C8.65,8.373,8.36,8.494,8.058,8.494H1.222c-0.628,0-1.139-0.511-1.139-1.14c0-0.629,0.511-1.139,1.139-1.139h6.364l4.223-4.224
		c0.213-0.214,0.503-0.333,0.806-0.333h6.836c0.303,0,0.591,0.12,0.805,0.333l4.224,4.224h6.364c0.63,0,1.139,0.51,1.139,1.139
		V27.86C31.982,28.49,31.474,29,30.844,29z"/>
</g>
<g>
	<path fill="#FFFFFF" d="M16.033,24.443c-3.77,0-6.836-3.067-6.836-6.836c0-3.77,3.066-6.835,6.836-6.835
		c3.769,0,6.836,3.066,6.836,6.835C22.869,21.376,19.802,24.443,16.033,24.443z M16.033,13.051c-2.513,0-4.557,2.043-4.557,4.557
		c0,2.515,2.043,4.557,4.557,4.557s4.557-2.042,4.557-4.557C20.59,15.094,18.546,13.051,16.033,13.051z"/>
</g>
</svg>
