<?xml version="1.0" encoding="utf-8"?>
<!-- Generator: Adobe Illustrator 15.0.0, SVG Export Plug-In . SVG Version: 6.00 Build 0)  -->
<!DOCTYPE svg PUBLIC "-//W3C//DTD SVG 1.0//EN" "http://www.w3.org/TR/2001/REC-SVG-20010904/DTD/svg10.dtd">
<svg version="1.0" id="Layer_1" xmlns="http://www.w3.org/2000/svg" xmlns:xlink="http://www.w3.org/1999/xlink" x="0px" y="0px"
	 width="100px" height="100px" viewBox="0 0 100 100" enable-background="new 0 0 100 100" xml:space="preserve">
<g id="Page-1" opacity="0.7">
	<g id="Icons-AV" transform="translate(-168.000000, -85.000000)">
		<g id="play-circle-outline" transform="translate(168.000000, 85.000000)">
			<path id="Shape" fill="#FFFFFF" d="M40.022,72.539l30.016-22.512L40.022,27.515V72.539L40.022,72.539z M50.027,0
				C22.513,0,0,22.513,0,50.027s22.513,50.027,50.027,50.027s50.027-22.513,50.027-50.027S77.542,0,50.027,0L50.027,0z
				 M50.027,90.049c-22.012,0-40.022-18.007-40.022-40.021c0-22.014,18.01-40.022,40.022-40.022
				c22.015,0,40.021,18.008,40.021,40.022C90.049,72.042,72.042,90.049,50.027,90.049L50.027,90.049z"/>
		</g>
	</g>
</g>
</svg>
