<?xml version="1.0" encoding="utf-8"?>
<!-- Generator: Adobe Illustrator 15.0.0, SVG Export Plug-In . SVG Version: 6.00 Build 0)  -->
<!DOCTYPE svg PUBLIC "-//W3C//DTD SVG 1.1//EN" "http://www.w3.org/Graphics/SVG/1.1/DTD/svg11.dtd">
<svg version="1.1" id="Layer_1" xmlns="http://www.w3.org/2000/svg" xmlns:xlink="http://www.w3.org/1999/xlink" x="0px" y="0px"
	 width="32px" height="40px" viewBox="0 0 32 40" enable-background="new 0 0 32 40" xml:space="preserve">
<path fill="#EA0637" d="M14.346,1.042L14.346,1.042c-0.006,0-0.012,0-0.018,0c-0.006,0-0.012,0-0.018,0l0,0
	C9.836,1.042,1-0.176,1,10.565C1,21.333,14.387,33.84,14.387,33.84s13.27-12.115,13.27-22.883
	C27.656,0.216,18.82,1.042,14.346,1.042z"/>
<g>
	<g transform="translate(0.000000,511.000000) scale(0.100000,-0.100000)">
		<path fill="#FFFFFF" d="M157.93,5034.375c-1.45-0.146-5.459-0.391-8.955-0.537c-5.469-0.215-6.816-0.391-9.746-1.167
			c-8.389-2.251-13.848-5.972-13.335-9.063c0.132-0.62-0.171-0.806-2.314-1.406c-1.357-0.366-3.936-0.776-5.679-0.869l-3.242-0.205
			l1.758-0.366l1.738-0.332l-1.738-0.317c-1.626-0.308-1.67-0.342-0.444-0.366c1.875-0.034,6.294,0.718,9.136,1.587l2.441,0.752
			l2.056-0.664c1.836-0.566,2.847-0.659,8.008-0.659c4.883,0,6.411,0.122,9.043,0.688c3.408,0.728,6.387,2.1,7.778,3.569
			c1.05,1.084,1.787,1.206,10.054,1.475c9.36,0.293,16.235-0.82,20.288-3.364c4.98-3.062,7.021-8.516,7.021-18.442
			c0-5.933-0.498-8.12-2.705-11.602c-4.668-7.412-13.809-13.022-31.162-19.136l-6.113-2.153l-0.127-4.385
			c-0.049-2.402,0-4.375,0.127-4.375c0.171,0,2.651,0.747,5.591,1.675c29.995,9.507,43.765,19.878,46.245,34.785
			c0.967,5.884-0.352,15.752-2.705,20.664c-1.836,3.779-3.496,5.64-7.559,8.433c-6.396,4.346-12.539,5.82-25.176,5.962
			C164.028,5034.619,159.37,5034.531,157.93,5034.375z M138.398,5029.433c1.221-0.576,1.221-0.869-0.132-1.768
			c-2.1-1.475-5.508-0.571-3.848,1.016c0.566,0.571,1.875,1.147,2.754,1.201C137.305,5029.912,137.871,5029.697,138.398,5029.433z"
			/>
		<path fill="#FFFFFF" d="M68.677,5012.192c-1.821-0.366-2.173-1.294-1.216-3.33c5.283-11.094,18.799-19.678,37.803-24.028
			c8.35-1.909,16.035-2.842,29.854-3.682l2.93-0.181v-17.813v-17.817h1.88c1.05,0,3.408-0.088,5.239-0.176l3.359-0.215v18.022
			v17.998l3.423,0.21c11.143,0.625,20.103,1.587,22.339,2.397c1.484,0.508,6.953,4.409,8.74,6.24
			c2.197,2.188,4.248,5.483,5.059,8.091c0.635,1.86,0.713,3.447,0.576,8.101c-0.088,3.154-0.313,5.938-0.479,6.152
			c-0.313,0.264-12.598,0.352-59.224,0.327C93.857,5012.49,69.512,5012.343,68.677,5012.192z"/>
		<path fill="#FFFFFF" d="M206.934,5007.207c0.254-4.858,0-7.891-0.967-11.841l-0.215-0.991l2.012,1.494
			c5.059,3.789,8.691,7.827,10.938,12.217c1.992,3.926,1.182,4.429-7.08,4.429h-5L206.934,5007.207z"/>
		<path fill="#FFFFFF" d="M128.564,4964.565c-10.103-3.481-15.82-6.626-18.32-10.132c-1.743-2.407-1.958-5.762-0.605-8.252
			c1.748-3.267,6.738-6.211,13.374-7.915c5.244-1.353,9.961-1.924,18.75-2.222c8.789-0.298,13.242-0.747,17.393-1.768
			c7.866-1.89,10.503-4.683,7.056-7.495c-1.499-1.235-7.314-3.179-11.333-3.779l-3.286-0.513v-3.149v-3.145l1.885,0.205
			c10.85,1.147,19.424,4.502,22.48,8.823c1.035,1.401,1.221,2.07,1.162,4.077c0,1.982-0.195,2.7-1.162,4.102
			c-1.611,2.285-5.732,4.888-10.02,6.333c-6.211,2.07-10.586,2.642-26.143,3.511c-8.789,0.444-15.913,2.129-18.838,4.404
			c-3.276,2.603-0.132,5.43,10.005,8.94l4.023,1.382v4.199c0,3.413-0.127,4.16-0.61,4.16
			C134.023,4966.333,131.401,4965.527,128.564,4964.565z"/>
		<path fill="#FFFFFF" d="M138.052,4918.598v-15.444l1.348-0.225c0.742-0.068,3.105-0.186,5.244-0.186h3.896v15.464v15.435h-3.247
			c-1.748,0-4.102,0.088-5.239,0.181l-2.007,0.215v-15.439H138.052z"/>
		<path fill="#FFFFFF" d="M129.087,4920.747c-6.777-1.216-11.24-2.778-14.595-5.098c-2.891-1.978-4.155-3.833-4.331-6.455
			c-0.396-5.269,4.678-9.126,15.083-11.528c6.558-1.504,11.626-1.904,21.982-1.689c12.241,0.205,19.316,0.977,19.98,2.168
			c0.82,1.514-5.161,2.334-21.372,2.822c-9.663,0.254-13.472,0.645-18.369,1.895c-5.986,1.455-9.087,3.462-9.087,5.757
			c0,2.69,4.326,4.878,12.412,6.279l3.975,0.708l0.132,2.871l0.132,2.866l-1.44-0.02
			C132.803,4921.323,130.791,4921.044,129.087,4920.747z"/>
		<path fill="#FFFFFF" d="M137.92,4892.685c-0.269-1.719-1.45-2.861-3.418-3.32c-1.04-0.234-6.025-0.371-16.475-0.371
			c-16.523-0.039-16.919-0.078-18.262-1.895c-1.05-1.357-0.571-3.096,1.084-4.258l1.357-0.947h41.084h41.094l1.357,0.947
			c1.66,1.162,2.129,2.9,1.094,4.258c-1.357,1.816-1.709,1.855-18.496,1.855c-13.608,0-15.386,0.078-16.748,0.547
			c-1.748,0.557-3.066,2.119-3.066,3.604v0.947h-5.195h-5.156L137.92,4892.685z"/>
	</g>
</g>
</svg>
