<?xml version="1.0" encoding="utf-8"?>
<!-- Generator: Adobe Illustrator 15.0.0, SVG Export Plug-In . SVG Version: 6.00 Build 0)  -->
<!DOCTYPE svg PUBLIC "-//W3C//DTD SVG 1.1//EN" "http://www.w3.org/Graphics/SVG/1.1/DTD/svg11.dtd">
<svg version="1.1" id="Layer_1" xmlns="http://www.w3.org/2000/svg" xmlns:xlink="http://www.w3.org/1999/xlink" x="0px" y="0px"
	 width="64px" height="64px" viewBox="0 0 64 64" enable-background="new 0 0 64 64" xml:space="preserve">
<g>
	<g id="miu">
		<g id="Artboard-1" transform="translate(-683.000000, -191.000000)">
			<g id="slice" transform="translate(215.000000, 119.000000)">
			</g>
			<path id="editor-undo-arrow-glyph" fill="#FFFFFF" d="M746.836,218.767l-7.979,9.311l-7.979-9.311h4.988
				c-1.899-11.321-11.747-19.948-23.607-19.948c-13.222,0-23.938,10.717-23.938,23.938c0,12.907,10.213,23.431,23,23.921V252l0,0
				c-15.726-0.494-28.32-13.398-28.32-29.243c0-16.159,13.099-29.258,29.258-29.258c14.806,0,27.043,10.998,28.987,25.268H746.836z"
				/>
		</g>
	</g>
	<g>
		<path fill="#FFFFFF" d="M27.247,39.797v4.201H11.391c0.172-1.588,0.687-3.094,1.545-4.516c0.859-1.422,2.554-3.308,5.087-5.658
			c2.039-1.899,3.29-3.188,3.751-3.864c0.623-0.934,0.934-1.856,0.934-2.769c0-1.009-0.271-1.784-0.813-2.326
			s-1.291-0.813-2.246-0.813c-0.944,0-1.696,0.285-2.253,0.853c-0.558,0.569-0.88,1.513-0.966,2.833l-4.508-0.451
			c0.268-2.49,1.111-4.277,2.527-5.361c1.417-1.084,3.188-1.626,5.313-1.626c2.329,0,4.159,0.628,5.489,1.884
			c1.331,1.255,1.996,2.817,1.996,4.684c0,1.063-0.19,2.074-0.571,3.035s-0.985,1.967-1.811,3.019
			c-0.547,0.698-1.535,1.701-2.962,3.011c-1.428,1.309-2.332,2.178-2.712,2.607c-0.381,0.429-0.69,0.848-0.926,1.256H27.247z"/>
		<path fill="#FFFFFF" d="M39.176,43.998v-4.749h-9.659v-3.96l10.238-14.987h3.8v14.972h2.93v3.976h-2.93v4.749H39.176z
			 M39.176,35.273v-8.065l-5.425,8.065H39.176z"/>
	</g>
</g>
</svg>
