<?xml version="1.0" encoding="utf-8"?>
<!-- Generator: Adobe Illustrator 15.0.0, SVG Export Plug-In . SVG Version: 6.00 Build 0)  -->
<!DOCTYPE svg PUBLIC "-//W3C//DTD SVG 1.0//EN" "http://www.w3.org/TR/2001/REC-SVG-20010904/DTD/svg10.dtd">
<svg version="1.0" id="Layer_1" xmlns="http://www.w3.org/2000/svg" xmlns:xlink="http://www.w3.org/1999/xlink" x="0px" y="0px"
	 width="28.648px" height="14.867px" viewBox="0 0 28.648 14.867" enable-background="new 0 0 28.648 14.867" xml:space="preserve">
<g>
	<g>
		<path fill="#FFFFFF" d="M14.344,5.194L14.344,5.194c-0.006-0.001-0.013-0.001-0.019-0.001s-0.012,0-0.018,0v0.001
			c-1.21,0.03-2.184,1.021-2.184,2.237s0.973,2.208,2.184,2.236V9.67c0.006,0,0.012-0.002,0.018-0.002
			c0.005,0,0.012,0.002,0.019,0.002V9.668c1.219-0.028,2.183-1.021,2.183-2.236C16.527,6.215,15.563,5.225,14.344,5.194z"/>
		<path fill="#FFFFFF" d="M27.597,5.621C24.837,3.375,20.191,0.111,14.344,0l0,0c-0.006,0-0.013,0-0.019,0s-0.012,0-0.018,0l0,0
			C8.464,0.111,3.812,3.375,1.052,5.621C0.92,5.729,0.016,6.422,0.001,7.308C-0.01,7.932,0.281,8.393,0.699,8.778
			c2.255,2.181,7.177,6.06,13.609,6.087v0.002c0.006,0,0.012,0,0.018,0c0.005,0,0.012,0,0.019,0v-0.002
			c6.444-0.027,11.352-3.906,13.606-6.087c0.418-0.386,0.709-0.847,0.697-1.471C28.632,6.422,27.73,5.729,27.597,5.621z
			 M14.325,13.188c-3.162-0.021-5.719-2.59-5.719-5.756s2.557-5.735,5.719-5.755c3.169,0.02,5.719,2.589,5.719,5.755
			S17.494,13.166,14.325,13.188z"/>
	</g>
</g>
</svg>
