<?xml version="1.0" encoding="utf-8"?>
<!-- Generator: Adobe Illustrator 15.0.0, SVG Export Plug-In . SVG Version: 6.00 Build 0)  -->
<!DOCTYPE svg PUBLIC "-//W3C//DTD SVG 1.0//EN" "http://www.w3.org/TR/2001/REC-SVG-20010904/DTD/svg10.dtd">
<svg version="1.0" id="Layer_1" xmlns="http://www.w3.org/2000/svg" xmlns:xlink="http://www.w3.org/1999/xlink" x="0px" y="0px"
	 width="72px" height="72px" viewBox="0 0 72 72" enable-background="new 0 0 72 72" xml:space="preserve">
<g id="map_x5F_pin_x5F_fill">
	<g>
		<g>
			<path fill="#273238" d="M51.188,6.552c-8.777-8.777-23-8.777-31.778,0c-8.778,8.774-8.778,23.009,0,31.778
				c0,0,15.88,15.575,15.88,33.554c0-17.979,15.896-33.554,15.896-33.554C59.968,29.561,59.968,15.326,51.188,6.552z M35.291,31.444
				c-4.96,0-8.98-4.021-8.98-8.99c0-4.968,4.02-8.989,8.98-8.989c4.977,0,8.998,4.021,8.998,8.989
				C44.289,27.423,40.268,31.444,35.291,31.444z"/>
		</g>
	</g>
</g>
</svg>
