<?xml version="1.0" encoding="utf-8"?>
<!-- Generator: Adobe Illustrator 15.0.0, SVG Export Plug-In . SVG Version: 6.00 Build 0)  -->
<!DOCTYPE svg PUBLIC "-//W3C//DTD SVG 1.0//EN" "http://www.w3.org/TR/2001/REC-SVG-20010904/DTD/svg10.dtd">
<svg version="1.0" id="Layer_1" xmlns="http://www.w3.org/2000/svg" xmlns:xlink="http://www.w3.org/1999/xlink" x="0px" y="0px"
	 width="32px" height="24px" viewBox="0 4 32 24" enable-background="new 0 4 32 24" xml:space="preserve">
<g>
	<path fill="#E02F2F" d="M31.67,9.179c0,0-0.313-2.353-1.271-3.389c-1.217-1.358-2.58-1.366-3.205-1.443C22.717,4,16.002,4,16.002,4
		h-0.015c0,0-6.715,0-11.191,0.347C4.171,4.424,2.809,4.432,1.591,5.79C0.633,6.826,0.32,9.179,0.32,9.179S0,11.94,0,14.701v2.588
		c0,2.763,0.32,5.523,0.32,5.523s0.312,2.352,1.271,3.386c1.218,1.358,2.815,1.317,3.527,1.459C7.677,27.919,15.995,28,15.995,28
		s6.722-0.012,11.198-0.355c0.625-0.08,1.988-0.088,3.205-1.445c0.959-1.034,1.271-3.387,1.271-3.387s0.32-2.761,0.32-5.522v-2.588
		C31.99,11.94,31.67,9.179,31.67,9.179z"/>
	<polygon fill="#FFFFFF" points="12,10 12,22 22,16 	"/>
</g>
</svg>
