<?xml version="1.0" encoding="utf-8"?>
<!-- Generator: Adobe Illustrator 15.0.0, SVG Export Plug-In . SVG Version: 6.00 Build 0)  -->
<!DOCTYPE svg PUBLIC "-//W3C//DTD SVG 1.1//EN" "http://www.w3.org/Graphics/SVG/1.1/DTD/svg11.dtd">
<svg version="1.1" id="Layer_1" xmlns="http://www.w3.org/2000/svg" xmlns:xlink="http://www.w3.org/1999/xlink" x="0px" y="0px"
	 width="18px" height="96px" viewBox="0 0 18 96" enable-background="new 0 0 18 96" xml:space="preserve">
<path fill="#BF7C04" d="M15.646,21.389c0-0.369-0.311-0.668-0.691-0.668c-0.025,0-0.049,0.002-0.072,0.003l-4.77-0.112L8.486,16.36
	c-0.083-0.28-0.347-0.485-0.663-0.485c-0.316,0-0.581,0.205-0.663,0.485l-1.63,4.252l-4.768,0.112
	c-0.022-0.001-0.047-0.003-0.073-0.003c-0.38,0-0.689,0.3-0.689,0.668c0,0.236,0.126,0.443,0.316,0.562l3.797,2.685l-1.354,4.212
	c-0.05,0.091-0.078,0.195-0.078,0.306c0,0.369,0.309,0.668,0.691,0.668c0.161,0,0.311-0.055,0.428-0.145l4.022-2.554l4.024,2.554
	c0.117,0.089,0.266,0.145,0.428,0.145c0.381,0,0.689-0.299,0.689-0.668c0-0.111-0.029-0.215-0.079-0.306l-1.353-4.212l3.796-2.685
	C15.521,21.832,15.646,21.625,15.646,21.389"/>
<path fill="#F7A706" d="M15.646,37.327c0-0.369-0.311-0.668-0.691-0.668c-0.025,0-0.049,0.002-0.072,0.003l-4.77-0.112l-1.627-4.252
	c-0.083-0.28-0.347-0.485-0.663-0.485c-0.316,0-0.581,0.205-0.664,0.485l-1.63,4.252l-4.768,0.112
	c-0.022-0.001-0.047-0.003-0.073-0.003C0.309,36.659,0,36.958,0,37.327c0,0.236,0.126,0.443,0.316,0.562l3.797,2.685l-1.354,4.212
	c-0.05,0.091-0.078,0.195-0.078,0.306c0,0.369,0.309,0.668,0.691,0.668c0.161,0,0.311-0.055,0.428-0.144l4.022-2.554l4.024,2.554
	c0.117,0.089,0.266,0.144,0.428,0.144c0.381,0,0.689-0.299,0.689-0.668c0-0.111-0.029-0.215-0.079-0.306l-1.353-4.212l3.796-2.685
	C15.521,37.77,15.646,37.563,15.646,37.327"/>
<path fill="#FCBF51" d="M15.646,53.576c0-0.368-0.311-0.668-0.691-0.668c-0.025,0-0.049,0.002-0.072,0.004l-4.77-0.112l-1.627-4.252
	c-0.083-0.28-0.347-0.485-0.663-0.485c-0.316,0-0.581,0.205-0.664,0.485L5.529,52.8l-4.768,0.112
	c-0.022-0.002-0.047-0.004-0.073-0.004c-0.38,0-0.689,0.3-0.689,0.668c0,0.236,0.126,0.443,0.316,0.563l3.797,2.686l-1.354,4.212
	c-0.05,0.092-0.078,0.194-0.078,0.307c0,0.368,0.309,0.668,0.691,0.668c0.161,0,0.311-0.055,0.428-0.145l4.022-2.554l4.023,2.554
	c0.118,0.09,0.266,0.145,0.43,0.145c0.381,0,0.688-0.3,0.688-0.668c0-0.11-0.028-0.215-0.079-0.307l-1.354-4.212l3.797-2.686
	C15.521,54.02,15.646,53.813,15.646,53.576"/>
<path fill="#D5D5D5" d="M15.823,5.514c0-0.369-0.31-0.668-0.691-0.668c-0.024,0-0.049,0.002-0.071,0.003l-4.77-0.112L8.663,0.485
	C8.58,0.205,8.316,0,8,0S7.419,0.205,7.336,0.485l-1.63,4.252L0.938,4.849C0.916,4.848,0.892,4.846,0.866,4.846
	c-0.38,0-0.689,0.299-0.689,0.668c0,0.236,0.126,0.443,0.316,0.562L4.29,8.761l-1.354,4.212c-0.05,0.091-0.078,0.195-0.078,0.306
	c0,0.369,0.309,0.668,0.691,0.668c0.161,0,0.311-0.055,0.428-0.145L8,11.249l4.023,2.554c0.117,0.089,0.266,0.145,0.429,0.145
	c0.381,0,0.688-0.299,0.688-0.668c0-0.111-0.029-0.215-0.078-0.306L11.71,8.761l3.796-2.685C15.697,5.957,15.823,5.75,15.823,5.514"
	/>
<circle fill="#BCBCBC" cx="7.823" cy="71.369" r="7.25"/>
<rect x="3.823" y="71.057" fill="#FFFFFF" width="8" height="2"/>
<circle fill="#ED4E4A" cx="7.823" cy="87.369" r="7.25"/>
<rect x="3.823" y="87.057" fill="#FFFFFF" width="8" height="2"/>
</svg>
