<?xml version="1.0" encoding="utf-8"?>
<!-- Generator: Adobe Illustrator 15.0.0, SVG Export Plug-In . SVG Version: 6.00 Build 0)  -->
<!DOCTYPE svg PUBLIC "-//W3C//DTD SVG 1.0//EN" "http://www.w3.org/TR/2001/REC-SVG-20010904/DTD/svg10.dtd">
<svg version="1.0" id="Layer_1" xmlns="http://www.w3.org/2000/svg" xmlns:xlink="http://www.w3.org/1999/xlink" x="0px" y="0px"
	 width="274px" height="85px" viewBox="0 0 274 85" enable-background="new 0 0 274 85" xml:space="preserve">
<g>
	<g>
		<path fill="#FFFFFF" d="M145.107,73.736h-13.181c-4.271,0-6.397-1.815-6.397-5.43v-3.336h2.673v3.336
			c0,2.068,0.992,2.842,3.792,2.842h4.993c2.169,0,2.573-0.445,2.573-2v-7.869h2.707v7.919c0,0.724-0.119,1.354-0.328,1.95h3.168
			V73.736L145.107,73.736z M136.324,66.861h-5.052v-1.446h1.11c-0.076-0.269-0.118-0.521-0.118-0.731
			c0-1.293,0.916-2.244,2.126-2.244c0.874,0,1.513,0.445,1.9,1.319l-1.261,0.597c-0.134-0.377-0.37-0.57-0.655-0.57
			c-0.438,0-0.656,0.27-0.656,0.824c0,0.429,0.143,0.697,0.429,0.798h2.186v1.463h-0.008L136.324,66.861L136.324,66.861z"/>
		<path fill="#FFFFFF" d="M150.379,70.005c0,1.024-0.294,1.874-0.857,2.556c-0.631,0.791-1.513,1.178-2.672,1.178h-2.557v-2.59
			h2.001c0.907,0,1.37-0.631,1.37-1.899v-7.96h2.706v8.725L150.379,70.005L150.379,70.005z"/>
		<path fill="#FFFFFF" d="M163.398,73.736h-2.563c-0.318,2.127-1.79,3.187-4.422,3.187h-0.285v-2.159h0.243
			c1.043,0,1.665-0.388,1.875-1.145c-0.21,0.076-0.748,0.117-1.656,0.117c-2.538,0-4.396-1.84-4.396-4.404
			c0-2.622,1.815-4.379,4.396-4.379c2.472,0,4.287,1.857,4.287,4.438v1.758h2.521V73.736L163.398,73.736z M158.171,71.146v-1.883
			c0-1.135-0.672-1.873-1.664-1.873c-1.024,0-1.563,0.789-1.563,1.814c0,1.102,0.656,1.934,1.656,1.934L158.171,71.146
			L158.171,71.146z"/>
		<path fill="#FFFFFF" d="M176.514,73.736h-13.828v-2.59h10.953c-0.117-2.192-1.781-3.892-4.043-3.892
			c-1.16,0-2.479,0.613-3.244,1.412c-0.277-0.37-0.731-0.967-1.363-1.841c1.313-1.379,2.918-2.051,4.801-2.051
			c4.432,0.024,6.727,3.033,6.727,8.086v0.875H176.514z"/>
		<path fill="#FFFFFF" d="M197.107,73.736h-3.967c-1.061,2.01-3.011,3.212-5.279,3.212c-3.404,0-6.111-2.866-6.111-6.573v-5.414
			h2.725v5.145c0,2.557,1.312,4.321,3.403,4.321c2.103,0,3.388-1.815,3.388-4.321v-5.145h2.707v6.18h3.137v2.596H197.107z
			 M189.198,63.507h-2.404v-2.228h2.404V63.507z"/>
		<path fill="#FFFFFF" d="M207.809,70.988c0,2.598-1.74,4.412-4.445,4.412c-1.647,0-2.885-0.555-3.674-1.664h-3.473v-2.59h2.682
			c0-2.772,1.59-4.529,4.371-4.529C206.044,66.617,207.809,68.34,207.809,70.988z M205.127,71.089c0-1.528-0.588-2.303-1.723-2.303
			h-0.187c-1,0-1.681,0.907-1.681,2.187c0,1.318,0.664,2.228,1.824,2.228C204.421,73.199,205.127,72.342,205.127,71.089z"/>
		<path fill="#FFFFFF" d="M225.555,73.736h-2.725c-1.555,0-2.639-0.799-3.253-2.379c-0.487,0.748-1.412,1.16-2.757,1.16
			c-2.313,0-3.81-2.01-3.81-4.683c0-2.883,1.446-4.741,4.003-4.741c0-0.017,1.715-0.017,5.16-0.017v6.095
			c0,1.277,0.655,1.975,1.992,1.975h1.387v2.59H225.555z M217.585,61.279h-2.396v-2.244h2.396V61.279z M219.4,67.626V65.07h-1.791
			c-1.102,0-1.898,1.219-1.898,2.724c0,1.36,0.771,2.479,1.857,2.479C218.712,70.273,219.4,69.206,219.4,67.626z M221.225,61.279
			h-2.396v-2.244h2.396V61.279z"/>
		<path fill="#FFFFFF" d="M240.727,73.736h-15.787v-2.59h10.986c-0.05-1.024-0.429-1.898-1.101-2.631
			c-0.757-0.822-1.767-1.261-2.978-1.261c-1.158,0-2.479,0.613-3.228,1.412c-0.277-0.37-0.724-0.967-1.361-1.841
			c1.319-1.379,2.899-2.051,4.782-2.051c1.136,0,2.145,0.209,3.01,0.629c2.076,0.984,3.287,2.885,3.614,5.76h2.052v2.589
			L240.727,73.736L240.727,73.736z"/>
		<path fill="#FFFFFF" d="M259.909,73.736h-20.031v-2.59h2.438c0.892,0,1.369-0.461,1.369-1.856v-3.371h2.698v2.488
			c1.707-2.177,3.96-3.464,6.104-3.464c3.177,0,5.025,2.244,5.295,6.203h2.102L259.909,73.736L259.909,73.736z M254.975,71.146
			l0.019-0.344c0-2.001-0.983-3.496-2.683-3.496c-2,0-3.773,1.303-5.263,3.85L254.975,71.146L254.975,71.146z"/>
		<path fill="#FFFFFF" d="M265.197,70.005c0,1.024-0.295,1.874-0.857,2.556c-0.631,0.791-1.529,1.178-2.665,1.178h-2.563v-2.59h2
			c0.908,0,1.371-0.631,1.371-1.899v-7.96h2.707v8.725L265.197,70.005L265.197,70.005z"/>
		<path fill="#FFFFFF" d="M269.879,73.736h-2.715V61.264h2.715V73.736z"/>
	</g>
</g>
<g>
	<path fill="#FFFFFF" d="M20.674,39.373c2.841,0,4.959-0.756,6.338-2.261c1.378-1.513,2.068-3.631,2.068-6.363
		c0-2.287-0.723-4.186-2.169-5.691c-1.454-1.513-3.48-2.261-6.078-2.261c-2.186,0-4.026,0.681-5.514,2.051
		c-1.496,1.37-2.236,3.11-2.236,5.229H1.508l-0.084-0.252c-0.16-4.766,1.647-8.7,5.422-11.793c3.774-3.102,8.439-4.648,13.996-4.648
		c6.178,0,11.096,1.488,14.727,4.455c3.64,2.976,5.464,7.229,5.464,12.786c0,2.791-0.79,5.346-2.362,7.675
		c-1.581,2.328-3.732,4.161-6.473,5.498c3.127,1.21,5.531,3.026,7.229,5.464c1.698,2.446,2.539,5.396,2.539,8.853
		c0,5.573-1.975,9.961-5.926,13.155c-3.951,3.193-9.02,4.791-15.198,4.791c-5.447,0-10.205-1.514-14.282-4.522
		s-6.044-7.237-5.901-12.677l0.076-0.243h11.651c0,2.286,0.79,4.202,2.362,5.75c1.572,1.547,3.606,2.319,6.103,2.319
		c2.732,0,4.951-0.832,6.641-2.472c1.698-1.647,2.547-3.731,2.547-6.237c0-3.201-0.79-5.59-2.387-7.127
		c-1.58-1.547-3.909-2.32-6.968-2.32h-6.616v-9.163L20.674,39.373L20.674,39.373z"/>
</g>
<g>
	<path fill="#FFFFFF" d="M60.325,13.382c2.32,0,4.48,0.218,6.464,0.647c1.984,0.429,3.942,1.068,5.893,1.908l-2.135,8.953
		c-1.866-0.639-3.53-1.118-5.01-1.446c-1.479-0.319-3.186-0.479-5.128-0.479c-3.505,0-6.33,1.37-8.473,4.102s-3.22,6.54-3.22,11.424
		v1.967c1.589-1.597,3.48-2.824,5.683-3.707c2.203-0.874,4.657-1.312,7.372-1.312c5.111,0,9.104,1.841,11.979,5.54
		c2.875,3.699,4.304,8.516,4.304,14.458c0,6.095-1.858,11.07-5.582,14.879c-3.715,3.824-8.574,5.732-14.567,5.732
		c-6.237,0-11.314-2.186-15.24-6.523c-3.925-4.346-5.893-10.297-5.893-17.861v-12.77c0-7.725,2.219-13.912,6.674-18.552
		C47.884,15.71,53.508,13.382,60.325,13.382z M57.778,44.686c-2.161,0-3.993,0.354-5.515,1.061
		c-1.513,0.723-2.698,1.697-3.547,2.959v3.27c0,4.684,0.833,8.313,2.522,10.879c1.681,2.571,3.9,3.857,6.666,3.857
		c2.488,0,4.472-1.068,5.952-3.193c1.479-2.137,2.21-4.826,2.21-8.055c0-3.354-0.74-5.984-2.236-7.885
		C62.343,45.636,60.325,44.686,57.778,44.686z"/>
</g>
<g>
	<path fill="#FFFFFF" d="M113.148,53.134c0,7.146-1.841,12.752-5.514,16.82c-3.682,4.077-8.557,6.11-14.626,6.11
		c-6.128,0-11.045-2.033-14.736-6.11c-3.69-4.068-5.54-9.675-5.54-16.82V36.355c0-7.111,1.841-12.718,5.523-16.82
		c3.673-4.103,8.565-6.153,14.668-6.153c6.069,0,10.961,2.051,14.668,6.153s5.556,9.709,5.556,16.82L113.148,53.134L113.148,53.134z
		 M101.212,35.103c0-3.909-0.731-6.935-2.194-9.087c-1.471-2.144-3.497-3.22-6.103-3.22c-2.623,0-4.649,1.076-6.095,3.22
		c-1.437,2.152-2.152,5.178-2.152,9.087v19.2c0,3.992,0.723,7.053,2.169,9.188c1.454,2.135,3.505,3.202,6.162,3.202
		c2.597,0,4.623-1.067,6.052-3.202c1.438-2.136,2.152-5.195,2.152-9.188L101.212,35.103L101.212,35.103z"/>
</g>
<g>
	<g>
		<path fill="#FFFFFF" d="M146.84,46.955c0.16-1.084-0.242-2-1.186-2.707c-0.949-0.714-2.832-1.37-5.641-1.958
			c-4.212-0.832-7.313-2.084-9.323-3.757c-2.009-1.681-2.808-3.959-2.396-6.834c0.454-3.135,2.177-5.75,5.153-7.834
			c2.984-2.077,6.741-3.119,11.264-3.119c4.506,0,8.054,1.076,10.649,3.236c2.591,2.152,3.606,4.8,3.035,7.943l-0.066,0.193h-9.676
			c0.211-1.462-0.102-2.631-0.934-3.497c-0.814-0.875-2.144-1.312-3.968-1.312c-1.53,0-2.841,0.387-3.926,1.151
			c-1.093,0.757-1.706,1.698-1.875,2.808c-0.16,1.135,0.194,2.026,1.042,2.682c0.857,0.656,2.757,1.261,5.684,1.824
			c4.403,0.874,7.598,2.16,9.582,3.85c1.977,1.689,2.758,4.009,2.346,6.978c-0.504,3.312-2.313,5.942-5.431,7.91
			c-3.118,1.957-7.045,2.94-11.776,2.94c-4.741,0-8.432-1.21-11.028-3.632c-2.606-2.412-3.623-5.127-3.06-8.104l0.109-0.201h9.146
			c-0.202,1.899,0.252,3.271,1.362,4.127c1.109,0.842,2.656,1.271,4.631,1.271c1.766,0,3.203-0.354,4.328-1.076
			C145.999,49.124,146.654,48.166,146.84,46.955z"/>
		<path fill="#FFFFFF" d="M177.354,57.454c-5.319,0-9.321-1.63-12.045-4.917c-2.716-3.278-3.666-7.423-2.851-12.449l0.202-1.303
			c0.849-5.489,3.025-9.877,6.531-13.155c3.514-3.278,7.943-4.909,13.257-4.893c4.8,0,8.339,1.471,10.642,4.414
			c2.295,2.942,3.068,6.842,2.286,11.709l-0.748,4.926h-22.149l-0.066,0.168c-0.27,2.497,0.16,4.498,1.313,5.968
			c1.143,1.463,3.075,2.194,5.824,2.194c2.145,0,4.077-0.228,5.792-0.673c1.716-0.438,3.464-1.102,5.229-1.977l1.781,5.885
			c-1.697,1.16-3.857,2.127-6.507,2.918C183.171,57.066,180.348,57.454,177.354,57.454z M181.33,28.109
			c-1.917,0-3.539,0.656-4.852,1.993c-1.312,1.328-2.27,3.06-2.865,5.195l0.066,0.193h12.139l0.108-0.715
			c0.345-2.135,0.16-3.783-0.538-4.934C184.691,28.681,183.339,28.109,181.33,28.109z"/>
		<path fill="#FFFFFF" d="M212.734,25.68c1.438-1.572,3.067-2.782,4.885-3.648c1.814-0.857,3.757-1.286,5.809-1.286
			c3.725,0,6.531,1.235,8.414,3.707c1.893,2.471,2.43,6.254,1.631,11.323l-3.287,20.99h-10.012l3.32-21.049
			c0.445-2.858,0.285-4.833-0.445-5.918c-0.738-1.084-2.066-1.631-3.934-1.631c-1.514,0-2.867,0.252-4.053,0.748
			c-1.211,0.504-2.252,1.21-3.145,2.127l-4.051,25.723h-9.995l8.021-50.991h10.002L212.734,25.68z"/>
	</g>
</g>
<path fill="#FFFFFF" stroke="#FFFFFF" stroke-width="4" stroke-miterlimit="10" d="M111.846,8.052c1.841,0,3.329,1.488,3.329,3.32
	s-1.488,3.32-3.329,3.32c-1.833,0-3.32-1.488-3.32-3.32S110.013,8.052,111.846,8.052z"/>
<g>
	<path fill="#FFFFFF" d="M256.799,56.084c-0.252-0.807-0.438-1.664-0.546-2.563c-0.118-0.908-0.16-1.824-0.144-2.767
		c-1.303,1.74-2.883,3.169-4.74,4.313c-1.866,1.125-3.96,1.705-6.297,1.705c-3.758,0-6.564-0.967-8.439-2.892
		c-1.874-1.916-2.547-4.522-2.018-7.759c0.547-3.598,2.354-6.313,5.414-8.154c3.068-1.841,7.313-2.766,12.752-2.766h5.615
		l0.437-2.808c0.271-1.765,0.024-3.102-0.765-4.009c-0.791-0.899-2.118-1.354-3.993-1.354c-1.556,0-2.857,0.378-3.892,1.126
		c-1.035,0.756-1.656,1.782-1.832,3.085h-9.635l-0.033-0.193c0.336-3.093,2.103-5.699,5.297-7.809
		c3.186-2.11,7.145-3.178,11.852-3.178c4.305,0,7.684,1.084,10.188,3.245c2.488,2.161,3.431,5.204,2.809,9.146l-2.286,14.608
		c-0.276,1.725-0.396,3.287-0.345,4.717c0.05,1.421,0.242,2.85,0.58,4.313h-9.979l0,0L256.799,56.084L256.799,56.084z
		 M248.637,49.713c1.674,0,3.271-0.429,4.809-1.261c1.521-0.841,2.641-1.808,3.32-2.894l0.791-4.967h-5.606
		c-2.034,0-3.699,0.504-4.993,1.53c-1.305,1.024-2.053,2.244-2.295,3.665c-0.202,1.234,0.05,2.202,0.756,2.893
		C246.124,49.369,247.199,49.713,248.637,49.713z"/>
</g>
<path fill="#FFFFFF" stroke="#FFFFFF" stroke-width="2" stroke-miterlimit="10" d="M260.825,23.427c0,0,0.495-8.515,12.719-9.507
	c0,0-0.387,8.162-7.657,10.112c0,0-4.103,0.656-4.834,0.538C261.053,24.57,260.684,24.284,260.825,23.427z"/>
</svg>
