<?xml version="1.0" encoding="utf-8"?>
<!-- Generator: Adobe Illustrator 15.0.0, SVG Export Plug-In . SVG Version: 6.00 Build 0)  -->
<!DOCTYPE svg PUBLIC "-//W3C//DTD SVG 1.1//EN" "http://www.w3.org/Graphics/SVG/1.1/DTD/svg11.dtd">
<svg version="1.1" id="Layer_1" xmlns="http://www.w3.org/2000/svg" xmlns:xlink="http://www.w3.org/1999/xlink" x="0px" y="0px"
	 width="64px" height="64px" viewBox="0 0 64 64" enable-background="new 0 0 64 64" xml:space="preserve">
<path fill="#FFFFFF" d="M46.75,38.999c2.5-3.933,3.967-8.6,3.967-13.616C50.717,11.366,39.367,0,25.367,0C11.35,0,0,11.366,0,25.383
	s11.35,25.383,25.35,25.383c5.084,0,9.817-1.5,13.784-4.066l1.149-0.8L58.384,64L64,58.283L45.917,40.183L46.75,38.999z
	 M39.566,11.199c3.783,3.783,5.867,8.816,5.867,14.167c0,5.35-2.084,10.383-5.867,14.167c-3.783,3.783-8.816,5.866-14.166,5.866
	c-5.351,0-10.384-2.083-14.167-5.866c-3.783-3.784-5.866-8.817-5.866-14.167c0-5.351,2.083-10.384,5.866-14.167
	S20.05,5.333,25.4,5.333C30.75,5.333,35.783,7.416,39.566,11.199z"/>
</svg>
