<?xml version="1.0" encoding="utf-8"?>
<!-- Generator: Adobe Illustrator 15.0.0, SVG Export Plug-In . SVG Version: 6.00 Build 0)  -->
<!DOCTYPE svg PUBLIC "-//W3C//DTD SVG 1.1//EN" "http://www.w3.org/Graphics/SVG/1.1/DTD/svg11.dtd">
<svg version="1.1" id="Layer_1" xmlns="http://www.w3.org/2000/svg" xmlns:xlink="http://www.w3.org/1999/xlink" x="0px" y="0px"
	 width="128px" height="128px" viewBox="0 0 128 128" enable-background="new 0 0 128 128" xml:space="preserve">
<path fill="#FFFFFF" d="M105.05,35.365h-11.6c0.771-1.113,1.379-2.347,1.776-3.682c0.984-3.307,0.621-6.798-1.021-9.83
	c-1.641-3.033-4.364-5.246-7.671-6.229c-3.304-0.984-6.798-0.622-9.829,1.02C70.693,19.9,66.426,26.826,64.037,31.659
	c-2.389-4.833-6.656-11.759-12.668-15.015c-6.263-3.386-14.114-1.049-17.501,5.209c-2.395,4.424-1.92,9.634,0.766,13.512H23.025
	c-2.879,0-5.221,2.342-5.221,5.22v15.636c0,2.878,2.342,5.219,5.221,5.219h1.384v43.515c0,5.543,4.509,10.051,10.051,10.051h59.151
	c5.541,0,10.05-4.508,10.05-10.051V61.44h1.39c2.879,0,5.219-2.341,5.219-5.218V40.585C110.27,37.707,107.928,35.365,105.05,35.365z
	 M78.609,20.162c2.094-1.133,4.502-1.383,6.783-0.704s4.162,2.205,5.293,4.3c1.135,2.093,1.387,4.503,0.707,6.785
	c-0.593,1.988-1.829,3.671-3.523,4.822H66.725C68.611,31.151,72.745,23.338,78.609,20.162z M37.386,23.757
	c2.337-4.319,7.755-5.933,12.08-3.595c5.864,3.177,9.998,10.989,11.885,15.203H40.201C36.473,32.825,35.193,27.809,37.386,23.757z
	 M62.037,61.44v22.785H28.409V61.44H62.037z M28.409,104.955v-16.73h33.628v22.781H34.46
	C31.124,111.006,28.409,108.292,28.409,104.955z M93.611,111.006H66.037V88.225h33.624v16.73
	C99.661,108.292,96.947,111.006,93.611,111.006z M99.661,84.225H66.037V61.44h33.624V84.225z M106.27,56.222
	c0,0.672-0.547,1.219-1.22,1.219h-3.379c-0.003,0-0.007-0.001-0.01-0.001s-0.007,0.001-0.01,0.001H64.047
	c-0.003,0-0.006-0.001-0.01-0.001s-0.006,0.001-0.01,0.001H26.419c-0.003,0-0.006-0.001-0.01-0.001s-0.006,0.001-0.01,0.001h-3.375
	c-0.673,0-1.221-0.547-1.221-1.219V40.585c0-0.661,0.559-1.22,1.221-1.22h82.025c0.66,0,1.22,0.558,1.22,1.22V56.222z"/>
</svg>
