<?xml version="1.0" encoding="utf-8"?>
<!-- Generator: Adobe Illustrator 15.0.0, SVG Export Plug-In . SVG Version: 6.00 Build 0)  -->
<!DOCTYPE svg PUBLIC "-//W3C//DTD SVG 1.1//EN" "http://www.w3.org/Graphics/SVG/1.1/DTD/svg11.dtd">
<svg version="1.1" id="Layer_1" xmlns="http://www.w3.org/2000/svg" xmlns:xlink="http://www.w3.org/1999/xlink" x="0px" y="0px"
	 width="50px" height="50px" viewBox="0 0 50 50" enable-background="new 0 0 50 50" xml:space="preserve">
<g>
	<path fill="#FFFFFF" d="M31.196,16.593l2.542-7.175l-8.795-3.108h-0.221l-6.137,17.331l8.792,3.12h0.225l1.812-5.123
		c4.387,0.909,7.562,4.807,7.562,9.321c0,5.25-4.272,9.521-9.523,9.521c-2.563,0-4.964-1.06-6.725-2.816h2.918v-3.197H7.662v3.197
		h6.545c2.518,4.962,7.656,8.145,13.243,8.145c8.19,0,14.852-6.66,14.852-14.849C42.306,24.165,37.685,18.271,31.196,16.593z"/>
	<polygon fill="#FFFFFF" points="25.135,28.648 25.356,28.648 25.839,27.297 19.682,25.117 19.463,25.117 19.457,25.115 
		18.979,26.466 25.135,28.646 25.615,27.295 25.617,27.297 	"/>
	<polygon fill="#FFFFFF" points="31.188,7.853 32.957,2.799 29.3,1.514 29.074,1.514 27.301,6.56 30.966,7.853 	"/>
	<polygon fill="#FFFFFF" points="21.405,46.191 21.405,48.32 35.262,48.32 35.48,48.32 35.48,46.191 35.262,46.191 	"/>
</g>
</svg>
