<?xml version="1.0" encoding="utf-8"?>
<!-- Generator: Adobe Illustrator 15.0.0, SVG Export Plug-In . SVG Version: 6.00 Build 0)  -->
<!DOCTYPE svg PUBLIC "-//W3C//DTD SVG 1.1//EN" "http://www.w3.org/Graphics/SVG/1.1/DTD/svg11.dtd">
<svg version="1.1" id="Layer_1" xmlns="http://www.w3.org/2000/svg" xmlns:xlink="http://www.w3.org/1999/xlink" x="0px" y="0px"
	 width="201px" height="58px" viewBox="0 0 201 58" enable-background="new 0 0 201 58" xml:space="preserve">
<g>
	<path fill="#AAAAAA" stroke="#FFFFFF" stroke-width="1.5" stroke-miterlimit="10" d="M105.369,53.447h-9.233
		c-2.994,0-4.484-1.272-4.484-3.809v-2.334h1.872v2.334c0,1.45,0.692,1.99,2.657,1.99h3.497c1.52,0,1.8-0.311,1.8-1.396v-5.516
		h1.897v5.547c0,0.498-0.084,0.947-0.231,1.367h2.226L105.369,53.447L105.369,53.447z M99.216,48.632h-3.542v-1.015h0.772
		c-0.051-0.189-0.083-0.365-0.083-0.516c0-0.904,0.641-1.569,1.494-1.569c0.612,0,1.058,0.313,1.33,0.921l-0.881,0.42
		c-0.096-0.27-0.26-0.402-0.458-0.402c-0.311,0-0.461,0.188-0.461,0.579c0,0.298,0.096,0.489,0.298,0.556h1.536v1.026H99.216
		L99.216,48.632z"/>
	<path fill="#AAAAAA" stroke="#FFFFFF" stroke-width="1.5" stroke-miterlimit="10" d="M109.059,50.83c0,0.72-0.205,1.314-0.6,1.79
		c-0.445,0.558-1.07,0.827-1.868,0.827h-1.792v-1.815h1.396c0.639,0,0.966-0.446,0.966-1.329v-5.58h1.896v6.109h0.002V50.83z"/>
	<path fill="#AAAAAA" stroke="#FFFFFF" stroke-width="1.5" stroke-miterlimit="10" d="M118.184,53.447h-1.795
		c-0.215,1.49-1.246,2.234-3.09,2.234H113.1v-1.517h0.16c0.731,0,1.164-0.271,1.314-0.799c-0.15,0.053-0.525,0.079-1.164,0.079
		c-1.778,0-3.079-1.288-3.079-3.09c0-1.832,1.272-3.066,3.079-3.066c1.734,0,3.007,1.305,3.007,3.107v1.231h1.767V53.447
		L118.184,53.447z M114.521,51.63v-1.313c0-0.799-0.474-1.313-1.172-1.313c-0.715,0-1.094,0.556-1.094,1.272
		c0,0.771,0.462,1.354,1.163,1.354L114.521,51.63L114.521,51.63z"/>
	<path fill="#AAAAAA" stroke="#FFFFFF" stroke-width="1.5" stroke-miterlimit="10" d="M127.375,53.447h-9.691V51.63h7.674
		c-0.082-1.532-1.248-2.726-2.832-2.726c-0.815,0-1.735,0.425-2.277,0.98c-0.188-0.259-0.503-0.679-0.952-1.291
		c0.925-0.961,2.045-1.437,3.365-1.437c3.104,0.014,4.715,2.129,4.715,5.667L127.375,53.447L127.375,53.447z"/>
	<path fill="#AAAAAA" stroke="#FFFFFF" stroke-width="1.5" stroke-miterlimit="10" d="M141.801,53.447h-2.781
		c-0.744,1.406-2.111,2.25-3.699,2.25c-2.385,0-4.28-2.008-4.28-4.608v-3.786h1.905v3.606c0,1.791,0.91,3.024,2.389,3.024
		c1.465,0,2.372-1.274,2.372-3.024v-3.606h1.897v4.326h2.197V53.447L141.801,53.447z M136.256,46.277h-1.679v-1.561h1.679V46.277z"
		/>
	<path fill="#AAAAAA" stroke="#FFFFFF" stroke-width="1.5" stroke-miterlimit="10" d="M149.298,51.521
		c0,1.815-1.219,3.093-3.114,3.093c-1.154,0-2.021-0.394-2.574-1.167h-2.438V51.63h1.881c0-1.938,1.112-3.17,3.064-3.17
		C148.063,48.46,149.298,49.665,149.298,51.521z M147.42,51.591c0-1.069-0.41-1.614-1.209-1.614h-0.135
		c-0.692,0-1.17,0.639-1.17,1.532c0,0.923,0.465,1.56,1.275,1.56C146.926,53.068,147.42,52.471,147.42,51.591z"/>
	<path fill="#AAAAAA" stroke="#FFFFFF" stroke-width="1.5" stroke-miterlimit="10" d="M161.732,53.447h-1.909
		c-1.087,0-1.847-0.559-2.275-1.668c-0.344,0.527-0.989,0.813-1.927,0.813c-1.628,0-2.67-1.408-2.67-3.281
		c0-2.021,1.017-3.318,2.805-3.318c0-0.014,1.205-0.014,3.618-0.014v4.271c0,0.896,0.462,1.381,1.385,1.381h0.976v1.817H161.732z
		 M156.15,44.718h-1.685v-1.573h1.685V44.718z M157.423,49.162v-1.788h-1.247c-0.775,0-1.343,0.854-1.343,1.91
		c0,0.952,0.541,1.735,1.301,1.735C156.936,51.02,157.423,50.273,157.423,49.162z M158.701,44.718h-1.684v-1.573h1.684V44.718z"/>
	<path fill="#AAAAAA" stroke="#FFFFFF" stroke-width="1.5" stroke-miterlimit="10" d="M172.363,53.447h-11.061V51.63h7.698
		c-0.038-0.718-0.301-1.33-0.774-1.841c-0.528-0.582-1.233-0.885-2.086-0.885c-0.813,0-1.734,0.425-2.261,0.98
		c-0.194-0.259-0.504-0.679-0.952-1.291c0.924-0.961,2.032-1.437,3.35-1.437c0.799,0,1.502,0.149,2.111,0.435
		c1.449,0.691,2.303,2.031,2.532,4.039h1.438v1.814h0.004V53.447z"/>
	<path fill="#AAAAAA" stroke="#FFFFFF" stroke-width="1.5" stroke-miterlimit="10" d="M185.8,53.447h-14.032V51.63h1.713
		c0.621,0,0.957-0.323,0.957-1.3v-2.371h1.897v1.748c1.192-1.52,2.771-2.428,4.282-2.428c2.229,0,3.525,1.574,3.701,4.351h1.479
		v1.817H185.8L185.8,53.447z M182.346,51.63l0.012-0.243c0-1.396-0.691-2.451-1.885-2.451c-1.394,0-2.641,0.906-3.686,2.696h5.559
		V51.63z"/>
	<path fill="#AAAAAA" stroke="#FFFFFF" stroke-width="1.5" stroke-miterlimit="10" d="M189.505,50.83c0,0.72-0.205,1.314-0.597,1.79
		c-0.445,0.558-1.073,0.827-1.872,0.827h-1.791v-1.815h1.397c0.637,0,0.965-0.446,0.965-1.329v-5.58h1.895v6.109h0.003V50.83
		L189.505,50.83z"/>
	<path fill="#AAAAAA" stroke="#FFFFFF" stroke-width="1.5" stroke-miterlimit="10" d="M192.787,53.447h-1.9v-8.743h1.9V53.447z"/>
</g>
<rect id="_x3C_Slice_x3E_" x="21.398" y="1.546" fill="none" width="172.302" height="54.151"/>
<g>
	
		<linearGradient id="SVGID_1_" gradientUnits="userSpaceOnUse" x1="308.0088" y1="406.1172" x2="336.9648" y2="406.1172" gradientTransform="matrix(1 0 0 1 -303.8594 -374.6406)">
		<stop  offset="0" style="stop-color:#16BBD8"/>
		<stop  offset="0.509" style="stop-color:#17B9D6"/>
		<stop  offset="0.6924" style="stop-color:#1BB2CF"/>
		<stop  offset="0.823" style="stop-color:#23A7C4"/>
		<stop  offset="0.9279" style="stop-color:#2D96B3"/>
		<stop  offset="1" style="stop-color:#3885A3"/>
	</linearGradient>
	<path fill="url(#SVGID_1_)" stroke="#FFFFFF" stroke-width="2" stroke-miterlimit="10" d="M18.183,27.726
		c1.994,0,3.471-0.527,4.442-1.584c0.965-1.056,1.452-2.54,1.452-4.457c0-1.602-0.51-2.931-1.526-3.988
		c-1.016-1.057-2.432-1.582-4.256-1.582c-1.532,0-2.823,0.478-3.865,1.435c-1.044,0.959-1.567,2.179-1.567,3.664H4.757L4.7,21.039
		c-0.112-3.341,1.15-6.096,3.794-8.266c2.647-2.169,5.914-3.252,9.804-3.252c4.333,0,7.772,1.041,10.32,3.122
		c2.551,2.08,3.827,5.065,3.827,8.956c0,1.953-0.555,3.746-1.654,5.377c-1.105,1.632-2.612,2.917-4.529,3.855
		c2.186,0.842,3.869,2.117,5.061,3.825c1.186,1.713,1.782,3.777,1.782,6.201c0,3.906-1.384,6.979-4.153,9.22
		c-2.77,2.237-6.321,3.354-10.654,3.354c-3.811,0-7.147-1.055-10.003-3.164c-2.855-2.113-4.237-5.07-4.141-8.882l0.058-0.175h8.167
		c0,1.602,0.551,2.943,1.65,4.028c1.103,1.083,2.525,1.626,4.272,1.626c1.917,0,3.468-0.575,4.657-1.729
		c1.189-1.153,1.785-2.61,1.785-4.37c0-2.246-0.558-3.912-1.673-4.996c-1.109-1.084-2.737-1.627-4.884-1.627h-4.628v-6.418h4.625
		V27.726z"/>
</g>
<linearGradient id="SVGID_2_" gradientUnits="userSpaceOnUse" x1="325" y1="-249.4785" x2="353.8887" y2="-249.4785" gradientTransform="matrix(1 0 0 -1 -295.5 -218)">
	<stop  offset="0" style="stop-color:#16BBD8"/>
	<stop  offset="0.509" style="stop-color:#17B9D6"/>
	<stop  offset="0.6924" style="stop-color:#1BB2CF"/>
	<stop  offset="0.823" style="stop-color:#23A7C4"/>
	<stop  offset="0.9279" style="stop-color:#2D96B3"/>
	<stop  offset="1" style="stop-color:#3885A3"/>
</linearGradient>
<path fill="url(#SVGID_2_)" stroke="#FFFFFF" stroke-width="2" stroke-miterlimit="10" d="M55.368,28.855
	c-2.013-2.589-4.811-3.884-8.394-3.884c-1.897,0-3.783,0.307-5.328,0.924c-1.542,0.614-3.146,1.478-4.146,2.593V27.11
	c0-3.419,0.918-6.086,2.422-8.004c1.503-1.915,3.566-2.873,6.018-2.873c1.362,0,2.599,0.114,3.634,0.338
	c1.036,0.227,2.226,0.562,3.53,1.013l1.507-6.275c-1.362-0.586-2.735-1.032-4.123-1.334c-1.391-0.301-2.898-0.453-4.526-0.453
	c-4.776,0-8.699,1.628-11.808,4.88C31.035,17.656,29.5,21.99,29.5,27.403v8.943c0,5.297,1.357,9.467,4.107,12.516
	c2.75,3.05,6.302,4.574,10.67,4.574c4.199,0,7.595-1.338,10.204-4.018c2.608-2.676,3.908-6.156,3.908-10.434
	C58.389,34.818,57.38,31.445,55.368,28.855z M49.285,43.859c-1.535,1.345-3.061,2.322-3.657,2.675
	c-0.593-0.364-2.141-1.33-3.673-2.692c-1.74-1.518-3.794-3.846-3.794-6.277c0-1.252,0.34-2.398,0.98-3.233
	c0.673-0.873,1.641-1.334,2.789-1.334c2.372-0.013,3.163,2.021,3.183,2.03l0.516,1.328l0.506-1.328
	c0.032-0.078,0.827-2.043,3.179-2.043c1.144,0,2.1,0.471,2.769,1.347c0.641,0.835,0.984,1.978,0.984,3.233
	C53.08,39.989,51.009,42.33,49.285,43.859z"/>
<g>
	
		<linearGradient id="SVGID_3_" gradientUnits="userSpaceOnUse" x1="358.5195" y1="406.1182" x2="386.8369" y2="406.1182" gradientTransform="matrix(1 0 0 1 -303.8594 -374.6406)">
		<stop  offset="0" style="stop-color:#8CC63F"/>
		<stop  offset="0.4818" style="stop-color:#8AC53E"/>
		<stop  offset="0.6553" style="stop-color:#83C13D"/>
		<stop  offset="0.779" style="stop-color:#78B939"/>
		<stop  offset="0.879" style="stop-color:#67AE34"/>
		<stop  offset="0.9637" style="stop-color:#51A12E"/>
		<stop  offset="1" style="stop-color:#45992B"/>
	</linearGradient>
	<path fill="url(#SVGID_3_)" stroke="#FFFFFF" stroke-width="2" stroke-miterlimit="10" d="M82.976,37.371
		c0,5.003-1.292,8.932-3.865,11.783c-2.577,2.855-5.994,4.279-10.25,4.279c-4.292,0-7.733-1.424-10.32-4.279
		c-2.587-2.85-3.881-6.78-3.881-11.783V25.614c0-4.982,1.288-8.912,3.865-11.784c2.577-2.873,6.003-4.309,10.279-4.309
		c4.253,0,7.683,1.436,10.278,4.309c2.597,2.872,3.895,6.802,3.895,11.784L82.976,37.371L82.976,37.371z M74.611,24.737
		c0-2.737-0.513-4.857-1.539-6.364c-1.025-1.503-2.448-2.256-4.272-2.256c-1.839,0-3.259,0.753-4.269,2.256
		c-1.003,1.506-1.509,3.627-1.509,6.364v13.455c0,2.795,0.509,4.938,1.526,6.436c1.016,1.497,2.452,2.243,4.313,2.243
		c1.817,0,3.234-0.746,4.237-2.243c1.01-1.497,1.513-3.641,1.513-6.436V24.737L74.611,24.737z"/>
</g>
<g>
	<path fill="#1ACFE2" stroke="#FFFFFF" stroke-width="1.5" stroke-miterlimit="10" d="M106.577,33.045
		c0.112-0.762-0.163-1.396-0.826-1.898c-0.663-0.504-1.983-0.961-3.952-1.375c-2.948-0.579-5.125-1.458-6.532-2.631
		c-1.41-1.177-1.971-2.772-1.683-4.789c0.32-2.197,1.526-4.026,3.615-5.485c2.09-1.458,4.718-2.188,7.894-2.188
		c3.15,0,5.638,0.755,7.455,2.268c1.817,1.512,2.528,3.366,2.128,5.565l-0.048,0.138h-6.774c0.144-1.022-0.07-1.841-0.647-2.452
		c-0.577-0.611-1.507-0.915-2.785-0.915c-1.073,0-1.991,0.267-2.75,0.802c-0.763,0.535-1.199,1.191-1.311,1.97
		c-0.113,0.794,0.131,1.42,0.73,1.879c0.6,0.457,1.926,0.886,3.975,1.281c3.094,0.61,5.33,1.508,6.719,2.693
		c1.384,1.183,1.932,2.813,1.644,4.889c-0.353,2.32-1.622,4.167-3.808,5.541c-2.186,1.375-4.936,2.062-8.249,2.062
		c-3.331,0-5.911-0.848-7.738-2.541c-1.827-1.692-2.538-3.59-2.138-5.681l0.074-0.138h6.414c-0.145,1.329,0.17,2.292,0.949,2.889
		c0.775,0.594,1.859,0.891,3.252,0.891c1.233,0,2.24-0.25,3.029-0.756C105.994,34.559,106.453,33.887,106.577,33.045z"/>
	<path fill="#1ACFE2" stroke="#FFFFFF" stroke-width="1.5" stroke-miterlimit="10" d="M127.958,40.398
		c-3.718,0-6.528-1.147-8.433-3.447c-1.906-2.299-2.57-5.202-1.993-8.715l0.145-0.916c0.591-3.848,2.118-6.92,4.573-9.219
		c2.462-2.297,5.555-3.439,9.285-3.424c3.365,0,5.849,1.031,7.458,3.094c1.608,2.061,2.146,4.793,1.6,8.199l-0.528,3.457h-15.52
		l-0.045,0.117c-0.191,1.753,0.109,3.149,0.913,4.181c0.802,1.029,2.161,1.545,4.084,1.545c1.503,0,2.854-0.158,4.062-0.471
		c1.198-0.313,2.416-0.773,3.649-1.386l1.25,4.123c-1.188,0.81-2.708,1.487-4.563,2.04
		C132.035,40.124,130.059,40.398,127.958,40.398z M130.747,19.833c-1.347,0-2.481,0.465-3.399,1.396
		c-0.921,0.932-1.591,2.146-2.008,3.643l0.049,0.136h8.506l0.07-0.504c0.24-1.496,0.115-2.648-0.372-3.458
		C133.104,20.237,132.154,19.833,130.747,19.833z"/>
	<path fill="#1ACFE2" stroke="#FFFFFF" stroke-width="1.5" stroke-miterlimit="10" d="M152.749,18.136
		c1.007-1.1,2.151-1.95,3.424-2.553c1.269-0.604,2.628-0.906,4.07-0.906c2.608,0,4.573,0.868,5.897,2.601
		c1.318,1.731,1.697,4.378,1.137,7.934l-2.301,14.704h-7.017l2.33-14.749c0.308-2,0.194-3.383-0.324-4.145
		c-0.519-0.763-1.438-1.146-2.753-1.146c-1.055,0-2.003,0.177-2.843,0.526c-0.843,0.352-1.577,0.847-2.198,1.489l-2.834,18.024
		h-7.016l5.625-35.729h7.01L152.749,18.136z"/>
</g>
<circle fill="none" stroke="#AAAAAA" stroke-miterlimit="10" cx="82.065" cy="8.11" r="2.327"/>
<path fill="#7FD6E8" d="M5.7,19.62h0.647c0,0,1.131-8.989,11.49-9.158c0,0-9.544-0.967-12.137,8.899"/>
<path fill="#7FD6E8" d="M31.215,21.168h0.801c0,0,3.327-10.425,11.951-10.73C43.971,10.438,35.058,9.994,31.215,21.168z"/>
<path fill="#BADD8C" d="M56.255,23.257h1.097c0,0,1.032-10.256,6.721-11.52C64.073,11.738,57.903,12.729,56.255,23.257z"/>
<g>
	
		<linearGradient id="SVGID_4_" gradientUnits="userSpaceOnUse" x1="471.8203" y1="401.6982" x2="496.0439" y2="401.6982" gradientTransform="matrix(1 0 0 1 -303.8594 -374.6406)">
		<stop  offset="0" style="stop-color:#8CC63F"/>
		<stop  offset="0.4818" style="stop-color:#8AC53E"/>
		<stop  offset="0.6553" style="stop-color:#83C13D"/>
		<stop  offset="0.779" style="stop-color:#78B939"/>
		<stop  offset="0.879" style="stop-color:#67AE34"/>
		<stop  offset="0.9637" style="stop-color:#51A12E"/>
		<stop  offset="1" style="stop-color:#45992B"/>
	</linearGradient>
	<path fill="url(#SVGID_4_)" stroke="#FFFFFF" stroke-width="1.5" stroke-miterlimit="10" d="M183.623,39.438
		c-0.173-0.566-0.305-1.166-0.381-1.797c-0.084-0.637-0.115-1.279-0.1-1.938c-0.91,1.222-2.02,2.229-3.324,3.022
		c-1.307,0.795-2.775,1.193-4.409,1.193c-2.63,0-4.597-0.676-5.91-2.027c-1.313-1.353-1.785-3.164-1.417-5.439
		c0.385-2.52,1.65-4.423,3.795-5.713c2.145-1.29,5.122-1.937,8.934-1.937h3.94l0.312-1.968c0.189-1.238,0.01-2.173-0.541-2.806
		c-0.552-0.634-1.483-0.952-2.799-0.952c-1.09,0-2,0.264-2.728,0.791c-0.728,0.526-1.153,1.247-1.281,2.163h-6.75l-0.022-0.136
		c0.236-2.167,1.476-3.995,3.709-5.474c2.236-1.48,5-2.222,8.297-2.222c3.014,0,5.392,0.756,7.139,2.268
		c1.743,1.514,2.4,3.65,1.971,6.414l-1.609,10.237c-0.19,1.207-0.274,2.307-0.238,3.302c0.032,0.99,0.166,1.996,0.409,3.021h-6.995
		V39.438z M177.908,34.971c1.171,0,2.289-0.295,3.363-0.882c1.068-0.587,1.849-1.265,2.328-2.024l0.553-3.482h-3.939
		c-1.423,0-2.59,0.357-3.496,1.075c-0.904,0.718-1.436,1.575-1.596,2.565c-0.145,0.869,0.033,1.543,0.527,2.027
		C176.146,34.729,176.898,34.971,177.908,34.971z"/>
</g>
<path fill="#40990D" stroke="#FCFCFC" stroke-width="0.8" stroke-miterlimit="10" d="M186.439,16.553c0,0,0.354-5.96,8.918-6.66
	c0,0-0.272,5.719-5.369,7.087c0,0-2.875,0.457-3.385,0.376C186.604,17.356,186.341,17.157,186.439,16.553z"/>
</svg>
